<mxfile host="Electron" modified="2024-02-25T04:23:09.139Z" agent="Mozilla/5.0 (Macintosh; Intel Mac OS X 10_15_7) AppleWebKit/537.36 (KHTML, like Gecko) draw.io/23.0.2 Chrome/120.0.6099.109 Electron/28.1.0 Safari/537.36" etag="EWmXsnIZMgDzQUhU32yb" version="23.0.2" type="device">
  <diagram name="Page-1" id="3hk7GSZ-ucXjaiOd4sks">
    <mxGraphModel dx="954" dy="613" grid="1" gridSize="10" guides="1" tooltips="1" connect="1" arrows="1" fold="1" page="1" pageScale="1" pageWidth="827" pageHeight="1169" math="0" shadow="0">
      <root>
        <mxCell id="0" />
        <mxCell id="1" parent="0" />
        <mxCell id="SbEmLFBMXfGKY2shz8Sj-1" value="" style="shape=image;verticalLabelPosition=bottom;labelBackgroundColor=default;verticalAlign=top;aspect=fixed;imageAspect=0;image=data:image/png,iVBORw0KGgoAAAANSUhEUgAABFAAAAMkCAYAAACfk9RlAAAMP2lDQ1BJQ0MgUHJvZmlsZQAASImVVwdYU8kWnluSkEBooUsJvQkCUgJICaEFkF4EUQlJgFBiDAQVe1lUcC2oiIINXRVR7DQLithZFHtfLCgo62LBrrxJAV33le+d75t7//vPmf+cOXduGQDUTnBEolxUHYA8YYE4NiSAPi45hU7qAQhQB1RgBpw53HwRMzo6AkAbOv/d3t2A3tCuOki1/tn/X02Dx8/nAoBEQ5zOy+fmQXwIALyKKxIXAECU8uZTC0RSDBvQEsMEIV4sxZlyXCXF6XK8T+YTH8uCuA0AJRUOR5wJgOplyNMLuZlQQ7UfYichTyAEQI0OsW9e3mQexGkQ20AfEcRSfUb6DzqZf9NMH9bkcDKHsXwuMlMKFOSLcjnT/89y/G/Ly5UMxbCCTSVLHBornTOs262cyeFSrAJxnzA9MgpiTYg/CHgyf4hRSpYkNEHujxpy81mwZkAHYiceJzAcYkOIg4W5kREKPj1DEMyGGK4QdJqggB0PsR7Ei/n5QXEKn83iybGKWGh9hpjFVPDnOGJZXGmsB5KcBKZC/3UWn63Qx1SLsuKTIKZAbFEoSIyEWBVix/ycuHCFz5iiLFbkkI9YEivN3wLiWL4wJECujxVmiINjFf4leflD88U2ZwnYkQp8oCArPlReH6yNy5HlD+eCXeYLmQlDOvz8cRFDc+HxA4Pkc8d6+MKEOIXOB1FBQKx8LE4R5UYr/HEzfm6IlDeD2DW/ME4xFk8sgAtSro9niAqi4+V54kXZnLBoeT74ChABWCAQ0IEEtnQwGWQDQUdfQx+8kvcEAw4Qg0zABw4KZmhEkqxHCI9xoAj8CREf5A+PC5D18kEh5L8Os/KjA8iQ9RbKRuSApxDngXCQC68lslHC4WiJ4AlkBP+IzoGNC/PNhU3a/+/5IfY7w4RMhIKRDEWkqw15EoOIgcRQYjDRFjfAfXFvPAIe/WFzwRm459A8vvsTnhI6CY8I1wldhNuTBPPFP2U5FnRB/WBFLdJ/rAVuBTXd8ADcB6pDZVwHNwAOuCuMw8T9YGQ3yLIUeUurQv9J+28z+OFuKPzITmSUrEv2J9v8PFLVTtVtWEVa6x/rI881fbjerOGen+Ozfqg+D57Df/bEFmMHsbPYSew8dhRrAHSsBWvE2rFjUjy8up7IVtdQtFhZPjlQR/CPeEN3VlrJfKdap16nL/K+Av406TsasCaLposFmVkFdCb8IvDpbCHXcSTdxcnFFQDp90X++noTI/tuIDrt37kFfwDg0zI4OHjkOxfWAsB+D/j4N33nbBjw06EMwLkmrkRcKOdw6YEA3xJq8EnTB8bAHNjA+bgAd+AN/EEQCANRIB4kg4kw+yy4zsVgKpgJ5oFiUApWgDVgPdgEtoKdYA84ABrAUXASnAEXwWVwHdyFq6cbvAD94B34jCAICaEiNEQfMUEsEXvEBWEgvkgQEoHEIslIGpKJCBEJMhNZgJQiZch6ZAtSg+xHmpCTyHmkE7mNPER6kdfIJxRDVVAt1Ai1QkehDJSJhqPx6AQ0E52CFqEL0WVoBVqN7kbr0ZPoRfQ62oW+QAcwgCljOpgp5oAxMBYWhaVgGZgYm42VYOVYNVaHNcP7fBXrwvqwjzgRp+F03AGu4FA8AefiU/DZ+FJ8Pb4Tr8fb8Kv4Q7wf/0agEgwJ9gQvApswjpBJmEooJpQTthMOE07DZ6mb8I5IJOoQrYke8FlMJmYTZxCXEjcQ9xJPEDuJj4kDJBJJn2RP8iFFkTikAlIxaR1pN6mFdIXUTfqgpKxkouSiFKyUoiRUmq9UrrRL6bjSFaVnSp/J6mRLshc5iswjTycvJ28jN5MvkbvJnykaFGuKDyWekk2ZR6mg1FFOU+5R3igrK5speyrHKAuU5ypXKO9TPqf8UPmjiqaKnQpLJVVForJMZYfKCZXbKm+oVKoV1Z+aQi2gLqPWUE9RH1A/qNJUHVXZqjzVOaqVqvWqV1RfqpHVLNWYahPVitTK1Q6qXVLrUyerW6mz1Dnqs9Ur1ZvUb6oPaNA0nDWiNPI0lmrs0jiv0aNJ0rTSDNLkaS7U3Kp5SvMxDaOZ01g0Lm0BbRvtNK1bi6hlrcXWytYq1dqj1aHVr62p7aqdqD1Nu1L7mHaXDqZjpcPWydVZrnNA54bOJ10jXaYuX3eJbp3uFd33eiP0/PX4eiV6e/Wu633Sp+sH6efor9Rv0L9vgBvYGcQYTDXYaHDaoG+E1gjvEdwRJSMOjLhjiBraGcYazjDcathuOGBkbBRiJDJaZ3TKqM9Yx9jfONt4tfFx414TmomvicBktUmLyXO6Np1Jz6VX0Nvo/aaGpqGmEtMtph2mn82szRLM5pvtNbtvTjFnmGeYrzZvNe+3MLEYazHTotbijiXZkmGZZbnW8qzleytrqySrRVYNVj3WetZs6yLrWut7NlQbP5spNtU212yJtgzbHNsNtpftUDs3uyy7SrtL9qi9u73AfoN950jCSM+RwpHVI286qDgwHQodah0eOuo4RjjOd2xwfDnKYlTKqJWjzo765uTmlOu0zemus6ZzmPN852bn1y52LlyXSpdro6mjg0fPGd04+pWrvSvfdaPrLTea21i3RW6tbl/dPdzF7nXuvR4WHmkeVR43GVqMaMZSxjlPgmeA5xzPo54fvdy9CrwOeP3l7eCd473Lu2eM9Rj+mG1jHvuY+XB8tvh0+dJ903w3+3b5mfpx/Kr9Hvmb+/P8t/s/Y9oys5m7mS8DnALEAYcD3rO8WLNYJwKxwJDAksCOIM2ghKD1QQ+CzYIzg2uD+0PcQmaEnAglhIaHrgy9yTZic9k17P4wj7BZYW3hKuFx4evDH0XYRYgjmseiY8PGrhp7L9IyUhjZEAWi2FGrou5HW0dPiT4SQ4yJjqmMeRrrHDsz9mwcLW5S3K64d/EB8cvj7ybYJEgSWhPVElMTaxLfJwUmlSV1jRs1bta4i8kGyYLkxhRSSmLK9pSB8UHj14zvTnVLLU69McF6wrQJ5ycaTMydeGyS2iTOpINphLSktF1pXzhRnGrOQDo7vSq9n8viruW+4PnzVvN6+T78Mv6zDJ+MsoyeTJ/MVZm9WX5Z5Vl9ApZgveBVdmj2puz3OVE5O3IGc5Ny9+Yp5aXlNQk1hTnCtsnGk6dN7hTZi4pFXVO8pqyZ0i8OF2/PR/In5DcWaMEf+XaJjeQXycNC38LKwg9TE6cenKYxTTitfbrd9CXTnxUFF/02A5/BndE603TmvJkPZzFnbZmNzE6f3TrHfM7COd1zQ+bunEeZlzPv9/lO88vmv12QtKB5odHCuQsf/xLyS22xarG4+OYi70WbFuOLBYs7loxesm7JtxJeyYVSp9Ly0i9LuUsv/Or8a8Wvg8sylnUsd1++cQVxhXDFjZV+K3eWaZQVlT1eNXZV/Wr66pLVb9dMWnO+3LV801rKWsnaroqIisZ1FutWrPuyPmv99cqAyr1VhlVLqt5v4G24stF/Y90mo02lmz5tFmy+tSVkS321VXX5VuLWwq1PtyVuO/sb47ea7QbbS7d/3SHc0bUzdmdbjUdNzS7DXctr0VpJbe/u1N2X9wTuaaxzqNuyV2dv6T6wT7Lv+f60/TcOhB9oPcg4WHfI8lDVYdrhknqkfnp9f0NWQ1djcmNnU1hTa7N38+Ejjkd2HDU9WnlM+9jy45TjC48PthS1DJwQneg7mXnyceuk1runxp261hbT1nE6/PS5M8FnTp1lnm0553Pu6Hmv800XGBcaLrpfrG93az/8u9vvhzvcO+oveVxqvOx5ublzTOfxK35XTl4NvHrmGvvaxeuR1ztvJNy4dTP1Ztct3q2e27m3X90pvPP57tx7hHsl99Xvlz8wfFD9h+0fe7vcu449DHzY/iju0d3H3McvnuQ/+dK98Cn1afkzk2c1PS49R3uDey8/H/+8+4Xoxee+4j81/qx6afPy0F/+f7X3j+vvfiV+Nfh66Rv9Nzveur5tHYgeePAu793n9yUf9D/s/Mj4ePZT0qdnn6d+IX2p+Gr7tflb+Ld7g3mDgyKOmCP7FcBgQzMyAHi9AwBqMgA0uD+jjJfv/2SGyPesMgT+E5bvEWXmDkAd/H+P6YN/NzcB2LcNbr+gvloqANFUAOI9ATp69HAb2qvJ9pVSI8J9wGb21/S8dPBvTL7n/CHvn89AquoKfj7/C3ADfHaDE1lPAAAAimVYSWZNTQAqAAAACAAEARoABQAAAAEAAAA+ARsABQAAAAEAAABGASgAAwAAAAEAAgAAh2kABAAAAAEAAABOAAAAAAAAAJAAAAABAAAAkAAAAAEAA5KGAAcAAAASAAAAeKACAAQAAAABAAAEUKADAAQAAAABAAADJAAAAABBU0NJSQAAAFNjcmVlbnNob3QU+9cgAAAACXBIWXMAABYlAAAWJQFJUiTwAAAB12lUWHRYTUw6Y29tLmFkb2JlLnhtcAAAAAAAPHg6eG1wbWV0YSB4bWxuczp4PSJhZG9iZTpuczptZXRhLyIgeDp4bXB0az0iWE1QIENvcmUgNi4wLjAiPgogICA8cmRmOlJERiB4bWxuczpyZGY9Imh0dHA6Ly93d3cudzMub3JnLzE5OTkvMDIvMjItcmRmLXN5bnRheC1ucyMiPgogICAgICA8cmRmOkRlc2NyaXB0aW9uIHJkZjphYm91dD0iIgogICAgICAgICAgICB4bWxuczpleGlmPSJodHRwOi8vbnMuYWRvYmUuY29tL2V4aWYvMS4wLyI+CiAgICAgICAgIDxleGlmOlBpeGVsWURpbWVuc2lvbj44MDQ8L2V4aWY6UGl4ZWxZRGltZW5zaW9uPgogICAgICAgICA8ZXhpZjpQaXhlbFhEaW1lbnNpb24+MTEwNDwvZXhpZjpQaXhlbFhEaW1lbnNpb24+CiAgICAgICAgIDxleGlmOlVzZXJDb21tZW50PlNjcmVlbnNob3Q8L2V4aWY6VXNlckNvbW1lbnQ+CiAgICAgIDwvcmRmOkRlc2NyaXB0aW9uPgogICA8L3JkZjpSREY+CjwveDp4bXBtZXRhPgqJ6FSSAAAAHGlET1QAAAACAAAAAAAAAZIAAAAoAAABkgAAAZIAAJskaDPS9QAAQABJREFUeAHs3QeYFMXWxvEjGQERBUwoEgxgVjAHVDBjAgWzYsCIioIYERPmz4CoqIhiwiwo5pwxB0CCooIJQQkiSeDjLW+1Pb0zsz27OzszO/96Hu5093So/lWPz+2zVadWmNBvs2VWhUqTrRtUobvhVhBAAAEEEEAAAQQQQACBqiHw+5i5VeNGuIuiFViBAErRtj03jgACCCCAAAIIIIAAAghUmgABlEqj5kJZEiCAkiVYTosAAggggAACCCCAAAIIIPCfAAGU/yxYKkyBKhVAYfhOYT6E1BoBBBBAAAEEEEAAAQSqvgABlKrfxlX9DgmgVPUW5v4QQAABBBBAAAEEEEAAgTwQIICSB41AFcolQAClXHwcjAACCCCAAAIIIIAAAgggUJoAwZPShPi+EAQIoBRCK1FHBBBAAAEEEEAAAQQQQKCABQigFHDjUfVAgABKQMECAggggAACCCCAAAIIIIBANgQIoGRDlXNWtsAKy5aXyr4o10MAAQQQQAABBBBAAAEEEEAAAQQKSYAASiG1FnVFAAEEEEAAAQQQQAABBBBAAIGcCBBAyQk7F0UAAQQQQAABBBBAAAEEEEAAgUISIIBSSK1FXRFAAAEEEEAAAQQQQAABBBBAICcCBFByws5FEUAAAQQQQAABBBBAAAEEEECgkAQIoBRSa1FXBBBAAAEEEEAAAQQQQAABBBDIiQABlJywc1EEEEAAAQQQQAABBBBAAAEEECgkAQIohdRa1BUBBBBAAAEEEEAAAQQQQAABBHIiQAAlJ+xcFAEEEEAAAQQQQAABBBBAAAEECkmAAEohtRZ1RQABBBBAAAEEEEAAAQQQQACBnAgQQMkJOxdFAAEEEEAAAQQQQAABBBBAAIFCEiCAUkitRV0RQAABBBBAAAEEEEAAAQQQQCAnAgRQcsLORRFAAAEEEEAAAQQQQAABBBBAoJAECKAUUmtRVwQQQAABBBBAAAEEEEAAAQQQyIkAAZScsHNRBBBAAAEEEEAAAQQQQAABBBAoJAECKIXUWtQVAQQQQAABBBBAAAEEEEAAAQRyIkAAJSfsXBQBBBBAAAEEEEAAAQQQQAABBApJgABKIbUWdUUAAQQQQAABBBBAAAEEEEAAgZwIEEDJCTsXRQABBBBAAAEEEEAAAQQQQACBQhIggFJIrUVdEUAAAQQQQAABBBBAAAEEEEAgJwIEUHLCzkURQAABBBBAAAEEEEAAAQQQQKCQBAigFFJrUVcEEEAAAQQQQAABBBBAAAEEEMiJAAGUnLBzUQQQQAABBBBAAAEEEEAAAQQQKCQBAiiF1FrUFQEEEEAAAQQQQAABBBBAAAEEciJAACUn7FwUAQQQQAABBBBAAAEEEEAAAQQKSYAASiG1FnVFAAEEEEAAAQQQQAABBBBAAIGcCBBAyQk7F0UAAQQQQAABBBBAAAEEEEAAgUISIIBSSK1FXRFAAAEEEEAAAQQQQAABBBBAICcCBFByws5FEUAAAQQQQAABBBBAAAEEEECgkAQIoBRSa1FXBBBAAAEEEEAAAQQQQAABBBDIiQABlJywc1EEEEAAAQQQQAABBBBAAAEEECgkAQIohdRa1BUBBBBAAAEEEEAAAQQQQAABBHIiQAAlJ+xcFAEEEEAAAQQQQAABBBBAAAEECkmAAEohtRZ1RQABBBBAAAEEEEAAAQQQQACBnAgQQMkJOxdFAAEEEEAAAQQQQAABBBBAAIFCEiCAUkitRV0RQAABBBBAAAEEEEAAAQQQQCAnAgRQcsLORRFAAAEEEEAAAQQQQAABBBBAoJAECKAUUmtRVwQQQAABBBBAAAEEEEAAAQQQyIkAAZScsHNRBBBAAAEEEEAAAQQQQAABBBAoJAECKIXUWtQVAQQQQAABBBBAAAEEEEAAAQRyIkAAJSfsXBQBBBBAAAEEEEAAAQQQQAABBApJgABKIbUWdUUAAQQQQAABBBBAAAEEEEAAgZwIEEDJCTsXRQABBBBAAAEEEEAAAQQQQACBQhIggFJIrUVdEUAAAQQQQAABBBBAAAEEEEAgJwIEUHLCzkURQAABBBBAAAEEEEAAAQQQQKCQBAigFFJrUVcEEEAAAQQQQAABBBBAAAEEEMiJAAGUnLBzUQQQQAABBBBAAAEEEEAAAQQQKCQBAiiF1FrUFQEEEEAAAQQQQAABBBBAAAEEciJAACUn7FwUAQQQQAABBBBAAAEEEEAAAQQKSYAASiG1FnVFAAEEEEAAAQQQQAABBBBAAIGcCBBAibCfc8459tRTTyVsfe+992z11VdP2MYKAsUmsGTJEluwYIHVq1ev2G6d+0UAAQQQQAABBBBAAAEErEoEUGbNmmWjR4+2KVOm2LRp0+yXX36xVVdd1Vq2bGktWrRwn+3bt7fq1auX2uQEUEolYociFLjqqqvsySeftL///ts6duxo/fv3d7+xIqTglhFAAAEEEEAAAQQQQKBIBQo6gKKAyT333ON6jMyfPz9tE7Zu3douuugi23nnndPuRwAlLQ9fFqHAp59+al27dk248759+9rJJ5+csI0VBBBAAAEEEEAAAQQQQKAqCxRsAOWll16ys88+20oLnEQbb7fddrMrrrgi5ZAcAihRMdarksD06dNt4sSJCbe03nrr2WqrrZawLbxy11132cCBA8ObrEOHDjZ06NCEbawkFyiLefIzsRUBBBBAAAEEEEAAAQRyKVCQART1OtEL3dKlS8tkt8kmm9gTTzxhNWrUKHE8AZQSJGyoQgLK76NnPFyuvfbaEj1Mwt9PnTrVBUyWLVsWbL7uuuusS5cuwToLqQXKYp76bHyDAAIIIIAAAggggAACuRIouADKu+++a0cddVQJr0aNGtnuu+9uCo60bdvW5s6daz/88IOpp8r7779fYv/jjz/eLrzwwhLbCaCUIGFDFRIo68v8m2++6YKOf/zxhx1wwAF24IEHWs2aNauQTPZupazm2asRZ0YAAQQQQAABBBBAAIGyCBRUAEXDdfbee2/78ccfE+51gw02sLvvvtvWWmuthO1+5cUXX7RevXrZ4sWL/SZbYYUV3BCEXXbZJdimBQIoCRysVDEBXuYrv0Exr3xzrogAAggggAACCCCAQDYECiqAcuONN9qgQYMSHDbbbDN74IEHSp1a9dZbb7X/+7//SzhWPVaU3yFcCKCENViuagK8zFd+i2Je+eZcEQEEEEAAAQQQQACBbAgUVABlhx12cFMUhyHuvfdei/YiCX/vl//55x/bbrvtbObMmX6TNWjQwDTDSHh649ICKIsWLbLx48fbl19+6Xq0aHYfJeFcY401gvNmsqBeMR999JEpz8SMGTOsbt261rx5c/dv3XXXTZqnJXp+Dav466+/gs21atVKSJK7ZMkSmzBhgqvznDlzTHXWv3XWWSc4JpMFf77PP//cFi5caBtvvLEbNlWvXj13GuXK0P2Ey+qrr26qV5yiaai/+eYbNwRL51cPow033DDhnuKcp7R9/vzzTzfUy+9XrVo1a9asmVvVPagOH374oWsDPXuaEtsXPUfz5s3zq+5Tx+ocqcpPP/1ksvMl2k5+e0W356+//mp6blU0pE1TEofLeeed53p2+W3qyRX+TSxYsMCUCDVcVl55ZVtppZXCm9xy1FR5htZcc81gP/Ui07M4btw4075KXrv55pu75zHYKbSg/d977z33POkZ129D05O3atXK6tSpE9oz/mJlPF9lMdczJetwady4sa244orhTSWWf/75Z9N/38JF5j7HU7RNos/d77//bmPHjnXPu9p+0003dc7h82W6XBnGmdaJ/RFAAAEEEEAAAQQQKK9AwQRQFLBQ3oVwUeDihRdecMNxwttTLZ9yyimm4Tzhor8OqxeLL6kCKAq2KGfK6NGjS7ys6FgNLdLsPsrFEqfoZVo9avRCG30R98cr6NC7d287+OCD076YR+usF/m33nrL/v77b1dnGSkQES2a0vnqq6+OHZhQPS+44AJ7+eWXS7zoaUhUh+Uzs1x//fXuWttvv33C5R599FFr165dwrboyieffOJ6BL3yyitJEwTrpV25a9SO6QIV0fOmWr/00kvt/vvvD75W0GDSpEn2wQcf2GmnneZe8P2XZ5xxhpv1ya+feuqp7tnz6/r87LPPrGHDhuFNCctbbbVVwjkVGHr++ecT9tFKRbdnp06d7Ntvvy1xnVQbFLDQs+eL1o888ki/6j7PPfdck0G0RE3lIRcFYDT18TvvvJO0bWWjZ0cBEhU9uzfccIONGDHCLUevo9/ZZZddZvvuu2/0q5Trlfl8lcV82LBhNmTIkIT6n3DCCe43l7AxtKLgSPv27RNMZT5mzJggR020TRSYfe2111wg+Mwzz7TJkyeHzvjvos7Ro0cPO/3002P/91VHVqZxiUqzAQEEEEAAAQQQQACBLAsUTABFM4XccccdCRwXXXSR+z/5CRvTrNx3332m84SLAhR6Kfcl+vKq7Xqx0cvad99953dL+qm/FitQoBeUdOXBBx90wZZkQY1kx6n3xUMPPWQKICQr0Tprv8cee8wFGpK9HIXPoV4EeknVy3y6orwzJ554ogswpNtPf/k+6aSTTC9t4VJaAOW2225zAaXwTC/h48PL2267rds3/JIf/j7ucvTFUseprRUY0At8uCiHzllnnRVsqswASnnbsywv82Hb8gRQFOjSrFkKuIR7fwWQoQU9i08//bTrhXXYYYfZ999/H/o2+aICO/ptllYq+/kqi7l6Hu23334Jt6JeYm+88UbCtvDKk08+6WzD2w455BC75pprgk3R57x+/fp2ySWXuH/RHi/BQf9bUIBKMy7F6e1T2cbRurKOAAIIIIAAAggggEC2BQomgHLccceZZgIJl6FDh7peD+Ft5V2OBiN0PvVMCA+9SHcN9UTRi0SqonwtennJtHTs2LHEX6f9OaJ11kurhgKl6tnij/OfGgKloVCpimYzOuigg2zWrFmpdil1e7oAinq1PPLII6WeI7zDqquuauqpkq7HR3j/ZMvRF0vto+ENfrhL+Bj9pV7/fKnMAEp527MsL/MVFUCRl3onxQmMad8tt9zSBa80fCpO0bnVi0zDTlKVXDxfZTXfY489SvQIUQ+y9ddfP+ntqadUtBeTelXtuOOOwf7JnvPgyxgL6uGiIGu6kgvjdPXhOwQQQAABBBBAAAEEsiFQMAGUzp07u3H6YQS9OJTWcyK8f5zlaDAifIzyhqj3g66pMf7PPvtsiRmBtP8zzzzjplMOH6tl5UXYbbfdEoa/6AVQ08IeeuihLv+G8qBo+M3tt99eYtiNcld07949etoSQz7CO6g3jPJ3qBeL6qwhTMmGc+gFSS9KyYp6D+gv3dGiYRc6pkmTJm6YhoYNRHNl+GNSBVCee+450/CYaFF769wKkEycONH17FGuhnA5+eST3bCQ8LZMljN5scxlACV8T2VpT7W5pvVW0RCL6MuweiyE2169DhSA86U8PVD8OZSPQ0PldB31UlJQTs+UhqCkKsr9oeFrCh743Cn6bUWDmRoupsBkspKr56us5gq+auhSuKiXnIbSRIvyJ+k3GM5/pF5wmrY9nMMm1XOuwFybNm1cm+i5+vrrr90QK/13KlrSBatzZRytI+sIIIAAAggggAACCGRboGACKApcRF/Ov/jiC5cItiKRUgVQNEwgmgdCPRWUo0B5HcKlT58+bvhMeJuWkw1DOvvss5MGEJRnpGfPngmn0F+no8OYtEOqOicb4qSXLg2xifbmSfWSNmXKFNN1wy+tCvooH4xyJISLElmqzq+//np4s1tOFkBRjxb1rNHQBV/UA2Tw4MEu0OS36VMv2rJWPg1fNKxA11Ii0rKUVC+W6n3RpUsX93KqBLkaalW7dm3Ty6kvldkDxV+zItqzLDPClDeAouCJZruKJnuePXu2Cxwq70y0aNiSXsyjyZmVuFgBn/DzqGCBeqyEgwY6X66fL39PmZhrqFyH5bmEwkXP4MiRI8Ob3PK7775rRx11VMJ2rQ8YMCBhW7LnXL9hzUq2//77J+yrNtHvTIG2cFGgRsMCoyVfjKP1Yh0BBBBAAAEEEEAAgWwIFEwARQljwy9NennWTB4VXZIFI1IFF3RtzV6h3hLhot4kSs4aLUp+Gg5c6C/AejlNNpuJjo0OA9DLpF6aoiVZndP1zpBbNNeCAgbKdRAtunflpQgX3YeCRMmKgg1HH320m1ko/H2yAMrw4cOtf//+4d0smmsk/KVekmUdfg4UxFFgoSwl2YulerzoRVG9jdKVyg6gVFR7ZvIy7++/vAEU5eNQ0CNZUQAsnIPI76NgY9euXf1qwqeeEfX+Chedxyeg9dtz/Xz5emRqrt9iOFCo86gNwsOqtE1BXeXsCZdkv7Nkz3myYJw/j3r7KIgT7fGV7Nz5YuzrzicCCCCAAAIIIIAAAtkUKIgAivInaNrScFH3fnU5r+iSLBiR7OXFX1e9LjQ8ZunSpX6TG+ajpK/lLclmDUo200umdVYAQnUOByJS/YV5m222SXiRUm+Ct99+O22vD/1l+9Zbb024fQUldI1wUaDp448/DjZp2Ij+8p0uYaVeqjX1tC+q38MPP+xXM/pM9mJ59913l+j9kuyklR1ASfcMZtKemb7M697LG0DRTFOpAlLqWRR9LjRkR3k/UhX1UNKMPeGiQIJmlQqXXD9fvi6ZmiuHiZ7NcFGvkmhvEwU51GPFFw2N0m9TvUvCJdlznq5NdOwtt9xiN910U/g0Lmiq/yaFS74Yh+vEMgIIIIAAAggggAAC2RIggBKRzTQYocOV1yE8w4iCPRqCU96i4T3K+RAummK3adOm4U1Jh/Cke+HWwVtvvbUp34ovyeqsv0RvtNFGfhf3ufvuu7vhGAkbIytxAijq+q8X53ByUSW+DE8rHDmtW7344otNsxj5opfG6BAq/11pn2V5sfTnzKcAiuoUpz21X6Yv8zommwEUnT/au0zD9dIFINUTol+/fjo0KJoSPDzNeT48X75ymZrrvyUyCAc4lcdIvT180exaGloXLpol6/zzzw9vcstlec5//vnnhES0OtERRxxhl19+eXD+fDIOKsUCAggggAACCCCAAAJZFCiIAIruX3+VVm8PXzT8ZcKECSXyHvjvy/pZlgBKND9LsmBEsvooqatyG0ybNs0lmFXyRnWb9y9OSg4Zneq4ogIoceqc7CVNwy2U/yRdiRNAGT9+vClZabhoJhXVK11RD5yPPvoo2EXPgc5Vs2bNYFvchbK8WPpz51sAJU57qu6ZvszrmGwHUKK/bd1LugDK448/XiJ5cDSAkg/Pl+xUymJ+7LHHumTS/57BTD2/1FvLD/dTLqTolOz6b4nypURLWZ5zBTbVS005k3yJztaVT8a+jnwigAACCCCAAAIIIJBNgYIJoKh3gv4qGi6l9bII7xt3uTICKBp6pKEiSpLpgyVx66cZNqJJU7NV52T5KTRdqZJMpitxAihvvPFGiSS06c6Z7rvXXnvN1l0+i0impSwvlv4aBFDONRlES1lMowGU0oZlxQmg5MPz5W3KEkBJdox+V5qxS0U5ZcKJXvX863eQrJSlTXQeDYlScNcX9RTS7EK+5JOxrxOfCCCAAAIIIIAAAghkU6BgAijRFwah6CVDU6NWZMlWMMLXUUlg9dflTAMn/vjKDKAoeaySyIZL+CUuvD28HCeAoilsNT1yRZSyPgdlfbFUnQmg5HcAJR+eL/9sJwuGpEuSq+PmzZvnhgYuWLDAn8b23ntv0zTHyhujYYPhvEuaClxD/pKVsj7nup56+fnSqFGjhKBNPhn7OvKJAAIIIIAAAggggEA2BQomgHL66afb6NGjEyzUjT2aByBhh8iKhsdoWEq4KIdGePaObAZQdG3NsDF37tygCkr4qL/0Hnzwwa4XRZMmTdyUudpBQ2WiyTQrM4AyZswY6969e1BXLSRLZpmww/KVOAGUZL1blDy2LENxlBMl2dCFaL2i62V9sdR5CKDkdwAlH54v/7yVJYCiYxUUUS81X5Q4WwmUtU3/nQqXdElhy/qcR3M7RXug5JNx2IJlBBBAAAEEEEAAAQSyJVAwAZShQ4faFVdckeCgnhyXXHJJwrZ0K5qm9/bbb0/YZeDAgdatW7dgWzYDKEry+OqrrwbX0kK6v0RnM4lsnJwZyRJJpptO199YnACKhgZEZ03p2bOnnXfeef40Wf8s64ulKkYAJXsBFCXEfeSRR1K2f5whPPnwfPkbKGsARYmo9ZsIF/13UPcfDiYrV0l4Pby/lsvynKuHnIZWhZM877rrrnbPPfcEp88n46BSLCCAAAIIIIAAAgggkEWBggmgKOGq8qCE/w99gwYNTD0y9JfZOCU6Ba6OefPNN23ttdcODs9mACU6U0ppuR5yHUDREAG9nIWT96rHj3r+pCtxAihqR/Ua0Uw/vqSaStl/X9GfZXmx9HWI9g7QdiX5XGWVVfwuJT51fxp+4csGG2xgzz//vF8NPrP5DJblZb6yk8hWRAAlH54v36BlMdexSuAqi9mzZ/tTuR5sykOiBNO+9OnTx6LTC/vv9FmW5/y7776zjh07hk9jRx99tDuX35hPxr5OfCKAAAIIIIAAAgggkE2BggmgCCFZAOTKK6+0ww47rFSjH374wb0QhHOPNGvWLGGmC50kWy+vyXpz9OjRwy666KKUdc91AEUV69Chg/34449BHTUbyFtvvWWrr756sC26ECeAomP2339/U0JdXzR8R0MRwkOq/HfZ+CzLi6Wvh5678F/jtf3ZZ5+1tm3b+l1KfBJAKUHiNkSTyFZEAEUnzvXz5e+2rAEUHa+kzeHeONWrVy+RP0nJXNdZZx1/uRKfZXnOr7nmGrvzzjsTzpUsgXS+GCdUlBUEEEAAAQQQQAABBLIkUFABFL2g9urVK4FC03oOGTLE/aU24YvQinpSaJhOeNYKfa3Ai16EwyVbAZRkf9Hdc889Swwp8nWZOHGiHX744fbHH3/4Te6zMqcx1gWvv/56Gzx4cEId0g2dmjlzprPW/YbLY489ZgoghMvNN99s+hcuyrvw8MMPm6YnTlVGjRpl999/v2t3JbYsaynLi6W/1vDhw61///5+1X1edtllduSRRyZs8yt6iVbS3HAPqlz0QEn2G+rbt69paFaqUog9UHQvuX6+vGdZzP2x+r3rvwOpyuabb25K5pquJHvO9d/Rs846K+lhf//9t+20004JvaWUq0n5mJQHJVzyxThcJ5YRQAABBBBAAAEEEMiWQEEFUISgKXSj03XWqlXLlMtkn332CRKwejD1cNB3GuoTLkrWqhcbfYZLtgIoenHedNNN3ewa/nr6a7ICAdttt53f5D5V52OOOSbhBcbvEB1ypO3ZqrPOPWvWLPcypVlBwkUv3Bo6oBcrXzQ8RQGE8ePH+03B56OPPmrt2rUL1rWwaNEi12bRYMvuu+/uAltNmzZN2F+BsFtvvTUIuuhlToGM6H4JB6VZSfZimS4ZZ/hUyaZwVUJi3ac+w0VJP/WyGu79pO/V8yKaJFjbs9men332mRsGouv4onw4Dz30kF8t8VnZARQF0UaMGFGiHn5DnBwo2jfXz5evb1nM/bF65jV08ddff/WbEj7Vg0092dKVZM+59k+WEFoBW53vyy+/TDjlXnvtVSKQqh3yxTihsqwggAACCCCAAAIIIJAlgYILoOhFQv9nfs6cOSVINLykTZs21rp1a9OMO1OnTnXDT8J/9ddBqQIX+i6bL68nnXSSvfLKK7pMUNTTQvez0UYbmYb5KNATDSgEOy9f0NTCCsSESzbrrOvccMMNbvrU8DW1rGEDW265pcv7od49CvxEgwT+mGQBFH334Ycfur+wR9tIPYt22GEHl4NF59TsI59//nlC7gcdf8ABB7hZf7ScaUn2Yhk3gLJw4UJTUs3oi63qrQDQaqutZt9884198cUXSQNhqmsuAijqIaQARbQoD5B6HSi3hma80m/Il0INoKj+uXy+vF9ZzP2x+lQA+K677gpvcsv6b4emRdezlq4ke879/houpyFTrVq1snHjxrnzqb7RomBzquFp+WAcrS/rCCCAAAIIIIAAAghkQ6DgAihC0PCW448/3n766acymWgohWZRSVayGYzQy/a+++6b8oU6WX2i2+6++27bbbfdEjZns866kJJYHnrooTZp0qSE62aykiqAonMkGyYU59wtW7Z0M5KsvPLKcXYvsU+yF8u4ARSdLFlPiBIXSbMhFwEUVUdD1/TSm6pEh1sVcgBF95ir5yvsm6l5+NixY8da586dw5vccmlJqP0ByZ5z/12cz2RDHaPH5YNxtE6sI4AAAggggAACCCBQ0QIFGUARwowZM9xfyseMGRPbRLO+KBGihiykKtkORrzzzjsuj4uGxqQr6n2hrvtK5hguGsKkewiXbNdZ19IQnjPPPLPE8KlwPbSs3jHrrruujRw5MuGrdAEU7aiX9H79+pmmRo1TlD/m8ssvt8aNG8fZPek+yV4sMwmgqGdM7969TTlZ0hX1jNJ+b7/9dsJQslwFUNQrpkuXLqbhIclKrgMoGuql5yVVSRa4uvHGG+3AAw9MdUhOnq9wZTI1Dx+rZc1+NXny5ITNmtY9XX4Uv3Oy51y/5WHDhiXM8OP3958anqdE1uqRFKfk4jccp17sgwACCCCAAAIIIIBARQkUbADFA2joyL333mua2jPZ8JH69eubeiocddRRdvDBByfk7PDnCH9WRjBCuUI0LEZ5HqJ1Vnf8E0880Y477jiXQFbd68PDW5T3Q/caLpVRZ11PL9yDBg1yuWO+/fbbhHqpF4j+Uq0XLr3MRqc6VkBFAax0Rckrb7rpJjfLj4YxhadP1nGapWeXXXZxSWo1TKa8JdmLZSYBFH99BVD0MqthY+Gi+mrYg5LNKtmnppoNt12uAiiqo4ZEnXfeeaZ2jBYlJVV9fansHijZCKDoXir7+fJ+/jMTc3+M/1TuH81u5YuGISp4HCeJcqrnXP9tvPDCC11wSUPSfFHAT89tz549be+99/abY33m2jhWJdkJAQQQQAABBBBAAIEyChR8AMXft5IZKoeIejAoEaISeaonRHl6KPhzZ+tTAYLvv//e5TxRIlwFGPK5vmEH5aDRX9XlrpetNdZYI/j6jDPOMCVO9UV/yf7qq69sxRVX9JtK/ZSNgigaNiQbBZZatGhhDRo0KPXYXO2gXlGqr54/BbqUV0IvuvlaFBBTniA5L1iwwE0frd9MJu2Ur/dWWr1y9XyV1VwzPKnHiC8KJCpwHKekCqD4PDcK4k6ZMsUNjdT05MrHVLt27TinTrtProzTVoovEUAAAQQQQAABBBAoh0CVCaCUw4BDK1ggOtxAyWY1aw0FAQQyF1CQUjN1qeeaL8o5oh51cUppAZQ452AfBBBAAAEEEEAAAQQQMCOAwlMQS+CBBx5wPU40VCXdX6efeuopN5NR+KSdOnWyO++8M7yJZQQQiCnwyCOPJOQ90u/vo48+Mg3BiVMIoMRRYh8EEEAAAQQQQAABBEoXIIBSulHR76HcDd27d3c5STTMaPDgwdasWbMSLprq9OKLLy6RmDLZzEElDmYDAgiUEFDi2G7duiX0PjnooINcDqUSO6fYQAAlBQybEUAAAQQQQAABBBDIUIAASoZgxba7cp1oxpvffvstuHXlNFE+ki222MIl6NV00l9++aV9/fXXwT5+4ZBDDikxk5D/jk8EEEgUUDLX+++/3yW8VfBESY0XL14c7FStWjWXiFj5deIWAihxpdgPAQQQQAABBBBAAIH0AgRQ0vvw7XIBTRccN2FlGEy9VEaPHh17qEH4WJYRKEYBBSzDMyBFDbp27WrXXnttdHPadQIoaXn4EgEEEEAAAQQQQACB2AIEUGJTFfeOw4cPd9Oozpo1q1QI/ZVcQ340vXKcaVZLPSE7IFAkAukCKJreWb/DdDmIkjERQEmmwjYEEEAAAQQQQAABBDIXIICSuVnRHjF79mx76KGH7Pnnny8xXEfDejTVsKY0Puuss9yUzEULxY0jUEaBZAGUGjVq2BFHHGG9e/cu0zTeBFDK2BgchgACCCCAAAIIIIBARIAASgSE1XgCmlJVuU9mzJhhTZo0cTlRVlxxxXgHsxcCCCQVWLJkib3//vv23Xff2dy5c93vSkN61lxzzaT7x9moXmPz5s1L2FXBTgVmKAgggAACCCCAAAIIIBBfgABKfCv2RAABBBBAAAEEEEAAAQQQQACBIhUggFKkDc9tI4AAAggggAACCCCAAAIIIIBAfAECKPGt2BMBBBBAAAEEEEAAAQQQQAABBIpUgABKkTY8t40AAggggAACCCCAAAIIIIAAAvEFCKDEt2JPBBBAAAEEEEAAAQQQQAABBBAoUgECKEXa8Nw2AggggAACCCCAAAIIIIAAAgjEFyCAEt+KPRFAAAEEEEAAAQQQQAABBBBAoEgFCKAUacNz2wgggAACCCCAAAIIIIAAAgggEF+AAEp8K/ZEAAEEEEAAAQQQQAABBBBAAIEiFSCAUqQNz20jgAACCCCAAAIIIIAAAggggEB8AQIo8a3YEwEEEEAAAQQQQAABBBBAAAEEilSAAEqRNjy3jQACCCCAAAIIIIAAAggggAAC8QUIoMS3Yk8EEEAAAQQQQAABBBBAAAEEEChSAQIoRdrw3DYCCCCAAAIIIIAAAggggAACCMQXIIAS34o9EUAAAQQQQAABBBBAAAEEEECgSAUIoBRpw3PbCCCAAAIIIIAAAggggAACCCAQX4AASnwr9kQAAQQQQAABBBBAAAEEEEAAgSIVIIBSpA3PbSOAAAIIIIAAAggggAACCCCAQHwBAijxrdgTAQQQQAABBBBAAAEEEEAAAQSKVIAASpE2PLeNAAIIIIAAAggggAACCCCAAALxBQigxLdiTwQQQAABBBBAAAEEEEAAAQQQKFIBAihF2vDcNgIIIIAAAggggAACCCCAAAIIxBcggBLfij0RQAABBBBAAAEEEEAAAQQQQKBIBQigFGnDc9sIIIAAAggggAACCCCAAAIIIBBfgABKfCv2RAABBBBAAAEEEEAAAQQQQACBIhUggFKkDc9tI4AAAggggAACCCCAAAIIIIBAfAECKPGt2BMBBBBAAAEEEEAAAQQQQAABBIpUgABKkTY8t40AAggggAACCCCAAAIIIIAAAvEFCKDEt2JPBBBAAAEEEEAAAQQQQAABBBAoUgECKEXa8Nw2AggggAACCCCAAAIIIIAAAgjEFyCAEt+KPRFAAAEEEEAAAQQQQAABBBBAoEgFCKAUacNz2wgggAACCCCAAAIIIIAAAgggEF+AAEp8K/ZEAAEEEEAAAQQQQAABBBBAAIEiFSCAUqQNz20jgAACCCCAAAIIIIAAAggggEB8AQIo8a3YEwEEEEAAAQQQQAABBBBAAAEEilSAAEqRNjy3jQACCCCAAAIIIIAAAggggAAC8QUIoMS3Yk8EEEAAAQQQQAABBBBAAAEEEChSAQIoRdrw3DYCCCCAAAIIIIAAAggggAACCMQXIIAS34o9EUAAAQQQQAABBBBAAAEEEECgSAUIoBRpw3PbCCCAAAIIIIAAAggggAACCCAQX4AASnwr9kQAAQQQQAABBBBAAAEEEEAAgSIVIIBSpA3PbSOAAAIIIIAAAggggAACCCCAQHwBAijxrSplz9mzZ9uzzz5r06ZNs86dO1vbtm0r5bpcBAEEEEAAAQQQQAABBBBAAAEEUgsURADl66+/th49eqS8ixVXXNHWWmsta9asmW255ZZ28MEHW82aNVPun89fnHnmmTZq1ChXRd3D+++/b6ussko+V5m6IYAAAggggAACCCCAAAIIIFDlBQoigPLZZ59Zly5dYjeGgil9+/Z1PThiH1QJO7766qs2derU4Ep77bWXrb766sG6FrbddlubPn16sO3OO++0Tp06BeuFuhDn3gv13qg3AggggAACCCCAAAIIIIBA1ReokgEUNVv16tXt/vvvt+222y5vWvGEE06w1157LajPww8/bNtss02wroXrr7/eBg8e7LY1bdrU3nzzTatdu3bCPoW4EufeC/G+qDMCCCCAAAIIIIAAAggggEBxCBRkAGXllVe23r17By00b948mzhxoo0cOdKWLFkSbG/cuLELQNStWzfYlsuFuEGECRMm2I8//mi77LKL1apVK5dVrrBrx733CrsgJ0IAAQQQQAABBBBAAAEEEECgAgUKMoCiITpvv/12CQYNEznxxBMTtj/22GO21VZbJWzLxsrSpUtt2bJlrudLqvNnO4jwzz//WI0aNVJd3gWXVlhhBatWrVrKfZJ9sXjxYndeHVvWku17T1Wv0kxSHaftixYtqjIBrHT3yXcIIIAAAggggAACCCCAAAKlC1SpAIqCGNtvv31CDpHLLrvMjjzySJs7d6779CSrrbaaDRkyxK+6z6+++souuuiiYFv79u2DdfVyOfzww4PvNDSoX79+bpjQCy+8YDpWgYaWLVvaYYcdZkcddVSw78knn2y//PKLff/9964e/gvtW69ePdtwww3tmmuucZvPO+88++abb/wudtNNN1mLFi3c+uOPP27Dhw8PvrvyyitdgtkbbrjBvvjiC3f+ddZZx9q1a2dnn322rbHGGiYT3acCTtpHPXRatWrl7iV8P8FJ/7egxL333Xefvfvuu/bbb7+ZevGsv/76tsUWW1ivXr2sYcOG0UOSrse594MOOsgGDhwYHN+oUSMbNmxYsO4XTjvtNDc7kV9Xwt3ddtvN5cdRoERFwbJzzz3Xrr32WnvnnXdsypQpLsHwZpttZqeeeqq1adPGH17ic/78+fbEE0/Yo48+at99951pXYmJN9hgAzvkkEOqRC6aEjfNBgQQQAABBBBAAAEEEEAAgVgCVSqAojs+55xz7KmnngpuXut68f7zzz8TeqLoxfitt94K9tOCZrw54ogjgm277rqr3XPPPW59zpw5tvnmmwff6YVc53juueeCbeEFBVAGDBjgNnXo0MENyQl/H17WzEEKjqh07drVPv300+Brnd+/9N92222mYIkvRx99tJuxR/cWLeutt54LtvTv399efPHF6NduPVzH8A533HGHy8Wi4EuyosS3ytWiYFVpJc69K1eNglUKWPjy/PPPu8CFX//1118TrqccN2PGjDEFW3SvfuiW2kTBnkmTJvlDg0/N1nTjjTfaHnvsEWzzCxoypd5LyY7z+yiIcumll7rz+218IoAAAggggAACCCCAAAIIFIdAlQugaArjzz//PGg9BRzUw6GiAyjBBVIs6AX/lVdesebNm1ucIEJZAigpLh1srlOnji1YsCBYjy6oji+//LKtu+66wVcKZihIUFpRz5k33njDVl111bS7xr139Wp59tlng3OpF4l6jPjy4IMP2sUXX+xXXX6Ye++9162HAyjBDikWlFNGgTMl6PXl77//Ns2ING3aNL8p5WfPnj1NvYQoCCCAAAIIIIAAAggggAACxSVQZQIo6iHy0EMPuaEbvgmVD0RDVzRcJxsBFA2FUe8WDZvRcBENeQn3Bjn//PNdr4YZM2a4HhIKCmhIjC+abUdDYvRSr54UKpn0QNH+xx57rHv51zAbzerzwQcfaHNQGjRoYGeddZapx4x6bCjo8Pvvvwff9+nTx0455RS3rl4eHTt2NAUUfFEvHA2BmjVrlhva8uGHH/qv3FAlDSNKV+Leu4JNJ510UnCqcK8cbTz++OPt9ddfD773gTFtiAZQ1B6nn36668Eyfvx4u+qqq0zPhy/qaaK28UXDvMJDhhRc0TCsHXbYwV566SVTHp3Zs2e73dVWCjqtvfba/nA+EUAAAQQQQAABBBBAAAEEikCgIAMoGoqx3377Bc2j4IECEz4Phv9Cw3Euv/xyt1rRAZT69eu7HibhngxXXHGFDR061F/eBR70cu5LnESqmQRQunXrlpA7ZPLkySWGpwwaNMj22WcfXwUXYNIQHV+UB0X1VtF25Q7xRQGEcM4V5XjZeuutg2CCerCMHTs2VqLV0u5d59YwHh/oUKJbBXxWWWUV14tGARXfm0bTOn/88ccuf4zqGg6gqE6aKjoc4FCPEwWafFHbKR+MkuIqUayuqxw5vkQTD991110JzgqaaWgYBQEEEEAAAQQQQAABBBBAoHgECjKAEqd5dt99d7v99tuDWWkqOoCiBK3h3iSq0xvLh7T06NEjqJ56c4QT1ZYWRNCBmQRQ+vbta0rSGi4KBsycOTPY9NlnnyUkfI3WMZznpUuXLqb9fVFAJZovRD03RowY4XdxPTRat24drKdaiHPvSsqrBK6+XHfddS5BrAIiOt6Xvffe25QPxpdwAEXBFfU6iRZNCT116tRgs4IzmuY6GlxRQt/Ro0cH+2lBPXMUTNIsSyr77ruv3XrrrW6Z/0EAAQQQQAABBBBAAAEEECgOgSoZQFEvCgUiwqUyAih6Ke/evXtw2XBwQhvjBBHKG0CJBgqUkHbllVcO6vTRRx+Zeq74svPOOwfDV7bZZpuE4T0KJqhHR7hoSI56/Pii3hkKVpVW4tx7NImv8pJomJNmRtLwLF8UGNtzzz39akIPlFQBlOOOO87efPPN4Jinn37aNt10U3fe8MxL6vGi4Fi0jBs3LgigbLzxxjZy5MjoLqwjgAACCCCAAAIIIIAAAghUYYGCDKDoJXnbbbcNmkW9JvzQD230UxcHOyxfIIDyr0aqAIp6V6gnR6qZd8KW4WUN/0k3HbLfN04AJToNtRLVKgCkoJB6gaho+I3uQc+AL3F6oPTu3dsUNPHlzjvvdNMS33zzzaZ/mZQmTZpYOBdMJseyLwIIIIAAAggggAACCCCAQGEKFGQAZa211nLJYT353Xff7RKF+nXlJVHCUU1n6wsBlH8lUgVQ9O1WW22VkARX0xWXVpSEVrMclVbiBFB0DuWs8bPraF3Deq6++motuqJhRhraEy5xAigaWqXhS75oqFC7du0sOuuQgjZKvJuuqJdKeMagdPvyHQIIIIAAAggggAACCCCAQNUQqBIBFCUX1XS506dPD1olmh8kGkBZc8013cw5wQHLF6JDSMJDcNTDZfPNNw92T5YDJR+H8HzyySfBDD+qfLoAimaeCfesuOeee0wGFVHiBlCU3DUckFHC4PCsQJotR8OOwiVOAEVDfiZNmhQc9t5775kCRJq1KNyDRsN6wj1VggNYQAABBBBAAAEEEEAAAQQQKGqBKhFAUQtqCuEBAwYEjbnSSiu5nBcNGzZ025YsWWJt2rQJZurRDCx6idYUx75oetqePXv6VRc8UBBBJRsBFPW00PCUcKnoHCiZBFD69++fMOtOqmDCzz//7PKgaArmuCUaQEl27/5cCob9+OOPfjX4VM8PBXiieVnCARRNXa0hXepJ4osCJ+GcKZqKWDlNNNNPNLCmYzSTkuoQLS+88IIb9hO9fnQ/1hFAAAEEEEAAAQQQQAABBKqeQJUJoGg6WvWW+OWXX4JW0gw16onii5KdTpkyxa+aelycccYZpmCLpsVVnow//vgj+L6ie6Bo6tunnnoqOL+CJRdccIEbauRzeuQygKJAg6aH1pTCvmgqaBlpWJR6+CiAoUCVpozWdL8KXsQpce7dn+fGG280Tb8cLUceeaTLbxPdHg6g6LvtttvO7deyZUv7/vvv7dRTT7UJEyYEhx1yyCF2zTXXBOtnn322PfPMM8G6hohpKJFm3lHRsQr4qO2UJPiqq64K9mUBAQQQQAABBBBAAAEEEECgOASqTABFzfXwww/bhRdeGLSccqAoF4pe/lWiPSy0Tb0QVJIlT63oAIqmBdYMQdGiWXKULFUllwEUXV/TA99www1aTCiynD9/fsK29ddf30356w0TvoysxLl3f8jkyZNLTJ+s73zeEr+f/4wGUPx2BaUWLlzoV92neo+88sor1rx582C7eqGoh4pmGAoX7at7CweU9L2mMNZUxhQEEEAAAQQQQAABBBBAAIHiEahSART1ilAvk6lTpwYtqB4U6k2got4lCorMnTs3+D68oIDAxIkTg00VHUDR9L+dOnWyv/76K7iGFvIpgKKhTvJ64IEHkgaVfMXVu2PIkCGmzzglzr2Hz7PPPvvYN998E2xSzpq3337bNPQqWsIBFAU86tSpk5A3xe+v79TjRwllo0VDndRLJtnQIb+vrt2rVy/3L1k9/H58IoAAAggggAACCCCAAAIIVD2BKhVAUfM8/vjjCcN2lBPjtddes2bNmrnW05AOzeyihK++KF+GEolqqEc4r0dFB1B0PSWq1Uv8Dz/84C9v4Wlxc90DxVdKPWI0+83YsWODnifqkaFgRfv27e3cc88tdbYafy7/Wdq9+/30Ge2xctJJJ7l2C+/jl8MBFPU6GT16tBuOpYS0vqjHidwVwEpVlIz4lltusZEjR5ryvPjSqFEjUz4YPSPpjvf784kAAggggAACCCCAAAIIIFD1BAoigJINdvUC+fbbb13vj3XWWSdpz4ZsXFfn1HAh5WrRPyWxVc6NOMNgslWfdOddtmyZ69Gj3jsbbLBBwtTQ6Y5L9V3ce7/rrrts4MCBwWlGjRplG220UbAeXogGUMaPH+++VuJftfG6666bMBNR+NhUy/PmzTMNJVLi2rXXXjvVbmxHAAEEEEAAAQQQQAABBBAoEoGiDaAUSfsW5G0q8KEcIz/99JOrf6tWrUwzJKUqqQIoqfZnOwIIIIAAAggggAACCCCAAAKZChBAyVSM/bMmoBl+lPfk2WefNeUk8UXDhTS8KlUhgJJKhu0IIIAAAggggAACCCCAAAIVJUAApaIkOU+5BTRtcHgaap2wdevWbvpg5alJVQigpJJhOwIIIIAAAggggAACCCCAQEUJEECpKEnOU26BaAClQYMG9vTTT1uLFi3SnpsASloevkQAAQQQQAABBBBAAAEEEKgAAQIoFYDIKSpGQDPtaPYfTVm88847W+fOnV3i2tLOruE9Sk6rolmXBg0aVNohfI8AAggggAACCCCAAAIIIIBARgIEUDLiYmcEEEAAAQQQQAABBBBAAAEEEChGAQIoxdjq3DMCCCCAAAIIIIAAAggggAACCGQkQAAlIy52RgABBBBAAAEEEEAAAQQQQACBYhQggFKMrc49I4AAAggggAACCCCAAAIIIIBARgIEUDLiYmcEEEAAAQQQQAABBBBAAAEEEChGAQIoxdjq3DMCCCCAAAIIIIAAAggggAACCGQkQAAlIy52RgABBBBAAAEEEEAAAQQQQACBYhQggFKMrc49I4AAAggggAACCCCAAAIIIIBARgIEUDLiYmcEEEAAAQQQQAABBBBAAAEEEChGAQIoxdjq3DMCCCCAAAIIIIAAAggggAACCGQkQAAlIy52RgABBBBAAAEEEEAAAQQQQACBYhQggFKMrc49I4AAAggggAACCCCAAAIIIIBARgIEUDLiYmcEEEAAAQQQQAABBBBAAAEEEChGAQIoxdjq3DMCCCCAAAIIIIAAAggggAACCGQkQAAlIy52RgABBBBAAAEEEEAAAQQQQACBYhQggFKMrc49I4AAAggggAACCCCAAAIIIIBARgIEUDLiYmcEEEAAAQQQQAABBBBAAAEEEChGAQIoxdjq3DMCCCCAAAIIIIAAAggggAACCGQkQAAlIy52RgABBBBAAAEEEEAAAQQQQACBYhQggFKMrc49I4AAAggggAACCCCAAAIIIIBARgIEUDLiYmcEEEAAAQQQQAABBBBAAAEEEChGAQIoxdjq3DMCCCCAAAIIIIAAAggggAACCGQkQAAlIy52RgABBBBAAAEEEEAAAQQQQACBYhQggFKMrc49I4AAAggggAACCCCAAAIIIIBARgIEUDLiYmcEEEAAAQQQQAABBBBAAAEEEChGAQIoxdjq3DMCCCCAAAIIIIAAAggggAACCGQkQAAlIy52RgABBBBAAAEEEEAAAQQQQACBYhQggFKMrc49I4AAAggggAACCCCAAAIIIIBARgIEUDLiYmcEEEAAAQQQQAABBBBAAAEEEChGAQIoxdjq3DMCCCCAAAIIIIAAAggggAACCGQkQAAlIy52RgABBBBAAAEEEEAAAQQQQACBYhQggFKMrc49I4AAAggggAACCCCAAAIIIIBARgIEUDLiYmcEEEAAAQQQQAABBBBAAAEEEChGAQIoxdjq3DMCCCCAAAIIIIAAAggggAACCGQkQAAlIy52RgABBBBAAAEEEEAAAQQQQACBYhQggFKMrc49I4AAAggggAACCCCAAAIIIIBARgIEUDLiYmcEEEAAAQQQQAABBBBAAAEEEChGAQIoxdjq3DMCCCCAAAIIIIAAAggggAACCGQkQAAlIy52RgABBBBAAAEEEEAAAQQQQACBYhQggFKMrc49I4AAAggggAACCCCAAAIIIIBARgIEUDLiYmcEEEAAAQQQQAABBBBAAAEEEChGAQIoxdjq3DMCCCCAAAIIIIAAAggggAACCGQkQAAlIy52RgABBBBAAAEEEEAAAQQQQACBYhQggFKMrc49I4AAAggggAACCCCAAAIIIIBARgIEUDLiYmcEEEAAAQQQQAABBBBAAAEEEChGAQIoxdjq3DMCCCCAAAIIIIAAAggggAACCGQkQAAlIy52RgABBBBAAAEEEEAAAQQQQACBYhQggFKMrc49I4AAAggggAACCCCAAAIIIIBARgIEUDLiYmcEEEAAAQQQQAABBBBAAAEEEChGAQIoxdjq3DMCCCCAAAIIIIAAAggggAACCGQkQAAlIy52RgABBBBAAAEEEEAAAQQQQACBYhQggFKMrc49I4AAAggggAACCCCAAAIIIIBARgIEUDLiYmcEEEAAAQQQQAABBBBAAAEEEChGAQIoxdjqeXbPf/zxh7Vr187V6qKLLrIePXrkWQ0rrjr//POP/fTTT9akSRNbccUVK+7EnAkBBBBAAAEEEEAAAQQQQCCrAgRQssqbPyfv27evvfHGG0krVL16dVtjjTWsefPm1qZNGzviiCOsXr16SffNxsaqHkBZunSpPfroozZ06FCbMmWKLVmyxDGuttpqttdee9lZZ51lDRs2zAYt50QAAQQQQAABBBBAAAEEEKggAQIoFQSZ76fp2bOnvfzyy7Gq2bhxYzvvvPOsS5cusfYvbafZs2cH195mm21s7bXXTjikKgdQ/v77bzv66KPt008/De65QYMG9tdff9myZcvctkaNGtmIESOsdevWwT4sIIAAAggggAACCCCAAAII5JcAAZT8ao+s1cYHUDRs5O677064jl7kf/75Z/v8889dT4nFixe77++66y7bfffdE/Yty8o333xj++yzjzv05ptvts6dOyecpioHUPr06WNPPPGEqZfPqaeeascee6wpYLJgwQJ76aWX7NJLL7VZs2bZpptuGuyXgMMKAggggAACCCCAAAIIIIBAXggQQMmLZsh+JXwAZaWVVnKBklRXnDx5sh166KHupV4v+q+88op74U+1f5ztxRpAmTRpku25556OSMGTc889twTXU089Zeecc47bfv/999uOO+5YYh82IIAAAggggAACCCCAAAII5F6AAEru26BSahA3gKLKKF9Hv379XL3uvPNO69SpU7nqWJ4AipKuqvfGCiuskHEdFi1aZLVq1cr4uPAB6o1Ts2bN8KbYy+p5oh4oKso/s84665Q4VkN51PtEpaon0C1x82xAAAEEEEAAAQQQQAABBApIgABKATVWeaqaSQBFs8TstNNO7nJnnnmmHX/88S6Ph5Kfbr311nbhhRcmrcpzzz1nQ4YMcd9ddtllNmjQIJs+fbobrqLeGCoKIviEqffee6+tssoqFh3Cc/jhh9stt9xi77//vo0bN84FMJQfRL049thjD3eeZP+jZBPrNNwAAEAASURBVK2qwwMPPGDjx493eUZ0vbZt29pBBx2UMhCkINHo0aNt3XXXNQ0x0nWHDx/ueur89ttvtuaaa9r2229v559/vq288srJLp1027fffmv6p6IgVKogkBL3Lly40I477ji7+OKLk56LjQgg8J/AM888Y/pXEeWAAw4w/aMggAACCCCAAAIIIFCaAAGU0oSqyPeZBFDCvSL8S/1RRx1l7777rpt69+OPP7Y6deqUkFGg5fXXX3cBkjFjxthuu+3mpuwtseP/Nrz33nu2+uqrJwRQlCNExypwkqwoeKPrJCvKJ6JhMKmKZhfS8dG6X3LJJS7oomCLrn/llVcGM+WEz6W6Km9J/fr1w5vLtfzDDz/Yrrvu6s4xYMAAkzMFAQRKF6iIIArBk9Kd2QMBBBBAAAEEEEDgPwECKP9ZVOmlTAIomjGma9euzmPgwIHWrVs3l+DUD0cZPHiwm343DKbZZrbaaivXk0L76zgFBzQE5rvvvrOTTz7Z7X7BBRdYhw4d3HKLFi3c8JxwDxR9oVlqlIelY8eOVqNGDRs1apQ9/fTTNmfOHPedhsMoP0u4qBfJNddc4zap7ocddpi1bNnSJk6caPfdd5/rYaIvDznkkGA/f7wPoPh19bLRi1X79u1dMEfXVtBI5fTTT7fevXv7Xcv1qR4z6lWjoIxy07z11lvus1wn5WAEikigPEEUgidF9KBwqwgggAACCCCAQAUJEECpIMh8P00mART1wtDLvMrIkSNt4403tnnz5rnhO/Pnz7f99tvPDbEJ3/MLL7zgggHa9uCDD9p2220XfJ1JDhTlOxk2bJjtsMMOwfFaUD3OOusst+2OO+5IGMrz6quv2kknneSmBT7llFOCvCPhE/jeKdWqVXPBGN2TL+EAiq6r66sevmjo0l577eWG42y44YZBMMZ/H/dTQ6MUBFKwSUN7NExo7NixtsYaa9jtt98e5EKJez72QwABc0N5Mh3OQ/CEJwcBBBBAAAEEEECgLAIEUMqiVoDHlBZAUYBEeUOUe+Sdd95xd3jwwQfb9ddfH9ytAhgKZGgq5OgwHs0koxllmjZtahqao0CFL5kEUNRTpW/fvv7Q4PPPP/90PVy0Qb1YTjjhhOC7o48+2tVZvVJU97p16wbf+QUNS1Jel9mzZ7shM/fcc4//ynwApXbt2vbhhx8m7QXiAzC696+//jo4NpMF9V5RrpVwUX4WDTtSLhgKAgiUTSCTnigET8pmzFEIIIAAAggggAACZgRQiuQp8AEUJTKN5vDQUBIFUMJls802c3lB6tWrF2zW0JkePXq49fAwHvXQ0HCXWbNmJU2EmkkAJd1MNOutt57LTXLiiSe6hK6qiHpzqK6qg3rOKBiSqihBq3rHKMjzwQcfBLv5AIpcvvzyy2B7eOG2226zG264wW1SAEWBlEyLrq8cMerFo4CQinq6qNdMr1693HClTM/J/ggg8K9AnCAKwROeFgQQQAABBBBAAIHyCBBAKY9eAR3rAyjpqqyeG61atXLDYfbdd98Ss8YoSLHtttvazJkzE4bxaNYaJWhVUS8UBTTCpaICKOuvv75pWmP1PlEvFBXlV1GuFBUFKJT0NlUZOnSoXXHFFe7rr776ynxwKE4ARQEj3xunrAGUcL3mzp1rzz77rAvKKAeMZuJ5+OGHk/Z+CR/HMgIIpBZIF0QheJLajW8QQAABBBBAAAEE4gkQQInnVPB7+QCKggYPPfRQwv2oV4pmmGncuHHC9mQrmp5YOULCw3j8Ns1io14q0ZLNAIqGEinhrEq4V0y0DlpXMlpNy6yioTTKZ6KSiwCKu/Dy/1H9u3fvbuoFpLr5+vnv+UQAgcwEkgVRCJ5kZsjeCCCAAAIIIIAAAskFCKAkd6lyW30ARbO9fP7552W+Pw1xOfDAA93xSny65557utwiSpB62mmnmXKhREs2AyjTpk2znXfe2V3y2muvDWYPitZB6+EeKBpK07x5c7dbLgMoqsD+++/v8qpoFqPHHnvM1Yn/QQCBsguEgygET8ruyJEIIIAAAggggAACiQIEUBI9quxaRQVQBKQhMxo607lzZ9N5NSuPyosvvmjKUxIt2QygqOfGRhtt5KZPPuOMM+zss8+OXj5Yv/zyy+3ee+91Q5M0+02dOnXcd9kKoGgKZQ3P0dCo6LCmoFLLF3xy2VQ9eML7sowAAvEEFERRUQCFggACCCCAAAIIIIBARQgQQKkIxQI4R0UGUAYNGmQ33nijG8ajGXA0rfAGG2xgzz//fFKJbAZQdEHla9EMQqqDhuZoSFK0KH/LrrvuauqxEu3pka0Aih/apOFO6rkTnpkoXL8uXbrYZ599ZrvssosL8IS/YxkBBBBAAAEEEEAAAQQQQCA/BAig5Ec7ZL0WFRlAmTp1qnvZV6Vr1aplixYtsj59+rjZZJLdSDjRq3qB+ISzfl/10mjXrp1bTTcLT7IksjpIf2n2PU9uvvlm1zPGn9t/jhgxIpi556qrrnJ5R/x32QqgPPHEE85F10mVn0U2e++9ty1evNj5yZGCAAIIIIAAAggggAACCCCQfwIEUPKvTbJSo4oMoKiCStyqBKi+vPXWW9asWTO/mvC5YMECa9u2rdu2ww472C233GKNGjWyZcuWud4i5Q2g6Dxdu3Z1vThq1KhhAwYMMPXqUHBn4cKF9sgjj7jZd9QLRfspV0q4ZCuAoimWNcxpypQp1rBhQ1cvrfseMl988YX17dvXJk2aZKussoq98MILsRL5huvOMgIIIIAAAggggAACCCCAQOUIEECpHOecX6WiAyiayUe9RVS23HJLe/zxx9Peo6YXfvPNN90+CnIouKEeGhp2U94Aik76448/ulwimmJYpWbNmrb22mu77Zr6WEXJZu+55x6rXr26W/f/k60Ais6v4UuaZWfOnDnuchrOs9Zaa9mMGTPszz//dNuUi0U9VDp06ODW+R8EEEAAAQQQQAABBBBAAIH8EyCAkn9tkpUaVXQAZdasWda+fXtTr47+/fvbMccck7beCnCceuqpNm7cuGA/5UypqACKTqphMNdff72brvjXX38NrqPeH926dbNevXq5vC3BF/9byGYARZdQoERDixRkUq8UXxREUkLe888/3wVV/HY+EUAAAQQQQAABBBBAAAEE8k+AAEr+tUlB1EjDTjSFsXpzvP/++7GGnmjGHAVSZs6caZpxpkmTJlm7V/Vq0dCZxo0bu+CEer3kumio0W+//Waa8ln3riFPqRLL5rquXB8BBBBAAAEEEEAAAQQQQCBRgABKogdrMQX8lMDKaTJ8+PCYR7EbAggggAACCCCAAAIIIIAAAoUpQAClMNstp7X+5ZdfbI899rB58+a5oSlKjEpBAAEEEEAAAQQQQAABBBBAoCoLEECpyq1bgfc2ffp0++qrr2zMmDH23HPP2c8//2wtWrSwl156qURS1gq8LKdCAAEEEEAAAQQQQAABBBBAIC8ECKDkRTPkfyVGjRplZ555ZlBRzSYzYsQI22ijjYJtLCCAAAIIIIAAAggggAACCCBQVQUIoFTVlq3g+3r77bftnHPOsRVWWMFNW6zl1q1bV/BVOB0CCCCAAAIIIIAAAggggAAC+SlAACU/24VaIYAAAggggAACCCCAAAIIIIBAHgkQQMmjxqAqCCCAAAIIIIAAAggggAACCCCQnwIEUPKzXagVAggggAACCCCAAAIIIIAAAgjkkQABlDxqDKqCAAIIIIAAAggggAACCCCAAAL5KUAAJT/bhVohgAACCCCAAAIIIIAAAggggEAeCRBAyaPGoCoIIIAAAggggAACCCCAAAIIIJCfAgRQ8rNdqBUCCCCAAAIIIIAAAggggAACCOSRAAGUPGoMqoIAAggggAACCCCAAAIIIIAAAvkpQAAlP9uFWiGAAAIIIIAAAggggAACCCCAQB4JEEDJo8agKggggAACCCCAAAIIIIAAAgggkJ8CBFDys12oFQIIIIAAAggggAACCCCAAAII5JEAAZQ8agyqggACCCCAAAIIIIAAAggggAAC+SlAACU/24VaIYAAAggggAACCCCAAAIIIIBAHgkQQMmjxqAqCCCAAAIIIIAAAggggAACCCCQnwIEUPKzXagVAggggAACCCCAAAIIIIAAAgjkkQABlDxqDKqCAAIIIIAAAggggAACCCCAAAL5KUAAJT/bhVohgAACCCCAAAIIIIAAAggggEAeCRBAyaPGoCoIIIAAAggggAACCCCAAAIIIJCfAgRQ8rNdqBUCCCCAAAIIIIAAAggggAACCOSRAAGUPGoMqoIAAggggAACCCCAAAIIIIAAAvkpQAAlP9uFWiGAAAIIIIAAAggggAACCCCAQB4JEEDJo8agKggggAACCCCAAAIIIIAAAgggkJ8CBFDys12oFQIIIIAAAggggAACCCCAAAII5JEAAZQ8agyqggACCCCAAAIIIIAAAggggAAC+SlAACU/24VaIYAAAggggAACCCCAAAIIIIBAHgkQQMmjxqAqCCCAAAIIIIAAAggggAACCCCQnwIEUPKzXagVAggggAACCCCAAAIIIIAAAgjkkQABlDxqDKqCAAIIIIAAAggggAACCCCAAAL5KUAAJT/bhVohgAACCCCAAAIIIIAAAggggEAeCRBAyaPGoCoIIIAAAggggAACCCCAAAIIIJCfAgRQ8rNdqBUCCCCAAAIIIIAAAggggAACCOSRAAGUPGoMqoIAAggggAACCCCAAAIIIIAAAvkpQAAlP9uFWiGAAAIIIIAAAggggAACCCCAQB4JEEDJo8agKggggAACCCCAAAIIIIAAAgggkJ8CBFDys12oFQIIIIAAAggggAACCCCAAAII5JEAAZQ8agyqggACCCCAAAIIIIAAAggggAAC+SlAACU/24VaIYAAAggggAACCCCAAAIIIIBAHgkQQMmjxqAqCCCAAAIIIIAAAggggAACCCCQnwIEULLcLpMmTcryFTg9AggggEBVFFhvvfWq4m1xTwgggAACCCCAQMEKEEDJctMRQMkyMKdHAAEEqqgAAZQq2rDcFgIIIIAAAggUrAABlIJtOiqOAAIIIIAAAggggAACCCCAAAKVJUAApbKkuQ4CCCCAAAIIIIAAAggggAACCBSsAAGUgm06Ko4AAggggAACCCCAAAIIIIAAApUlQAClsqS5DgIIIIAAAggggAACCCCAAAIIFKwAAZSCbToqjgACCCCAAAIIIIAAAggggAAClSVAAKWypLkOAggggAACCCCAAAIIIIAAAggUrAABlIJtOiqOAAIIIIAAAggggAACCCCAAAKVJUAApbKkuQ4CCCCAAAIIIIAAAggggAACCBSsAAGUgm06Ko4AAggggAACCCCAAAIIIIAAApUlQAClsqS5DgIIIIAAAggggAACCCCAAAIIFKwAAZSCbToqjgACCCCAAAIIIIAAAggggAAClSVAAKWypLkOAggggAACCCCAAAIIIIAAAggUrAABlIJtOiqOAAIIIIAAAggggAACCCCAAAKVJUAApbKkuQ4CCCCAAAIIIIAAAggggAACCBSsAAGUgm06Ko4AAggggAACCCCAAAIIIIAAApUlQAClsqS5DgIIIIAAAggggAACCCCAAAIIFKwAAZSCbToqjgACCCCAAAIIIIAAAggggAAClSVAAKWypLkOAggggAACCCCAAAIIIIAAAggUrAABlIJtOiqOAAIIIIAAAggggAACCCCAAAKVJUAApbKkuQ4CCCCAAAIIIIAAAggggAACCBSsAAGUgm06Ko4AAggggAACCCCAAAIIIIAAApUlQAClsqS5DgIIVAmBpUuX2bgf5tlH38x1nz/8usBmzF5s8xYsdfdXr041a9ywpjVfvY61bV7P2m/YwH1Wq7ZClbh/bgIBBBBAAAEEEEAAgWIVIIBSrC3PfSOAQEYC0/9cZCNen26jP5hp02ctzujYpivXtH22XdW67drUmjaqldGx7IwAAggggAACCCCAAAL5IUAAJT/agVoggECeCsye948Nfvone/qdGfbPkmXlqmWN6ivYQTs1tlMOWMsa1qtRrnNxMAIIIIAAAggggAACCFSuAAGUyvXmagggUEACL330h1390A82e96SCq11w3rVrd/hzW2P9qtU6Hk5GQIIIIAAAggggAACCGRPgABK9mw5MwIIFKiAeppc98iP9vibvye9g7q1q9mOmzS0rTdcydZrVteaNalt9etWd/v+NX+JTft9oU2aNt/GfDPH3vlqts1f+G9+lOjJuu7SxPp0X8fUM4WCAAIIIIAAAggggAAC+S1AACW/24faIYBAJQssWLTUzrvzWxf4iF56rca17Ni917C9t17F6tb+N2AS3Se6Pn/hEnt+zB827Plf7KcZi6Jfu0DMNT1bWZ1a1Up8xwYEEEAAAQQQQAABBBDIHwECKPnTFtQEAQRyLKCeJ+cMnlwieFKrxgp2Uuc17chOq1nNGmULdCz+Z6k98PJvNmTUz7bon8RcKurNcsOpremJkuP25/IIIIAAAggggAACCKQTIICSTofvEECgqAQGPvhDiWE76nVy3SmtbYO1V6wQiwlT/7Y+t08u0RtFw3nOP6J5hVyDkyCAAAIIIIAAAggggEDFCxBAqXjTWGf85JNP7JBDDgn23WGHHWz48OHBOgvFK9C1a1f79NNPA4DnnnvO2rRpE6yzkB0BJYw9/67vEk7eeq26Nvjs9W3VlWombPcrk3+ab8+887u9P26O/frHv8NzVl+llm3XdiU7cKcm1mrNun7XhM8ZsxfbaTdNNB0fLgNPbEli2TAIywgggAACCCCAAAII5JFAQQRQvv76a+vRo0fAtsYaa9gzzzwTrEcXfv31V9t///2DzTVq1LD33nsvWM+HBQIo+dAK+VkHAiiV3y6aqvigi75KmG1HPU/u7dcmafBEw3FufHSqPbY8yeyyxNE4QeVXWJ4X9pDlvUp6H7p20mE/CqL0uGZ8Qk8Uzc7z1BWbMMVxoMgCAggggAACCCCAAAL5I1AQAZTPPvvMunTpEqittdZa9vbbbwfr0YWffvrJdtppp2CzAigTJ04M1vNhgQBKPrRCftahkAMoM2fOtFGjRgWwCnbuueeewXq+LkSH7ijnybDz2yQdtqPgyRk3T7KPJsyNdTvtN2hgt565XtIgiobzHDtwfEJOFIbyxGJlJwQQQAABBBBAAAEEKl2AAEqlk/97QQIoOYIvgMsWcgBFvcXCvb+23XZbe+ihh/Jaffqfi6zzBV+ZEsj6cvpBa9lxy2fbSVaueegHe/SN5NMbJ9tf2w7t0MTOOzx5fpN7l8/OM+ipn4JDNaXxqKs2saaNagXbWEAAAQQQQAABBBBAAIHcCxBAyVEbEEDJEXwBXJYASuU20q1PTrNhL/waXLRZk9r2+ICNkvYYUc6S7peNTRi2s3bT2tbr4Ga2dZuV3DnGjJ9jtyw/59TpC4NzajjPI5dsZMqpEi3q0dLlkq8ThvIcu9fqdsbyc1IQQAABBBBAAAEEEEAgfwQIoPyvLZYuXbr8pWiZVa9evcyt888//5iGC6Uq4e/zJYCyePFiq1kzeYLMVPcR3h6+p/D28LKuIZcV9BZZgaU8dc/FsXEdyhJAWbRokdWqVfYeC6W1Y9zfR3l6oJT3HvRolXYf0cdv6dJltm+/L236rMXBVxce1dwOXp4ANlm5fsSP9vCr04OvFDy5f/lQn5XqJf7u5yzPqXL08qE54SDK4bs3tXO6rRMcG1548u3f7crhPwSbmq5c0567elOrVq1ifzPBBVhAAAEEEEAAAQQQQACBjAWKOoCimU6UjHbcuHE2fvx4W7hwoSm/Stu2be2MM85IOvOJcrHoJU1lww03tMsvv9z9e/XVV2369On2f//3f9a5c+egIbRdQxi++OILmzNnjjume/futsEGGySdhUcv2freX0P7XXvttcH5tNC3b1+bMGGC23bRRRdZ+/btg++/+uor0zZfVN+jjz7ar7p7vO++++zzzz939/3jjz9aw4YNrXnz5rbffvu5faMv4o8//njCDEEDBgywuXPn2uDBg02BoBYtWtiLL74YXEMLepHWdd5991377bffrG7durb++uvbFltsYb169XLXTDggxoraJ9O6h0/7xhtv2GOPPWbffPON/fDDD1avXj1r1aqV7bbbbnbSSSelDEDoXm+77TZTLh65//XXX9asWTPXlqeffrptvPHG4cskLJfFIU4AZf78+fbEE0/Yo48+at99951pXXXyz1WnTp0S6qGVTNsxk9+HbPXsL1iwwCZNmhRcW8YtW7Z065deeqlrf/+lfg8jRoywp59+2r7//nt3rHKmrLfeenbggQfaAQcc4HdN+Mz0N5hwcGTlq+/+smOv/ibYWrd2NXv5+s2sbu3kgdSu/b+2Kb8sCPa/7uTlz8+WjYL18MJrn/5pfe74NtjUYo06y3u2JH9W5i9cYp3O/cLmL1wa7H/f+Rvaxi3qB+ssIIAAAggggAACCCCAQG4FijaActddd7nAxJIlS5K2QLVq1ezss8+20047LeF7vdz5Y/RiqBfwl19+OdjnhhtusIMOOsit33HHHXbddde5ni3BDv9b0Eu3Xq59CU9jrOMVcFFZccUV7csvv1z+l+hqbl0v81tuuWVQB81OFA6YDB061K644gq3r/5nyJAh1rFjR7euYInuZ+zYscH30YW1117bvdSuvvrqwVcKHui+fDn22GPtkUcecS+82rbOOuuYXqB90X1ff/31pl4LyYrOre+33377ZF8n3VbWuutkeqkfOHBgQhAoehEFkGSl9g2Xjz/+2D0HSkycrKhdTjzxRDvvvPNKfF1Wh9ICKLLQNcOBiujFNUW2AhYKXPmSSTtm+vtQEKR3797+Ukk/FfzyyZ31HHfr1s0Fs5LuvHyj9r3mmmss/Cxq30x+g6nO7bdH8490atfIrj6plf+6xOeOZ3yaEOR465YtrF6d5MGWv+YvsV3O/Cw4h4Iz79y6ZbAeXeg35Ft7+eM/g83p8rAEO7GAAAIIIIAAAggggAAClSZQlAGUW2+91f21PKysQIVetMMv/Xo5vv/++xNe9MMvb+Hj/fLNN9/seqC8/vrrdvzxx/vNpX6GAyjqcaKXb19eeukla926tVt9/vnnE4I6CuK88sorflc766yzbOTIkW5d9VcvgpVWWsn1mthxxx1dL5hg5+UL9evXd9+Ftynx5wMPPBAEbaIv3uF9taweKOppoyIvvbiXVtQzQUGXVVddtbRdy1V3nfySSy5x91Pahdq0aeN6Q/ghTT///LMLPum5KK3omdp3332D3crjkC6A8vfff9tee+1l06ZNC66VaqFnz54JgZ247ViW30cmART1JFKvqI8++ihV1YPtW221lQvo+QCivoj7GwxOkmahzx2T7bVPZwV7XHjk8uE7OycfvhPsFHMhGkCpU6uavTsodQDlybeWD+N54L9hPLttubJdd/K/v/uYl2Q3BBBAAAEEEEAAAQQQyKJAQQZQlE9DPQZSFQ2D0V/pfYlOY7zrrru6IRz+ewU99t57b5sxY4ZdffXVQQBC32soxJ133ul3Tfnypr+S66/9F1xwge2+++5u2mUN+fBFL+cKbqyyyipuWIteUn1PFu0TDqBoiuZjjjnGH+p6sfhpnNXTQcNQwuXNN9809RxR0XAUDYdQUS8XH0zRUCX1qPFFQRL1AllttdXclNAaiqKXc1+effZZN5RJ66levGvXru16nzRp0sQFKH799VcXcAifR9ZHHnmkzZo1yw03+fDDD/0l7LDDDrMrr7wyWE+1UJ66q5fGPvvsE1irzjJs166du+/hw4eb6u2LhicdddRRbvXMM89MmJJXPWZOOeUUdy71wHnhhRf8Ya5dFRBQnpfyOqQLoFx22WU2bNiw4LpNmzZ1jnp+FGjTszF79mz3vYZiqXeUfzbitmNZfh8KMum6GgqnXlG+qLeUrqvSqFEjN0wqHOTTdvVgUpvoN63fjH6D8+bN01eu9OvXzw2x8uupAijR36DfP93noZd+bd/+/F+AbFi/DW2TlhUzbGbkezNswLDvg8tv0rKeDevXJliPLkSHE7Vas449emnyIT/RY1lHAAEEEEAAAQQQQACB7AsUZAAlU5ZwAGXmzJkuZ4k/h17+L7zwQr/qhkXsueeewbrySrz11lvBevTlbeedd3aBiMaNGwf7RBNpqneLgiJ6gfQlOtQmHEBRAGLzzTcP8qDor/Xq1aEkt9ttt53LteLPo0+9VCtIoZwSyjGi/VQ0zOP88893y+pRouEovihIoL/u+6KhPerd4ouGHvmgTfTFWz00brnlFhcokq0v6jUTztcSvifto8DW1ltvHbzgK2GvhhNFc6748/nP8tRdw0rUO8KXcIBE29R7R/lPfFHujRtvvNEF2BRI8MUHmsL3q1w34eFQ6nWkIEB5HVIFUJRkVfluNPzFFwVMwu2ooTcaruSL2vWcc85xq3Hasby/j+izH53GWEFKPcM+eKi2VwBQvr6899577nn262uuuaa98847frVEEDPZbzDYuZSF3c7+zGbP+28Y3ys3bGaNGtQs5ajSvx73/Tw79aaJNvfv/8494Lh1bb/t/vvvRPQsf85dbB3P+Xfonr5rWK+6vfZ/W0R3Yx0BBBBAAAEEEEAAAQRyJFB0AZR0zhpaoODDZptt5l72ta+GDkyePDk4LBxA0cu0cpWE80xox1GjRpl6L/iinCbhHCLaXtosPMphoX1UFEx58sknXdJXJXpV0YunXqhV1Ovk7rvvdj1bfO8JbVeQpkOHDlpMWfQiq8CG8n/cdNNNwX7qraJEuirRF+/wS3lwwPIFBVzCvW4USNhjjz3Cu7iAjhKH+hIenuS3xf2MU3cNq1GvCF/UXg0aNPCr7kVe96O2V1l33XWtf//+rjfHySefHOwXzTWjL9RLR4lcfVHPCj075XVIFUBRIE/5Z3xREuPRo0f7Vfep3i8KXPkgmu5fvZ1U4raj2znJ/8T5fZQWQFEiWyVB9mX//fdPeO78dvUaUrJfXxRU8blQ4vwG/XGlfW5zyif2z5J/A47a94PBWyadvri084S/f/WTP63/sCkJuVI6bqXcKi3TzkSl6Yy3PfXT4FQ1qq9gH97+X5Az+IIFBBBAAAEEEEAAAQQQyIlAQQZQlNMj/HIblVNPjHAOkXAPFL+vZrnRy+dTTz1lU6dOdcMuwkNP/H4akvHtt9/61YS/fms4SPjl3O90++23u2E3fl0vjNH6lhZAUS+IQYMGuVPoOppdR0EODbtROeGEE9ywGQ2dUABHgYt77rknuK56d2imHeUaCRfNPqMhINpfL9vqERDO++L3VTBAs+WoRF+8k92P9ttmm23s999/16IresGPTgut62lWHl/UY0JDnuKUTOuuIMImm2wSDE3ScyOTOEXWGkriy8UXX2zHHXecX037WV6HVAEUzeYUThis4WCatSZaNKuUD6CEh3HFbUedr6y/j9ICKBoup3++9OnTxw2L8uv+UwE8Dd3yRTM+KfeLSjiAkuo36I8r7bOiAyh3jvrZhiz/Fy47bNzQrl0+W49yoKQrBFDS6fAdAggggAACCCCAAAK5FyjIAIqmGtaQmFRFM6b42T60TzSAovwohx9+uClJaGmlLAGUaJ4KDWvRS3G4lBZAef/99+2II44IDlGvFg3j8b1SNCxFw2hee+01t49mONELtp9OWEN5wr0jtJOG5SifS7KASXCh/y1kGkDRC7tebOOcO3wtzRiktiitlKXuf/75Z8LwluhsQemuKWslgvVFAS0N7ymtVIRDqgBKNPhQWl30vYao+bwzcQMo5fl9lBZAibpqlh31tooWPRfqQeVL+DmpyABKRQ7hGfbCL3brkz/5KrvPfbdd1S45Zl1Tb5LSCkN4ShPiewQQQAABBBBAAAEEcitQdAEU9TI54IADEnqVKNGlhj2ot4L+oq3Zc/QXeJWyBFCiPVD00qg8JuFSWgBFwyU0HMQP01GvDw0D0rAVJQ5VgEWJTH3+Fg0xUQ6TX375xV1GyU71131fHn30UVMyTl/UG0PDa3TvCkhpOEo4OW2mARSdV7k4FLTwxQ+58OvJPlVHP+1zsu+1rax1VzCnbdu2gaF6bITzwKS6nrarx4Pv7aN1n2dGy6WV8jqkCqBEZ/ZR76LwcKRk9dI9q21V4gRQyvv7KC2AEs0PoxmSwsOS/D0ob4t6h/miIWoaqqZSkQGUikoiO2Hq33bkFeNs6X+jgezAHRvbRUc1Tztsx9+fPkkiG9ZgGQEEEEAAAQQQQACB/BMougCKps4NzxKiaYA1m0o4OaiGnvjARVkCKJr5RgEIX8LJXP220gIo2k89Mz744AN3iJLUaviLSrdu3VyiUA2F0cww6vWgngbh4TOaXUZBIV8UpFD+D18UHDj44IP9aonEp2UJoGhWHd/bQSfWkKJwItbgYhkulKfuSgismXhUlM9GeTXCba3t06dPD5Ka6jtZaniXZibyRflgwrMYafv8+fPd7EJ+n5VXXtkNpyqvQ6oAip6FcG+dTTfdNCFBrq9Hqs84AZTy/j5KC6Ao5014OJuGRWl4VLQceuihCcEu9bRSfhqVigygVNQ0xgPum2Ij353p6qf/2axVfburzwZWvVrpPU/8QUxj7CX4RAABBBBAAAEEEEAgPwWKLoCiYS/hZKnRKVLVw0O9FpRYVaUsAZRPP/00YciOZhFRAlC9wPui3iJKXupLdMYabY/W1e+r/BwdO3Z0q0rCqZfWcNEsOcr14ZPbqjfNRhttFNyTei7o+3B+EuVb0TAVX8oSQFHyVQVufEn1gq+hUwr+aJhRaaW8ddfLul7afYkmtp02bZoL8qjdVRRwUQ8i5bZRAlZfkiVsjU4praCL9iuvQ6oASnRIkuqWKlGwgoKagjvcxnECKNFnLtPfRzSA4hMge0flE1K9fFl11VVd8uPwTEzKdaPeJj6Pi3qF6bz+XioygDJ09C9229P/Dbvp1E7JXlv56sX+PODCr2za7/8mItZBg85cz7bbqGHs47VjvyHf2ssf/9eD6/SD1rLj9i6Z4yajk7IzAggggAACCCCAAAIIVJhA0QVQ7r333oRpjDVs58EHH7T69eu7ZKMaKhOd2UQvfQqkqMR5edOLn17Ew7P3qBeFhtsoeKFeGpqlZ/bs2UFDJgugaLiJ/hIfLnXq1HF5UHxwJFleDE11G57pRscrWBG+no7TNLwq7777rusVMG/ePLeu/1H9/ExCcV68dYx6emiWIB980jblcVHvDQ07Uk8P3bumElZgREOG5FlaKU/dNf1tePiUpqVWsEjtrmSrCqa9+uqrQRXCOTnCMyFpBwVjFPRS+7788stuRiHfUyk81W55HVIFUFSHaHJVDb+6/PLLg95GEyZMMD3jGv7SvXt3u+qqq3SYK3Hasby/D+VP6dChw/+uaKZgnoZgKZmthlRpXT3A1NPFF/VSuvLKK90sOxMnTnTPne7Dl549e5qCVb7E+Q36fUv7jA6bqVu7mr18/WZWt3b10g5N+H7bUz+xxf/8N37nnVu3yOgc8xcusU7nfpEwc899529oG7eon3AdVhBAAAEEEEAAAQQQQCB3AkUXQBk7dqyp14b/67bo9dfvFi1auICH74kQbhL1KNHwDJW4L296gVUeh2jREBGfX+X/2TsPeCuKsw+/QYpgoUgRkZKoFBuxoNFoiMaCicaAJpgYgiYRsREFsSBKrKiosRCxi1EjGsSoMRK70SQWjAERRFQERJQmRUSK8J1n+eacuXt3z9nT7j1X/u/vd+/u2TI759mzszP/eecdf1+UgIIQQQ8+Q0Wc0dhkaIyzcI8/25k9xx9CxLawJwbbCKpKzAs3NIhtzvr37x94UvA5ScPbnRc+1m1H8PG/B9s7d+4ciFW+Z4473l8Wk3fSYQiVL5KwzZ8Gms8YIhpDRRguhTHzEYFj/d8KQhqeEOF7SB4R35wVwyGbgIIXCuJc+J6RJzj64hV5YQpj50kTzlPUbErFPh+IJIglzA4VNjxz+F3hYUL8nXBeEQfD5xFH55lnnrEmTZqkk0v6DKZPyLKyPhW05EfnTbEFSzd6nHHoBam4JX0ObJXlrNLvmvDSQrv83tnphFs3a2BPXLl76p4mHwKUPlkrIiACIiACIiACIiACIiACZSGwyQkoUGRWHH+aY58sPeQ09pkK2Rkz4DAEBkvaeEOIQUAhHkqUESB2ypQp6cZ5lIDCeXhP4EXhzJ+NxG0jDgpTEjt74IEHgimF3WeW7Kch7Qd59fczlGLx4kwMB4YIMVQIS9LwdmnxvfGIuO+++7LOyEPsGdJnmcuKyTtpcz6eI0zdHGc01PG+6NKlS5VDGJKEd4TzNKmy8/8/4FExbNiwKkO0iuGQTUDhksTP4beFt0ecIfQgpPHnvKeS3sding/yg9cLQV/D5gQUtuPlBTP/OQsf3759+2DKY0RE35I+g/452dZvmvCRjZ2YeX7atWxoD1+yqzWonxlyl+38YvcxffExF021eYvWpJM6ode2dkaf7dOftSICIiACIiACIiACIiACIlD7BDZJAYVe8vHjxwezrPg9+XhEEFyVKYL9KVQHDx6cDiiab+ONRitTDLvr0MuOBwyzuvTs2TOIBcLPIE5A8Wf0oSHMcJvw7DbDhw8PpjAmHdInvokfU4Lt2Ny5c4PGLTFBnFcFxyPSMPMQQozzwKHHH88b0kna8N54lY3/OffKK680PBqc5wleEvBjiNHZZ5+dcwYZP71C8+7S4HvBkqFNTHPtjKE3e++9dzBDUZirO4YhOcykRBBePHYw4nLgaUEgXoLGxlkhHHIJKFwLTw3ilSDQ+dNxN2/e3Ig9Q7BZP9YI5yS9j8U8H1yH+z1y5MjgN0lazhDW/Km5EbYYzkVwXH94GcO9yDvxVxjyFrZ8n8Hw+eHPCz5bY0cNe8vWfZUZgpNv/JG9Bkyqkuwbt+1d5XO2D3c/Od9GP5L5TTLl8eNX7GatmzfMdpr2iYAIiIAIiIAIiIAIiIAI1DCBOiGglIsJIgLT/vKHJwSNz3IZwUppJOLhEJ4FplzXjEsXEeCDDz4IRAC+twvOGXd8MdthjPixZMmS4Lu72C2FplmKvH/++efBcK22bdtamzZtEmcFMYDvgtcEwWLxVkpqpebgX5fYNcTbYcpivDZKZcU+H+Rr1qxZgVjHEDmGSMUZYgrCVrmfw7jrj7x/to1/cWF6d8P637Cx53ezLu0zQ4fSOyNWChVQmP74hJHTbY0XP+Wn329l5/2iY8RVtEkEREAEREAEREAEREAERKA2CWzSAkptgte1RUAEKofAspXrrPfwt2zZyo2zMZEzhvLcfV4322br3EJZIQLK4uVrA/Hk48WZoTtNt9jMHrlsN2u6Rf3KgaOciIAIiIAIiIAIiIAIiIAIBAQkoOiHIAIiIAIpAk+9vsTOv/2DKix2bNfYbj6rc04RJV8BBfHk1D+8a+/NywSI5sIjT/qWHdajRZU86IMIiIAIiIAIiIAIiIAIiEBlEJCAUhn3QbkQARGoAALhoTxkCU+UUafsmHg4T66vwbCdoWPeqxI0lnOO7dnKzj9eQ3dy8dN+ERABERABERABERABEagtAhJQaou8risCIlBxBAgkO+Tm9+zlt5ZVyRsxUQYctZ398tA2Bc/Ow2w79z39qd32+MdVYp5woQN2a2rXnrqjEUBWJgIiIAIiIAIiIAIiIAIiUJkEJKBU5n1RrkRABGqJwJdr1tu5t75fTUQhO3ijnHBEWztinxbWuNFmiXK4avVX9uRrS2xsarYdf6pidzLiyVUn72CbN6yZaZPddbUUAREQAREQAREQAREQARHIj4AElPx46WgREIFNgACeKKPGzakyM4//tRs3qhd4jezTdWvbafvGtn2rRrZl442CyuervrKPFq62mR+tstfeWR4IMatWZ6Zz9tNh2M7Q4zrI88SHonUREAEREAEREAEREAERqFACElAq9MYoWyIgArVPgMCyV/55dpXZeUqRK2bbYapiBYwtBU2lIQIiIAIiIAIiIAIiIAI1Q0ACSs1w1lVEQATqKAGmOL75r/Psry8vMjxTijFinPzkgJZ26k/aaariYkDqXBEQAREQAREQAREQARGoBQISUGoBui4pAiJQ9wgs+GyNPfj8Avv7K4ttwdK1eX2B1s0a2A+/s431Pai1tW7eMK9zdbAIiIAIiIAIiIAIiIAIiEBlEJCAUhn3QbkQARGoIwTWr99gb3+40ibNWGHTZq+02Z98aYuWrbWVX26Mc7LF5vWsZdMG1nHbzW3njltYj65bBct69TTDTh25xcqmCIiACIiACIiACIiACEQSkIASiUUbRUAEREAEREAEREAEREAEREAEREAERCBDQAJKhoXWREAEREAEREAEREAEREAEREAEREAERCCSgASUSCzaKAIiIAIiIAIiIAIiIAIiIAIiIAIiIAIZAhJQMiy0JgIiIAIiIAIiIAIiIAIiIAIiIAIiIAKRBCSgRGLRRhEQAREQAREQAREQAREQAREQAREQARHIEJCAkmGhNREQAREQAREQAREQAREQAREQAREQARGIJCABJRKLNoqACIiACIiACIiACIiACIiACIiACIhAhoAElAwLrYmACIiACIiACIiACIiACIiACIiACIhAJAEJKJFYtFEEREAEREAEREAEREAEREAEREAEREAEMgQkoGRYaE0EREAEREAEREAEREAEREAEREAEREAEIglIQInEoo0iIAIiIAIiIAIiIAIiIAIiIAIiIAIikCEgASXDQmsiIAIiIAIiIAIiIAIiIAIiIAIiIAIiEElAAkokFm0UAREQAREQAREQAREQAREQAREQAREQgQwBCSgZFloTAREQAREQAREQAREQAREQAREQAREQgUgCElAisWijCIiACIiACIiACIiACIiACIiACIiACGQISEDJsNCaCIiACIiACIiACIiACIiACIiACIiACEQSkIASiUUbRUAEREAEREAEREAEREAEREAEREAERCBDQAJKhoXWREAEREAEREAEREAEREAEREAEREAERCCSgASUSCzaKAIiIAIiIAIiIAIiIAIiIAIiIAIiIAIZAhJQMiy0JgIiIAIiIAIiIAIiIAIiIAIiIAIiIAKRBCSgRGLRRhEQAREQAREQAREQAREQAREQAREQARHIEJCAkmGhNREQAREQAREQAREQAREQAREQAREQARGIJCABJRKLNoqACIiACIiACIiACIiACIiACIiACIhAhoAElAwLrYmACIiACIiACIiACIiACIiACIiACIhAJAEJKJFYtFEEREAEREAEREAEREAEREAEREAEREAEMgQkoGRY1Nm1r776yqZNm2Yvv/yyzZgxwxYsWGCffvppsORLtWnTxlq3bh38denSxQ444ADbZZddrF69enX2OyvjIpCLwFfrN9iMuavstenLbOa8VbZo6VpbuHSNLVq2Lji1VbMGtk3TBsZyp3aNbZ9uW1vXDltYvW/kSln7RUAEaoLAhg0bbPHixTZ//nxbsmSJrVq1ylauXBksuX6TJk2scePGwbJFixbWtm1ba9myZU1kTdcQARGoIwRUjtSRG6VsikAdIiABpQ7drHBWEUnuuecee+SRRwLBJLw/22dEld69e1v//v0DgSXbsdonAnWJwIKUUPLgc5/aE68sCQSTfPLeqllD+9F3Wljfg1OiY0pYkYmACNQ8gS+++CLoFHj//feN9XwMUWWHHXawnXfeORBW8jlXx4qACHx9CKgc+frcS30TEag0AhJQKu2OJMjPsmXLbMyYMYF4snr16gRnxB/SqFGjQEQ55ZRTrGnTpvEHao8IVDiB5V+ss7uf/CQQT1av3VBUbhs1+EYgopx4xLa2dZP6RaWlk0VABJIRWLNmjU2ePNmmT59ueFYWY5tttpl169bNunfvbg0bNiwmKZ0rAiJQhwioHKlDN0tZFYE6SkACSh27cY899phdcsklgTtzKbOO+/OIESPsqKOOKmWySksEaoTAxNeW2DUPzrHPVmwcnlOqizbfqr4N7dvBDt+nRamSVDoiIAIRBGbNmmWvvPKKffnllxF7C9+0+eab23e+8x375je/WXgiOlMERKBOEFA5UidukzIpAnWegASUOnILqVQOHz7cJkyYEJnjbbbZxnbaaSfbcccdrXPnzuklB7/77rv23nvvpZczZ84MxpVHJdSnTx+77LLLjEqnTAQqncDqtevtivtm29/+szgyqy22bmDfaru5fTP1t8N2jVPrqb/UEvvg41X2wfxV9n5qOWv+l6n1L23J8rWR6Ry53zY27PiO1qih4gZFAtJGESiQAJ4m//73v4N3VFQSvIuaN28eeEi6JYI/RlwUPDI/++yz9DJOgOHduP/++xueKTIREIGvFwGVI1+v+6lvIwKVTkACSqXfoVT+CJz3m9/8JuidC2e3Xbt29rvf/c6OPfbY8K6sn//yl7/YjTfeaPPmzat2HL11d955ZxCcr9pObRCBCiHw5Zr19rubZtqkGSuq5ajtNg1twJHb2Y+/m19Aycf+tchu+9vHNn/xmmpp7t1lK7vhjJ1sc4ko1dhogwgUQoBGz9NPPx0EiQ2fv+WWW9q3v/3toGMgvC/bZzoI/ve//9nnn39e7TCCzB566KESUaqR0QYRqLsEVI7U3XunnItAXSUgAaXC79z69evt1FNPtaeeeqpKTumVI27JgAEDjDgmhRjjRG+99dYgnkq41+6www6zm2++WTP1FAJW55SdwPrU7Bzn3PK+Pf/m0irXwkPk10e0tX6HtbFGDQrzFlmzboP96R/z7a5UPJXVKZHGt4P2aGZXD9whNVOPpurxuWhdBAoh8Nxzz9ns2bOrnIqHyO6772677bZbwUIH780pU6YEfzSufOvYsaMdfPDB/iati4AI1GECKkfq8M1T1kWgjhKQgFLhN+6GG24w/nxjhgHEDYbslMLosUOkYcYD3/Bs4U8mApVGAC+RWx/7uEq2OqWG6YwauGMwZKfKjgI/MLTnnFvftw9TQ3t8O/mo7WxA6k8mAiJQOIE333wz8BTxUyCQOeJGs2bN/M0Fry9dutRoXDHMxzc8W/bYYw9/k9ZFQATqIAGVI3XwpinLIvA1ICABpYJvIgH1fvnLXxq9ac522WUXu++++0o+Yw4VTK719ttvu0sF3idciyE9MhGoFAJvpIbsDPzDjNRzkclR1w5NbMzgLqkZc0ob32D5F1/ZKdfNsHfmZKZSrZdybLnlrC62V2pIj0wERCB/AvPnz7d//OMftiHlSeaMOF69evUq+Yw5eFpOnDixStyvb6Q8yA4//HBjSI9MBESgbhJQOVI375tyLQJfBwISUCr0LjJ//RFHHGFz585N57BNmzb2yCOP2LbbbpveVsqVTz75xHr37m2ffvppOtntt98+qHw2adIkva0urRA/ZsGCBdaqVSurq9+hLvEud15XrV5vfS9+2+Ytykzf3apZQ/vTsK7WOrUshy1YusZ+dcU7tjC1dLZdy4b20IhdrXGjwoYJuXS0jCeAcEyMJrwRttpKYlU8qbq1Z926dcF7zI9RQtnMDHDlKqN5nz7++OPG0hkxVnjf1a+vacodk3yXPKMwhWUhVuz5Sa+5du1aW716tW2xxRaGeCar+wRUjtT9e+i+AWVIgwYNgj+3LZ9lTZUjvLMImUBeZSIgAaVCfwOjRo0KYpO47DEu/M9//rP16NHDbSrL8rXXXrPjjz/e/HHjxFoZOnRoWa5XjkQRTPCcGT9+vCEKOUN46t69uw0ZMiSYpcht95cMZ+L7xxkVRcbQd+rUKRC49tlnn8hDr7766uD67MSTqB5uC1kM7x9mS2KmCO6zLJrA6Efm2d1Pzk/vBOttQ7raHjvFV+DXrFtvr7+zwqZ9uNKmzf7Cps9eGZzfreMWtjN/nZpYj65bWcP68ffov++usJNTnii+18uJqVgrp/dul85LJa0wbOG8884rOEucn6RRxLC/fv36GZXZb33rWzZu3LiCr8mJzKpCcGviV/A8uAYvs6/suuuuNmjQINtrr71ir1Gq55dZXfBQwAjgffLJJ8dekx0vvvhiuoy86qqr7KCDDsp6/Ka884033gjur2NAg5bOAjoIymm8C/BE8b1eiLOy9957l/OyZUn7pZdeso8++iiozP/kJz/J+X6JywTvSp6ZOXPm2M9//vO4w6psp7EyadKkQNzEcxWe1E+YGalr166x71aXSLHnu3RyLT/88EP74IMPAs8jJ9bxHkaMZUpr7n028cwxjroO6SDGkBaeU126dIlsVCHauJkTKb+4ZjbjnnJd7IADDrD27dtnO3yT3qdyJPft59mk09WJhz/+8Y9zn5Q6guP/+te/Bt7vLVu2DAJvZzuxkHKEjlqCfS9evDi4HulT52jdurXtu+++OWcCrYlyBA4MEVu0aFEw0xv1HIwYlDz3DAUlv3HGENInn3wybnfgbbn11lsH5QhtirjOcZUjsQhrdYcElFrFH31xChYq4H5gVyrw5557bvQJJd5K4/+WW25Jp0ph8fzzz5e9gpu+YBEr//znP+3000+PnIHBJUulaeDAgTZ48GC3Kb2cNm2aHXnkkenPuVZoZI0YMaJawXfRRRcFIg7nM4V0LgHlRz/6kU2fPj2oiGUrcHPl5+u8f+HStXb08LeqBHbtf/i2NuiY7WO/9ouTl9q1D821eQszHitRB7dr1ciG/Ky99eweH3vhpgnzbOzEjHhDwNpHL9vNWjWrvN4IfkOnnXZa1FdNtI2KDS/2bEblrG/fvkFjiuOIycSwjELtP//5T/BM+h5wUWlRCbz22msjA4yW6vlFyHEN6zPOOMPOOuusqKyktxHkmzIFGzNmTFp8SR+glYAAghjCti/Q16SIEW500fBnBrtyeb6U47ZTmUaopAGBETMGUT+pcQ8QPhFOXGwYOPzqV7/KmQR1EsRV/xnlfeoaFiSAiMKw3yhPj2LPz5nB1AH8tui0QIDNZtRrvv/978cO4+J7hgMcx6VHWnRu0QHiG/fKdYgkibuDkPXss88GSeR7X/3rft3XVY4kv8NMET9jxozgBOqZ2Rr8LlWenX/961/BR8SMnXfe2e1KL4spRyh7yJcrwyh/WHfiNuXxD37wA0O8ibKaKEcYHkZ7gu+Zzeg4+t73vhdZ3iEOPfbYY9lOr7KPcpyyM/w+UjlSBVPFfJCAUjG3IpORkSNH2u23357ewDjtZ555psamFWbYyyGHHFJlasmTTjrJzj///HSeKnHlhRdeMPJJBQo3OwLgUhh169YtUI/p1abhReGNIRSFp3/2G2D0rNMz6htsOJ9CkWMxKkZMC81LwJkEFEeidMvrx39k9z6V8Shq06KhTbhk18hphdenQitcM26OPfj8grwy0Peg1nb2cR1Ss+xUP41pk/tcNNU+XZIZytPvsG3tzGPjBZzqqdTMFgSAuAYEHhX8jqkYxQWJpjHg/56jco2XF79zZ8UIKAgQBLKmEtW4cWM788wzgwYJjbEVK1YEsZnwTEHYwX7729/asGHD3KXTy1I9vxJQ0khLuvL666/b1KlT02nSi3/MMcfk/K2lTyhyhXfDww8/bCtXbvRCIzk8A8rt2Vlktquczm/81VdfTW/DS4H3dS5jOBwxzj7++ON0Q8Wdk1RAwdMKrw4MgbFz587Bu3b58uWBkOoEB4QJvDzCVuz54fSiPjNUix5jbLvttgve//QWU65QliAe8Rt09QQE2ShvOyegIBBF8eU3tHDhwqCcdQ1BGn0dOnRIZ0sNnzSKkq6oHEmOE++QJ554IjiBunCSmIZ46iEgIILimebP9FlsOUJZQRmM4VmKpxXPJyIsaeOBxToBxfv06RMcF/5X7nIEIZPMuUGGAAAa2ElEQVTn33nX7bnnnkEHMl52xNRCGKEuwvOPEZsyyhvdF1Coy+Bl4hvfExHbecqxj3ADCF2+AK1yxKdWOesSUCrnXgQ54eHcb7/9gga/y9rll1+e2L3WnVPs8oEHHrALLrggnQwFHT3EDRuWJ85E+kIFrlCZOfTQQ4MhO6jWCFAM1wkbfBlrjwiCykuPebt2mWEYfgPswgsvtBNPPDGcRPCZytell15qf/rTn4LPNPgYXuBMAoojUZolw3B6nTPFln2+0YWSVC/o19H6HNgq8gI3TvjI7pmYEVsiD4rZ2L9XyqulT7QoMuGlhXb5vbPTZzbbsr49efXuWYf/pA+ukBWmiMWl/Yc//KGNHj26oFxRuWKqc547Gh+kV6iAwrPEs4vLPcM4eHZp1IaN40444YR0z9hDDz2U9hJxx5bq+ZWA4oiWbkkjE88JKoPOvvvd7waNcPe5JpZ+7yrXo3Fw3HHH5fQSrIm8JbnGo48+Ggx1o4FB5ZuK9s9+9rNqvZbhtPAi5RnDOJfZ/Pidsy2JgEKv74MPPhiInLxbaVT4RmPj73//ezrmWNiTs9jz/WvFrePt6YbAZPOEofxyQYwRWdxwPT9dJ6BQ58k2rJd7QAOV3zWeKDT6XINTDR+faGnWVY7kzxHBAuECEZGyLpvhccG7lecZMRBR0LdiyxHEX97TPFd0YLpnxV2DuI90GGPUC4jD6Fu5yxG+N8Pu4EUbAfEUgSdsHEfHD4I0Rn0qPAzVF1DiPHk4l7Tgghc6Rtnqt19UjgRYKu6fBJQKuyW8tOlddYZwgatbuJBx+8u15IHdf//9qwg5d9xxR+AuXK5rFpPuH//4x8C7hDSiPEv8tHHv/cUvfhFsGj58uP36179O707aAOMEAtNRwKNW4+L4t7/9LZ2OBJQ0ipKsvDRlqZ05+r10Wk1TwsXEq1LCRYN66W1u5d9vL7NBN85MvZTclvyWqfaI3Tios+2/S/UhLGvWpoScc6sKOdefvqMduHv80J/8rl7+o0shoPDMvJDy+KL3iMYXPUKFCig0qp03Sa5nlzgWXJNKNGKK7wEDuVI9vxJQSv879CvGpF5bwkVUA4xKcl2IN+FXyKmwU1+gQYE3SK74GrjkM5SUYSb0cmK8C6m0JxFQ3nrrrcDLJJtg44tTRx99dBAXJbhQ6l+x57t04pbcVxqKiLnEJsGzye/FDZ8HD/LLMeFedo5NKqBwrP+9/aE3avhAp7SmciR/npMnT7b//ve/wYmIhYiGcYaXGrEQMUIJdAp5TRRTjvCMMqSNujPeawjoUYaAQ+cMQ1p4nnwrdzniP8vUNajXxJkvNkV59/jldTYBhfRhg3CDlxyCjR+vRuVI3B2o3e0SUGqXf7WrX3zxxXbPPfekt9PQv+yyy9Kfa3IFccGN3+W6/fv3D+J91GQekl7LxRBhuBONuWzB4ejJJhAlCjPquj9cKp8GGHk755xzgjH9ROXmxeOuKwEl6Z1Ldtyo1HCccc9lhuMc07OVDTu++rj/tes22DEjpuaMeZLrqsREefjiXa1B/ZSaErIr7p9tD7+40XWTXccd3NqGpob91BUrVkBh+BoeV/RmEWvl97//fSCmFCqgMEyOMdqMzab3OFeEe7zCcJ+lZwp3fd9K9fxKQPGplmbdNdZdagTeRKSvDfPjAnD9qMpvbeQr1zXxAn3nnXfS7u2OaTZ392xpuvOTCCjEA2D4C506BK6NMhoUeKlg4WE8xZ4fdT1/G8OHED0wN3TX3x9exwvFHc/vMDzkKB8BBdGGYbyYH+tEDZ8w9eI/u9+sS0nliCMRv/R/n9mEC1KgI5ChKfkI3O6e5CpH/HxEiTPuGzhxM6pcK3c5QvBcgshTv8GzL1f8wqeffjrwukO09UUPvks+AgrHU/9xMRMJIeCurXIEOpVnElAq7J7g/unG+ZO12gxIiIsrM/A4o2LgIsq7bZWwpFfaVcQJhEeDLpfxPYh4z/CDQj1QuAbi1l133RVcjvvmAm9KQMl1B/Lb33/kdJs6KxO3YNQpO9jBezSvlsgTryy2i+6aVW17IRsuPrGTHblf9SBmz735mQ0d8346yV2/uYXdc3639OdKXylGQKFiQW89S7xG8JZz3iiFCCi4rjJ+mF70n/70p8YMNsVYvgJK3PMrAaWYuxB9rquYu71+T73bVlNLv7HNNfHICA85qam8JL0OPZQMrWUYqnPxpqHjPB+jXMhzpZ204UM61AdwV2fIK8P3oow8ug4gYgLwbDsr9nyXTtzS9Uyzn4YP8XWKsXwEFHrUiQmF+fEQ1PAp5g5En6tyJJpLrq0urkk2YcQXOBgCRziBJJa0HCH4NMP8sGwBbfGWwWuGzhRmqPSt3OUIw/LpZKU+gwdKMZavgILnDx2xGMMGXcgElSPF3IXynSsBpXxsC0oZzwgaJ87wpqgt12JcJXv27OmyEvQ8MYtBpRmFrQsGy9StAwYMKDiL+TbA8MpBNWb6MXo1nUlAcSRKszx48P+qxD957IrdrF3LRtUS/91NM+3lt5ZV217IhgN2a2o3nFHdfXPeotX242FvpZNkONFz1307/bnSV4oRUPA8wQOFGCVMj0iPUzECCgHuXFA7AtrGBbVNyrRUz68ElKTEkx+HNyMVQWcIZlHBO93+ci79hgLXoVHhhnWW87rFpD1r1qzA04s0fHZ0BhCHo5AKf9KGD9fkeWdaTmKnMOtEnCEkICj4QkIpzo+7ntvueq0ZksN7OdvwHXdOtmU+AoofqNOP66OGTzbChe1TOVIYNz8+UNyQRSZacHV8BGU31C/XFZOWI8RbIoYK5pdh4fT9YUQIKL5XarHlUPha/mffg873JPOPyWc9XwGFmCoE0iX2CjMcOlM54khU1lICSmXdj6ByQq+sM8bjuWEhbltNLYkQjbufMyokuPBWmvlTiN50002Bsl1oHvNpgE2aNCkIyEWvW3gokASUQu9A9Hl7nzypSkyTV8fsZfU3qz685pAhk+2zFWujE8lza/Ot6tsz11YXRtZ9tcH2PSUjJKYeC5t06955pl57hxcqoFDxYQYfRBMCWbqpDYsRUKisUZHC8D5x64XSKdXzKwGl0DsQf97dd99dZSeNXOeiXGVHDXzwPSXc5eIChrv9tb10lWvEen92OBffgHoCsTzyqS8kbfjw3fF+wVMs1xAAhvDQEAkLLcWen4u/65nG8wQPlGItHwHF3RuuiRu/Czqphk+xd6H6+SpHqjNJsoX6PM8gy/Cz6c53w1eihs64Y6KWScsRhh8yDBFDIAhP1+vS9uOQhIWWcpYjvodMrvgnLq/ZlvkIKFybIdG0/8LBe1WOZKNce/skoNQe+8grM6e4MyqXqMa1aQSco7LpzE1h6D5XwpLAcUOHDg2ycu+998YGpkqS11wNMFgwZAg3RALX0vNH5H165WHlTAKKI1Ga5V4DJqUTSj0W9vot0YJFWGhJn1TASjZhpMfASannIpPoG7dF5ydzROWsFSKgENANt33iBgwcODCI/eO+UTECCm7FTF+M3XrrrUFQZpduIctSPb8SUAqhn/0cv+GDGE8Q4Nq0sWPHBpVVl4dKFlB4/oixQeXa93Ag7743Tb6V/qQNH67jev4LFVCKPZ88ZDPX+AsHYMx2TrZ9uQQUvGwoJxi662bioA5w4IEHppNVwyeNomQrKkcKR+nih+DRgcedL2DjXYZ3B5YkKLWfi6TlCAGrORYrVEApZznie8iUYohpEgGFsp3rUo4wPJMOKkTYZs0yExOoHPF/bZWzLgGlcu5FkBMJKPnfEF9AwX3YxUPJP6Wqs3jg1u3GILq0Vq1aFSj47jPHEEeBiP++SUDxaRS/LgGleIYuhUIEFPd7Jio+vSSIhs6KEVBI67TTTguSuu2224L4Ki5dlrjyZmtoM2bYd9X3BZRinl8JKP5dKM26Gj6Fc6Ry/eabbwaVa6YhDb+XeI4Q9plGk1goSS1pw4f0im24FHt+ru/kXPvjBBSGQzuhI5wWQxLDsxg5AYVj/SEE7lwEFN8Y7sAMJ/6xavj4hEqzrnKkcI78/vHUwsJBXF3cEd6nSaZF93ORtBypSwIKXuV4gviGIIK3WZzhAeibL6AgjPiCFccRa8XvoOYY2i9+ZyzHqRyBQuWZBJQKuye41mkIT343hYqOm/r5lltuiQ1wlyRVvwEWdzwvGGYMYZYBYjbgUh021+Bku4uqHT7G/+xmESKiPJVhWVUCYc8SDeGpyiefT/kKKK+//nowVI1y6f77768WWK4YAYUeMSeQjBw5ssq4X74TY7LjZvxgP0MK4wQU9kdZkudXAkoUueK2+Q0fUtIQnuQ8x48fH0xv2alTp6DhEz7Td3lHzHfBzMPHhT8nbfhwXr4CSNgbo9jzw3kPf37iiSeC2TDC8QPcccyWQeD4KIuKd+ALKFHnsI0GD7MSIcCEZ/Fhvxo+UCitqRwpjqebIjhclrgyhimOEQLzsaTlSG0IKOFyKNv3Iv6IE0jCnn6c5wftjkon7MXoCyhRx7ttlFnMKrjHHntEDmtSOeJIVdZSAkpl3Y9gel0Fkc3vpiBQuFkBEC5cgyy/VDYe7QsoxHsIT0vmCjp6t7OZBJRsdPLfpyCy+TOLOyMfAYUXN+IeQ/cYixw1S04xAgoNv169egVZZSjP2WefXSXbxFJgimPfEElpDGHZBJRinl8JKD7x0qy7BrRLLTy23W2viaU/7IXrUZ5XahBZhs0x1A1DYI8S7HH9drEF8KTABT+JJW34kBaensuXLze8ZP3g8uHruPuMqNCjR4/07mLPTycUs0KMpg9TrvBYlDjHcFs4OcOb9Nlnnw0+ZhNQ8ChxZZQ7FxGWWCu+J57b5y/V8PFplGbd/b5caipHHIlkS2L3MWMV4h8eE/y+fWGAZ9v3hE+SatJyhHoEnmBYNqHXj5XCzJrk1Vk5yxHaXgwFxKgnMamHb8SP8dtn7IMls7ph2QQUgmqHucKe6Y/DnilBYt4/lSMejApalYBSQTeDrGga4/xvCJUiAlriCocnCtOr5jKCV6IO4wqNJ4kzX0C58MILqxWI7rhcS6ZSZjo0jAag79YbdS4VNBqTfA83LWXUcZvqNk1jXLo7n4+Acu211waxfrg6s+VE9Wzj+rto0aKgQUGvDUYcAKbhy2U0ZGm88OwiVl5//fW5Tgme73HjxgXHZRNQinl+qSS5yhNTubsYS3GZK3Usl7jr1OXtmn60sLvn4hYkPRuRHxd83zMr7tykDR/Od0Fas/VQ8xznmsa40PPjvoPb7k8Bmq1x5o7PNeOG80ChjpCkLHPp+ku/4ZNE2EIAcrOUlCIGg5+Xr8u6ypHi7iRCIjN3Ycymhde7e3aopyKq+IJFkqslLUf8IK3Zpl13w4nIT9w0xuUoRxiWh5ct3ra5hGLHxc3+xedsAsq+++6bDrzvzk26VDmSlFTNHicBpWZ557zaxRdfnK6AcDC9YsTYqA0bPnx44Lbrrk2vzogRI9zHilryIsA9F3c9KnrZKo8UjhRmNPoIuueEDr5QqQSUsakAhZdccknA6JlnnqmmPIfh0VtHhY7ZFQhOK6tKYNS4OTbuuQXpjcf0bGXDju+Y/uxW1q7bYMeMmGrzFmamS3X78lm2a9XIHr54V2tQPzXFTsiuuH+2PfziwvTW4w5ubUOPqzpWNr2zAlfyEVCYHpzKTL5Gg+PSSy9NdBplHBUwenSZEtwPnhaVAAJpuQUUros7LZXNo446ym644YaorKS33X777cYQJIzyhyllZVUJuEq224o3RTHxqlw6hSyZct73bOrWrVt6Ou1C0ivXOVTomXWCsfIII40bN469FL2j/F6xQw89NHAJjz34/3e4e0KDiZ7ebMazibcnz2fv3r0jDyUgIkMEMDom/GEtxZ4feUFvIzFg3PDXqN5j79BgtSYEFC5Eg4xOHlj4nTXh/PB56tSpxpBJDMa5ysLgwE3sn/vNuq+tcsSRSL50IlT79u2DuGNu5qxCpkLnqu6e5CpHfM+/cAwWP/cvv/yyzZw506JmAyp3OUJnCF5/iDd4N+XyNq8JAQU2Kkf8X0hlrEtAqYz7kM6FH8+DjYyvpbKX6yFOJ1CiFRRPKre+u9odd9xh9IpUohGA8sorrwyyduedd0aOE3f5ppLihuacf/75dtJJJ7ldJRNQXn311UDJJ+Frrrkm8CxKXyS04g9BOvPMM23QoEGhI/TxpSlL7czRmRmpmm5Z3yZetbs1bFCvGpx/v73MBt04M9WLUG1Xog0p72y7cVBn23+Xrasdv2bteut17hRb9vm69L7rT0/NvLB7JmJ6ekeFruQjoNAbiqdWNrvrrrsMl1sCWA4ZMiQ4lN6bPffcM9tp6X24ZCPWYqeffroNHjw4vS9qpaYEFCfsEDgXETRbrxz5ZmYuKl0Evs1nKtmo7/h13DZ37tyAo/tuvNMIiJrLfdkdX6olXhIIcLzjnB1yyCFGY6LSzI9tcuSRRxqBSuOM70VDiKmGw/EN4s5J2vDhfFzVcf/H4oZN8C6jgYMdffTR1qJFi2Cdf8Wen04oy4prCPIc4oUTDrbrn1pTAoprkOGqj2dMts6dF154wWbNmhU8E/369avxZ8PnU6nrKkeKvzNuiAxlL6Ie7Q6MDryoIYK5rpi0HKHzkokeEHuzxSZhxjHEFt694TZHucsRhHXaXFj37t1z1mNqSkBROZLrV1jz+yWg1DzzrFekp2K//farIlxcfvnl6cZ41pNLuJNerwsuuCCdIkIOY6yzVUjSB9fCCpVhClqUYxpvTGfctm3bajmhJ49KO0N4+C70FlNIOyuVBwo9cXjFIECRD2I20IMYZXj2UOmkgfb4449b165dow7bpLetWZcSLs6pKlxc0K+j9TkwukFx44SP7J6JnxTErH+vbW1Qn+0jz53w0kK7/N6N4105oFlKyHny6pSQU7+6kBOZQAVszEdASZLdYmKgkD5lHl4e9DjRw84wHnrQo4wKGLFSeG6xcg3hIe0xY8bYqFGjWLVsw4EoS2iskTfckkePHh2co39VCUQJF1GB+qqeVfpPvihB6rUl5CT5Zi4walRPbNT5riFDw4j3XK6OF3d8rp5jroXgQMOG+xjXsEBExE0foQfBx7diz/fTilunPGDIE0ZQRhqHiClRRpyjRx99NNiVLQZKMUN4SNxv8GVz4/eHNyTxVon6TpvCNpUjxd9l6suIyLAkjg+i65ZbbhkIo4Wknk854o6NEzn9mYKiPOnKXY7AhHKBaZ0pF4kJ47cRwnzcUD+2l2sID2mrHIFCZZkElMq6H0FucAXHJdwZDXB6QLO577pjS7EkuBo9cogRzvDSwFujko1C76yzzgqyiIpOHBKC2CH+oHhPnjzZ/vCHP6TVZYZL0cvjW6kEFNKkkUf8BIweQQLL7rPPPoGQgms2EcnxmuGFgg0cONDOOeecYF3/qhO4fvxHdu9TGVGkTYuGNuGSXW3zhtXFi/Up75NrUsN+Hnw+M+yneorVt/Q9qLWdnRqOU6/6yB37cs1663PRVPt0SSYQYb/DtrUzj40WW6qnXhlbKk1AgQqz7fTt2zfwCqCHlueG4LWdO3cOKjEEr6The/XVV6d7wXm26XH2rZTPL2UGManwWKNBSllBjCXGXpNHGmAEnLvuuuuCxiWNXCL4Z/MS8PO6Ka4zPAGezhi2Ra98Nu8ed2wplgjoBCFE4HYWDnbqttf20o9VwHAyGvm5zA8GybuGwIXZzDVmkggopOPHY6Gjh+eTZ4P3GV6XiKAYMZDoYQ5bseeH04v67AeT5ZmknGDWPMQkRE7uPV4eTA3NM853ZzhB2APJNYyKFVBokDFkAk8+yg06SPjN0WDFaMziucNQSfLD9Sh3aqq+F8Ww0repHCn+DvnPCalFiYhJr5JPObJixYqgDOZZZMpxOj7ds4CISGBnngk8thhCHGXlLkcoRxkOyPsCo86EqElbgmeYTh86R+k8Ic8YbQ48eHzzZ+HJJp7658StqxyJI1N72yWg1B772CvzQPJCRxV2dvLJJ9u5557rPpZ1SSOFmS6coVBT2OKiX+lGA4aAjxTSziikKewogDAKQMZ7R8VzKWUDjGsRhBOWriDm2rg1o267bRxHDzaCTq4eQ47dVG3h0rV29PC3bHVKyHDW//CUt8gx8QLGi5OX2rUPzc0ZE4WYJ0N+1t56do8finPThHk2dmJGVGyUEm4evWw3a9UsuofT5bHSlpUooMCIBg0i4oIFGdGLRgTDYfznmWMRdBEbww3vUj+/zBowYMCAYBYirouRJ3rPEHWcUXlCSCHQriyeAL2HTJfpl31JgmvGp5jfHiq8iHXO+P1QSY/zDnTH1cbSbyTGDZmJyhcBIhFfeM8wjCab5dPwIR3uH505blgf/Gj88CzQIMIQTvAsQlgJW7Hnh9OL+sx7Hm9ZBFffqMfQMHP5ZB+NNOpa1BHCVioBhXThAzcXo4ZtsOOPxpgzfod4rkZ5z7pjtNz4O1Q5UtwvYc6cOelZqEgpnzImfOV8yxHe0wSudc8iQjriIc8nxrOKsBLX5qiJcgQRBTGHDmVnPK9OMHbbWCKIMvMZ9XvfSimgkK7KEZ9u7a9LQKn9exCZA1zHcSF3xoNLrAB/WkC3r5RLCjUCQPoV3CSzUJQyD8WmxZRieHbgcUJgOWcUyhRyNLwo8KKs1A0wrkFFDq8iKsQU/M6oLOEKTWPw+ylXY1luAqMfmWd3P5kRMaij3zakq+2x08bevKgUGP7z+jsrbNqHK23a7C9s+uyNvc/dOm5hO/PXqYn16LpV1mE4/313hZ183YyUCJe5wolHtLXTe7fLbKgja5UqoIAPrw7GSDOE0PXssJ3yr1PKi4sgd/TO4iEXZeV4fqnYjR07NgjujXuxq/RxfVx7eXaJ20JjTJabQFjEoNJJz11cZTl3ismO4F3AOHL//tWkeJMslxuPIo+42NOJgvcE3lhJDYEIxhhD41q2bBl7ar4NHxKibsB5NMD8Th5+/wTjzeX1Uuz5sV8mtGPevHmBlyfB5f17TicFPcmIJvS64/ERZaUUUEgfYQevU8oo4jv4BjuGHDHzV9yQI/94rVvwG/fFUJUj+f0q/DKGspfhp4VaIeUI71LqxHRuuueTzhLKOwRY55USl6eaKEcQdIgXw59fd+e3xoyElCPMYtShQ4fIbJZaQOEiKkciUdfKxv8DAAD//wGeFyAAAEAASURBVOzdB9wUxf3H8aFXQToIClJVrIlGNJpYsZK/YIslYsUWg5rYUcRAjF3QiMQSUewKBk1ii5WoMbEksdFROgIC0ut/vvswx9ze3fPcc7f33B7PZ14vuLu93dm59+wezO+m1NhkkyHFTmDlypXmqKOOMjNnzkyUrU2bNmbcuHGmbdu2iW1RPpk3b57p27evmT9/fiLbDh06mJdfftk0bNgwsa2UnixcuNB8/fXXpn379kZ+NWrUKGrxZfzNN9+Yxo0bmx49ephatWoVtTyldvJVazaak4d8bmYvXJMoeqtt65pHr93JtLaPhUgLlqw1Z/zuK/OtfXRpu5Z1zTODdzUN6tV0m3iMWED37uzZs029evVM586dTd26hanfyhR71apVZsaMGWbp0qWmW7dupkWLFpU5nH2twPr164N/x5YvX57w0L8vffr0Kdi/M/r39MUXXzR6dEnfwfr3rnbt2m4Tj5UUkOeKFSvMtttua+rUqVPJo01QH/kcn80JN27caHSt6d5t0qSJadCgQTaHFXSfDRs2BN8ha9asMc2aNTP169cv6Pm2xsz5Htk6alX353fffRd8f+j+zCXl+z2UzTlXr15tvv/+++D/7Pq+q1mz+P/343skm5or3D41CKAUDjffnD/44ANz+umnG33BuNSzZ08zZswY07RpU7cpkkc1CHSuzz//PJGfviB0rl69eiW28QSBYgt8NPF7c8FdE+19saUkO+3Q0Iy8vIdp0jDagNSylRvMhXdONF99s6XhpX8377+sh/lhj222FIBnCCCQtcDcuXPNK6+8YvzfbxSMOvLIIyMPlK1duzb4EWDRokWJ8imQfsQRR5h27doltvEEAQRKS4DvkdKqL0qLwNYkQAAl5rU5fPhwoz9+6tKli7nvvvuCX0D97bk+nzx5srnooovM1KlTk7IYOHCg0R8SAnET+ONLc8yo8XOSitWpXX1z2wVdTWf7GEWaOmeVuXLUVDNj7uqk7M7vs50ZYP+QEEAgd4FPPvnEfPrpp0kZ6IeBQw45JOjRkPRGji+WLFli3njjjeDXfj+LPffc0+y1117+Jp4jgEAJCvA9UoKVRpER2AoECKDEvBLV+0TBjVdffTWppOryeeGFF5oBAwYEXdyT3szyhX6ZGzVqlBk5cqRR9zQ/9e7dOwjSxKGbml8uniMggY125OGV9081b36yJAmkXt2a5uyj2plf9G5j6tXJrYvl2vWbzKOvzDUP/22eWbPW6+Ziz3TwXtuaWy/oYmoWeShY0ofmBQIlKqDghoZY+knDGnfffXez22675TzEUf9u/ve//w3+qJuznzp27BgEafxtPEcAgdIV4HukdOuOkiNQqgIEUEqg5jR295xzzjEa0hNOmttDvUROOOGE8Fvlvn722WfNiBEjgjkGwjtqyM5DDz0Ui7HC4bLxGgEnsNoGNwbeM9n82w7pCad2LeqaAcduZ37245bht8p9Pf4fC416t8xdtGW+E3fA3nbIzvBLupn6NkhDQgCB/AUU3HjttdeMuuKHk+YoUU8RzTVTmaQelerZ4s+x4o7XkJ3DDz8858CMy4dHBBCIjwDfI/GpC0qCQHURIIBSIjWtHiKDBg0yY8eOTVtijR/XfzS7du1qunfvnnjUzpMmTTJTpkxJely8eHHafPr162eGDh3KpGZpddgYN4E16zaa34352rz0/pb5DfwyNm9SJxjSs6Md1tNluwb2uf1jH5Wm2SE60+auMhqqM90O09Hjd9+v9w9PPD92vxbm2tM6GvVwISGAQHQCavy89957wb9R6XJVb0tNtKnhPe6xefPmwa76d0zzd2kSQvcY7k3p8tS/jfvvvz/BEwfCIwJbkQDfI1tRZfJRECgBAQIoJVBJfhHHjx9vbrrpJpMpAOLvW5nn+g/p4MGDg5UQKnMc+yIQB4GXP1xsbn/6m4wBkFzL2Gyb2uaKk3cwR/yorMGWaz4chwAC5QtMnz496GWZKQBS/tGZ31UARr0qd9xxx8w78Q4CCGwVAnyPbBXVyIdAIPYCBFBiX0WpBdQvbZq3ZPTo0UbL4OWTtERo//79g/lUol7ZJ59ycSwClRVYtnK9+ZOdt+TpN+abNevyW529Xp0a5uRD2pizjmprV/ZhmdPK1gX7I5CLgObl+s9//mO+/PJLo1+U80maS2XnnXc2e+yxR+Qr++RTLo5FAIHCCvA9UlhfckcAAWMIoJTwVTB//vwgiDJu3Dij55VJbdq0MX379g2CJ3pOQmBrEViwZF0QRPnLB4vNt0tS5zIp73O22rauOaZX8yB40nrbOuXtynsIIFAggZUrV5ovvvgiWBlOzyuTGjZsaLRS3S677GL0nIQAAtVTgO+R6lnvfGoEqkKAAEpVKBf4HPqlTv/ZnDBhgpk4caJZsGBBEFDRo5ICJK1btw7+9OjRwxxwwAGmZ8+ehhV2ClwxZF9UgQ0bN5mJM1eZD79caibPXmUW2sCKAioLl5bNc9LKBkhaNK1j9NitfQPzo52bmJ12aGRX2ClqsTk5AghsFthkV9tatGhRMMmshq1qQvUVK1YEj9pFAZIGDRoEjxqGqkliW7as3MTRYCOAwNYtwPfI1l2/fDoEiiFAAKUY6pwTAQQQQAABBBBAAAEEEEAAAQRKSoAASklVF4VFAAEEEEAAAQQQQAABBBBAAIFiCBBAKYY650QAAQQQQAABBBBAAAEEEEAAgZISIIBSUtVFYRFAAAEEEEAAAQQQQAABBBBAoBgCBFCKoc45EUAAAQQQQAABBBBAAAEEEECgpAQIoJRUdVFYBBBAAAEEEEAAAQQQQAABBBAohgABlGKoc04EEEAAAQQQQAABBBBAAAEEECgpAQIoJVVdFBYBBBBAAAEEEEAAAQQQQAABBIohQAClGOqcEwEEEEAAAQQQQAABBBBAAAEESkqAAEpJVReFRQABBBBAAAEEEEAAAQQQQACBYggQQCmGOudEAAEEEEAAAQQQQAABBBBAAIGSEiCAUlLVRWERQAABBBBAAAEEEEAAAQQQQKAYAgRQiqHOORFAAAEEEEAAAQQQQAABBBBAoKQECKCUVHVRWAQQQAABBBBAAAEEEEAAAQQQKIYAAZRiqHNOBBBAAAEEEEAAAQQQQAABBBAoKQECKCVVXRQWAQQQQAABBBBAAAEEEEAAAQSKIUAApRjqnBMBBBBAAAEEEEAAAQQQQAABBEpKgABKSVUXhUUAAQQQQAABBBBAAAEEEEAAgWIIEEAphjrnRAABBBBAAAEEEEAAAQQQQACBkhIggFJS1UVhEUAAAQQQQAABBBBAAAEEEECgGAIEUIqhzjkRQAABBBBAAAEEEEAAAQQQQKCkBAiglFR1UVgEEEAAAQQQQAABBBBAAAEEECiGAAGUYqhzTgQQQAABBBBAAAEEEEAAAQQQKCkBAiglVV0UFgEEEEAAAQQQQAABBBBAAAEEiiFAAKUY6pwTAQQQQAABBBBAAAEEEEAAAQRKSoAASklVF4VFAAEEEEAAAQQQQAABBBBAAIFiCBBAKYY650QAAQQQQAABBBBAAAEEEEAAgZISIIBSUtVFYRFAAAEEEEAAAQQQQAABBBBAoBgCBFCKoc45EUAAAQQQQAABBBBAAAEEEECgpAQIoJRUdVFYBBBAAAEEEEAAAQQQQAABBBAohgABlGKoc04EEEAAAQQQQAABBBBAAAEEECgpAQIoJVVdFBYBBBBAAAEEEEAAAQQQQAABBIohQAClGOqcEwEEEEAAAQQQQAABBBBAAAEESkqAAEpJVReFRQABBBBAAAEEEEAAAQQQQACBYggQQCmGOudEAAEEEEAAAQQQQAABBBBAAIGSEiCAUlLVRWERQAABBBBAAAEEEEAAAQQQQKAYAgRQiqHOORFAAAEEEEAAAQQQQAABBBBAoKQECKCUVHVRWAQQQAABBBBAAAEEEEAAAQQQKIYAAZRiqHNOBBBAAAEEEEAAAQQQQAABBBAoKQECKCVVXRQWAQQQQAABBBBAAAEEEEAAAQSKIUAApRjqnBMBBBBAAAEEEEAAAQQQQAABBEpKgABKSVUXhUUAAQQQQAABBBBAAAEEEEAAgWIIEEAphjrnRAABBBBAAAEEEEAAAQQQQACBkhIggFJS1UVhEUAAAQQQQAABBBBAAAEEEECgGAIEUIqhzjkRQAABBBBAAAEEEEAAAQQQQKCkBAiglFR1UVgEEEAAAQQQQAABBBBAAAEEECiGAAGUYqhzTgQQQAABBBBAAAEEEEAAAQQQKCkBAiglVV0UFgEEEEAAAQQQQAABBBBAAAEEiiFAAKUY6pwTAQQQQAABBBBAAAEEEEAAAQRKSoAASklVF4VFAAEEEEAAAQQQQAABBBBAAIFiCBBAKYY650QAAQQQQAABBBBAAAEEEEAAgZISIIBSUtVFYRFAAAEEEEAAAQQQQAABBBBAoBgCBFCKoR7xOTds2GC++OILM2HCBDNx4kSzYMECM3/+/OBRp2rTpo1p3bp18KdHjx7mgAMOMD179jQ1a9aMuCRkhwACCCCAAAIIIIAAAggggMDWKUAApYTrVUGS0aNHm3HjxgUBk8p8FAVV+vbta/r37x8EWCpzLPsigAACCCCAAAIIIIAAAgggUN0ECKCUYI0vXbrUjBw5MgierFmzJq9PUK9evSCIcuGFF5qmTZvmlRcHI4AAAggggAACCCCAAAIIILC1ChBAKbGaHT9+vLnpppvM4sWLIy158+bNzeDBg02fPn0izZfMEEAAAQQQQAABBBBAAAEEENgaBAiglEgtrl692gwaNMiMHTs2bYlbtGhhunXrZrp27Wq6d++eeNTOkyZNMlOmTEk8Tp482SxatChtPv369TNDhw419evXT/s+GxFAAAEEEEAAAQQQQAABBBCojgIEUEqg1letWmXOOecc88EHH6SUtn379mbgwIHmhBNOSHmvvA3PPvusGTFihJk9e3bKbr169TIPPfSQadCgQcp7bEAAAQQQQAABBBBAAAEEEECgOgoQQIl5rW/cuNFcdNFF5tVXX00qqXqIaN6SAQMGGM1jkktau3atGTVqVDCfinq4+Kl3797mvvvuY6UeH4XnCCCAAAIIIIAAAggggAAC1VaAAErMq3748OFGf/zUpUuXILihITtRJA3pUZBm6tSpSdmpZ4v+kBBAAAEEEEAAAQQQQAABBBCo7gIEUGJ8BWjIzumnn27UC8Wlnj17mjFjxkS+Yo5W9tG5Pv/8c3eqoPeJzqUhPSQEEEAAAQQQQAABBBBAAAEEqrMAAZSY1v7KlSvNUUcdZWbOnJkoYZs2bcy4ceNM27ZtE9uifDJv3jzTt29fM3/+/ES2HTp0MC+//LJp2LBhYhtPEEAAAQQQQAABBBBAAAEEEKhuAgRQYlrjt912WzA3iSterVq1zBNPPGH22Wcft6kgjx9++KE57bTTzIYNGxL5a66VK664IvE6Tk/eeOMNc/XVV+dcJB3fuHHj4Pgrr7zSvPXWW2nzkn+7du1Mx44dzc477xwYNWrUKGXf7777zhxxxBHBdk38e/7556fs4294++23E7a33HKLOfjgg/23eY4AAggggAACCCCAAAIIIBATAQIoMakIvxjqAaKGtD+xqxriV111lb9bwZ7feuut5v7770/krwlr33zzTaMeMHFLf/vb38zFF1+cc7E+/fRT06RJk+B4Gb/22mtZ5dWyZcugPo4//vik/RcvXmz23nvvYNsll1xiLrvssqT3wy80OfAFF1wQbB45cmQi+BLej9cIIIAAAggggAACCCCAAALFFSCAUlz/tGe/+eabzQMPPJB4Tz0fXn/99SpbVljLJh922GFm7ty5iTKcd9555pprrkm8jssTBSwmTZqUtjjqAaLPsu+++2acDFc9etS7RMkFUDRc6cEHH0zKc9OmTWbOnDlGAZdnnnnGrFu3Lnhf9XTooYcm9iWAkqDgCQIIIIAAAggggAACCCCwVQkQQIlZdWpp4f32289oKIhLw4YNM6eccop7WSWPTz75pLnuuusS52rWrJl5//33Td26dRPb4v5k9913N8uXLzdHH320uffeeyssrgugqEeKAiWZ0pQpU8xJJ51klixZYuSi4JYelQigZFJjOwIIIIAAAggggAACCCBQ2gIEUGJWf5qT49xzz02USg3z9957z9SrVy+xrSqerFmzxuy///5JgRz1yjjkkEOq4vSRnKNQARQVTr1Q3Nwro0aNMocffnhQZgIokVQdmSCAAAIIIIAAAggggAACsRMggBKzKhkyZIgZPXp0olSnnnqqGTp0aOJ1VT4ZNGhQMHGtO2f//v3N4MGD3cvYPxYygDJ79mxz4IEHBgYDBw5MDBEigBL7y4ICIoAAAggggAACCCCAAAI5CRBAyYmtcAf169cvafhIMScWfeWVV4xW4HFpzz33NGPHjnUvY/9YyACKhgYpf6Wzzz7bKNikRAAlYOAvBBBAAAEEEEAAAQQQQGCrEyCAErMq/eEPf5g0bEbL3G6//fZFKeXMmTPNT3/608S5NZzoo48+SryO+5NCBlA+/vhjc8IJJwQEmvT35JNPDp4TQIn7VUH5EEAAAQQQQAABBBBAAIHcBAig5OZWsKO6dOlitOKLS1phpnbt2u5llT6uX7/edO/ePXHOGjVqmKlTpyZex/1JIQMoZ555pnnnnXcCgvHjx5tdd901eE4AJe5XBeVDAAEEEEAAAQQQQAABBHITIICSm1vBjurcuXMi75o1axqt+FLM1LVrV7Nx48ZEEaZNm5Z4HvcnUQdQVqxYYb788kszYsQIM2HChODja8jV7bffnqAggJKg4AkCCCCAAAIIIIAAAgggsFUJEECJWXUSQImuQnINoKinTePGjZMKoiCSAih+2mOPPcyYMWNMo0aNEpsJoCQoeIIAAggggAACCCCAAAIIbFUCBFBiVp0M4YmuQnINoJRXggYNGhjV0YABA8wxxxxjFGzxEwEUX4PnCCCAAAIIIIAAAggggMDWI0AAJWZ1ySSy0VVIrgEU9Sh54oknkgqiQEnbtm1Ny5Ytk7aHXxBACYvwGgEEEEAAAQQQQAABBBDYOgQIoMSsHlnGOLoKyTWA0qRJk6SlpCtTou+++84oCKakJaCvuOKKcg9/+eWXzUUXXRTsM2rUKHP44YeXuz9vIoAAAggggAACCCCAAAIIFEeAAEpx3DOedciQIWb06NGJ90899VQzdOjQxOuqfDJo0KCknhj9+/c3gwcPrsoi5HWuYgRQVOC99trLLF261PTp08cMHz683M/wwAMPGC2DrPTKK6+Ybt26lbs/byKAAAIIIIAAAggggAACCBRHgABKcdwznvWNN94w5557buL9Zs2amffee8/Uq1cvsa0qnqxZs8bsv//+Rj0qXHrwwQfNIYcc4l7G/rFYARQFvT744APTsWNH8/rrr5tatWpltPrlL39p/vrXv5o6deqYzz//vGhLVmcsIG8ggAACCCCAAAIIIIAAAggEAgRQYnYhrF271uy3335JgYthw4aZU045pUpL+uSTT5rrrrsucU4Fct5//31Tt27dxLa4PylWAGXkyJHmtttuC3iuv/56c9ZZZ6Wl+uijj8xJJ51kNm3aZI4++mhz7733pt2PjQgggAACCCCAAAIIIIAAAsUXIIBS/DpIKYGGdGhoh0vt2rULejJoBZiqSKtWrTKHHXaYmTt3buJ05513nrnmmmsSr0vhSbECKOvXrzeay+azzz4zNWvWNL/4xS+CXkXbbbddsGqPJpp94YUXzJ133mlWrlxpmjZtal599VXTqlWrUmCljAgggAACCCCAAAIIIIBAtRQggBLDap8/f745+OCDzerVqxOlO//8881VV12VeF3IJ7feequ5//77E6eoX7++efPNN02bNm0S20rhSbECKLKZNm1asNSxHl1SAExDdZYtW+Y2BSv7KJDSq1evxDaeIIAAAggggAACCCCAAAIIxE+AAEr86iQokYaAaCiIS5pHQ0vr7rPPPm5TQR4//PBDc9ppp5kNGzYk8s9mNZnEzjF6UswAihjUE+WRRx4JJgWeM2dOMFTH8Wh+lIMOOshcfvnlZptttnGbeUQAAQQQQAABBBBAAAEEEIipAAGUmFaMhnYcddRRZubMmYkSqgfIuHHjgl4LiY0RPpk3b57p27evUQ8Ylzp06GC01G7Dhg3dJh5zENCwqBkzZgSr82ilnRYtWuSQC4cggAACCCCAAAIIIIAAAggUS4AASrHkszivVnI5/fTTzcaNGxN79+zZ04wZMyaYNyOxMYInWnZX59JKMC5p/g6di+ElToRHBBBAAAEEEEAAAQQQQACB6ipAACXmNT98+HCjP37q0qWLue+++4x6MkSRJk+ebC666CIzderUpOwGDhxo9IeEAAIIIIAAAggggAACCCCAQHUXIIAS8ytAvU8U3NAqLX7SxK6am2TAgAGmXr16/ltZP9eSyaNGjQrmWvEnrFUGvXv3DoI06oVCQgABBBBAAAEEEEAAAQQQQKC6CxBAKYErQPNnnHPOOUZDesKpffv2QS+RE044IfxWua+fffZZM2LECDN79uyU/TRk56GHHjJVtWxySgHYgAACCCCAAAIIIIAAAggggEDMBAigxKxCMhVHPUQGDRpkxo4dm3YXTUqqIT1du3Y13bt3Tzxq50mTJpkpU6YkPS5evDhtPv369TNDhw416uFCQgABBBBAAAEEEEAAAQQQQACBMgECKCV2JYwfP97cdNNNJlMAJNeP07x5czN48GDTp0+fXLPgOAQQQAABBBBAAAEEEEAAAQS2WgECKCVYtVoxZ+TIkWb06NFmzZo1eX0CzZ/Sv3//YD6Vpk2b5pUXByOAAAIIIIAAAggggAACCCCwtQoQQCnhmp0/f34QRBk3bpzR88qkNm3amL59+wbBEz0nIYAAAggggAACCCCAAAIIIIBAZgECKJltSuadDRs2mC+++MJMmDDBTJw40SxYsCAIqOhRSQGS1q1bB3969OhhDjjgANOzZ0/DCjslU8UUFAEEEEAAAQQQQAABBBBAoMgCBFCKXAGcHgEEEEAAAQQQQAABBBBAAAEE4i9AACX+dUQJEUAAAQQQQAABBBBAAAEEEECgyAIEUIpcAZweAQQQQAABBBBAAAEEEEAAAQTiL0AAJf51RAkRQAABBBBAAAEEEEAAAQQQQKDIAgRQilwBnB4BBBBAAAEEEEAAAQQQQAABBOIvQAAl/nVECRFAAAEEEEAAAQQQQAABBBBAoMgCBFCKXAGcHgEEEEAAAQQQQAABBBBAAAEE4i9AACX+dUQJEUAAAQQQQAABBBBAAAEEEECgyAIEUIpcAZweAQQQQAABBBBAAAEEEEAAAQTiL0AAJf51RAkRQAABBBBAAAEEEEAAAQQQQKDIAgRQilwBnB4BBBBAAAEEEEAAAQQQQAABBOIvQAAl/nVECRFAAAEEEEAAAQQQQAABBBBAoMgCBFCKXAGcHgEEEEAAAQQQQAABBBBAAAEE4i9AACX+dUQJEUAAAQQQQAABBBBAAAEEEECgyAIEUIpcAZweAQQQQAABBBBAAAEEEEAAAQTiL0AAJf51RAkRQAABBBBAAAEEEEAAAQQQQKDIAgRQilwBnB4BBBBAAAEEEEAAAQQQQAABBOIvQAAl/nVECRFAAAEEEEAAAQQQQAABBBBAoMgCBFCKXAGcHgEEEEAAAQQQQAABBBBAAAEE4i9AACX+dUQJEUAAAQQQQAABBBBAAAEEEECgyAIEUIpcAZweAQQQQAABBBBAAAEEEEAAAQTiL0AAJf51RAkRQAABBBBAAAEEEEAAAQQQQKDIAgRQilwBnB4BBBBAAAEEEEAAAQQQQAABBOIvQAAl/nVECRFAAAEEEEAAAQQQQAABBBBAoMgCBFCKXAGcHgEEEEAAAQQQQAABBBBAAAEE4i9AACX+dUQJEUAAAQQQQAABBBBAAAEEEECgyAIEUIpcAZweAQQQQAABBBBAAAEEEEAAAQTiL0AAJf51RAkRQAABBBBAAAEEEEAAAQQQQKDIAgRQilwBnB4BBBBAAAEEEEAAAQQQQAABBOIvQAAl/nVECRFAAAEEEEAAAQQQQAABBBBAoMgCBFCKXAGcHgEEEEAAAQQQQAABBBBAAAEE4i9AACX+dUQJEUAAAQQQQAABBBBAAAEEEECgyAIEUIpcAZweAQQQQAABBBBAAAEEEEAAAQTiL0AAJf51RAkRQAABBBBAAAEEEEAAAQQQQKDIAgRQilwBnB4BBBBAAAEEEEAAAQQQQAABBOIvQAAl/nVECRFAAAEEEEAAAQQQQAABBBBAoMgCBFCKXAGcHgEEEEAAAQQQQAABBBBAAAEE4i9AACX+dUQJEUAAAQQQQAABBBBAAAEEEECgyAIEUIpcAZweAQQQQAABBBBAAAEEEEAAAQTiL0AAJf51RAkRQAABBBBAAAEEEEAAAQQQQKDIArEPoEyePLnIRJweAQQQQAABBBBAAAEEEEAAAQQKLdCtW7dCnyKv/Amg5MXHwQgggAACCCCAAAIIIIAAAgggEIUAAZQ8FV0PlO233z7PnDgcAQQQQAABBBBAAAEEEEAAAQTiJjBz5sygSARQ8qwZAih5AnI4AggggAACCCCAAAIIIIAAAjEWIIASUeUQQIkIkmwQQAABBBBAAAEEEEAAAQQQiKEAAZSIKoUASkSQZIMAAggggAACCCCAAAIIIIBADAUIoERUKQRQIoIkGwQQQAABBBBAAAEEEEAAAQRiKEAAJaJKIYASESTZIIAAAggggAACCCCAAAIIIBBDAQIoEVUKAZSIIMkGAQQQQAABBBBAAAEEEEAAgRgKEECJqFIIoEQESTYIIIAAAggggAACCCCAAAIIxFCAAEpElUIAJSJIskEAAQQQQAABBBBAAAEEEEAghgIEUCKqFAIoEUGSDQIIIIAAAggggAACCCCAAAIxFCCAElGlEECJCJJsEEAAAQQQQAABBBBAAAEEEIihAAGUiCqFAEpEkGSDAAIIIIAAAggggAACCCCAQAwFCKBEVCkEUCKCJBsEEEAAAQQQQAABBBBAAAEEYihAACWiSiGAEhEk2SCAAAIIIIAAAggggAACCCAQQwECKBFVCgGUiCDJBgEEEEAAAQQQQAABBBBAAIEYChBAiahSCKBEBEk2CCCAAAIIIIAAAggggAACCMRQgABKRJVCACUiSLJBAAEEEEAAAQQQQAABBBBAIIYCBFAiqhQCKBFBkg0CCCCAAAIIIIAAAggggAACMRQggBJRpRBAiQiSbBBAAAEEEEAAAQQQQAABBBCIoQABlIgqhQBKRJBkgwACCCCAAAIIIIAAAggggEAMBQigRFQpBFAigiQbBBBAAAEEEEAAAQQQQAABBGIoQAAlokohgBIRJNkggAACCCCAAAIIIIAAAgggEEMBAigRVQoBlIggyQYBBBBAAAEEEEAAAQQQQACBGAoQQImoUgigRARJNggggAACCCCAAAIIIIAAAgjEUIAASkSVQgAlIkiyQQABBBBAAAEEEEAAAQQQQCCGAgRQIqoUAigRQZINAggggAACCCCAAAIIIIAAAjEUIIASUaUQQIkIkmwQQAABBBBAAAEEEEAAAQQQiKEAAZSIKoUASkSQZIMAAggggAACCCCAAAIIIIBADAUIoERUKQRQIoIkGwQQQAABBBBAAAEEEEAAAQRiKEAAJaJKIYASESTZIIBAuQLLly83jRs3LnefreXNTZs2mcWLF5uGDRuaBg0abC0fq9KfY8OGDYHDNttsY+rXr1/p4zkgO4HXP15qBj8yM9i5Tu0a5q07e2Z3IHvlJDDgzmnm8xkrg2NPPbSlufj/2madzz+/Wm4uv29GYv+/376LqV+3ZuL1itUbzUeTlpuenRqaFk1qJ7ZX5snEmavM8lUbzQ+6NTI1alTmyHjuu2T5enPMtV8lCjfy0s5m984NE695gkBVCkRxj1ZleTkXAr4AARRfI4/nUQVQVq9ebYYMGWLUcPjxj39s+vTpk7FUTz31lPn0009N27ZtzaWXXppxv9dff93oj9KVV15pmjdvnnFf3kAAgfgK3HvvveaLL74wBx98sDnxxBPjW9A8SqYA0V/+8hfz9ddfmzlz5pi1a9cGuSlotP3225tjjjnGdO7cOeMZHnvsMfP555+nfb+GbQU1a9bMtG7d2rRv394ceOCBaQMSf/7zn837778f5HHzzTfbxlP5rafhw4ebuXPnVvhdnLZQ5Wz85JNPAot58+aZjRs3Bns2bdrUHHDAAaZ3796mTp065Rwd7VvPvr3IPPratxkzbVS/punQqp7ZvlVdc8CuTcwPuzfKuG9c3yCAUrU1U6gAyrr1m8xxN3xllizfYGramMpTg7qb9i3rVurDPfnGQnPvC/OCY47et5m57rT2lTo+jjsTQIljrVTPMkVxj1ZPOT51XAQIoERUE1EFUFScoUOHBg2HTp06BQGPdEVUgOWaa64xy5YtC/5zr//kN2nSJN2uxjW69B9v7VfstHLlSvPf//43KEa3bt1MixYtil0kzp+lAHWXJVQBdlMD+te//rVZs2aN6dChg7n22msLcJbiZjlp0iTzpz/9ySxdurTcguy9997mzDPPtI2jLb84uwPuv//+xPeL25bpUd+Zxx13nOnVq1fSLgpOv/POO8G2P/zhDxUGUH73u9+ZWbNmme22284MGjQoKa9cX4wZM8a89957GQ/XNaCAeO3auf26njHjDG88ZoMn9784P8O7qZsP2HUb86t+7SrdcE3Nqeq2EECpOmudqVABlCmzV5v+t0xJfJjrf9HBHLnPtonXU+esNl9+syp43bBeTXPIXk0T77kn1zz4jXnnv8uCl9vZ4MuzN3R3b5XsIwGUeFbd3z5cYjZs3BQUbs8ujWwgunLBvnh+qvJLFcU9Wv4ZeBeBwgoQQInIN8oAivvPe61atcydd96Z9ldGVZwfDOnfv7/Zd999Uz6NAi2/+c1vzKpVq8wPf/hDc84556TsU9UbZs+ebYYNGxac9uyzzzZqDJFKQ4C6K249qcfZ//73P7P//vubLl26FLcwEZ/9P//5j/njH/8Y9L6rW7euOfbYY03Xrl2DniL6/tJ3nnqmzJgxIzjzYYcdZvr165dSChdAqVevnrnwwgtT3teQIOXxj3/8w2hojJL222233RL7uu9gbShGAOXDDz80jzzySFAeBdIV4FH55PDqq68ava901FFHldtLMdgpor/CAZQ2zZN7v6y0Qya+X1nm6U65XYu65pGruhr1TimFRAClamupUAEUfQoFQCZ8tszstH0Dc9fFO5rG3jX4hO1d8ofNvUsyBUc0ROh3j88ya9ZtMhf0aWOO+3Hp99wlgFK113e2Zzvsii/MqjVlPQzDwb5s8yjF/fK9R0vxM1PmrUeAAEpEdRllAOWjjz4yDz30UFCyyy+/PGhEhIv58ssvm/Hjxyc2/+hHPwp+kU1s2PxE3cp/+9vfBq9+/vOfm5/85CfhXar8NY3wKieP7ITUXWSUZOQJqHfNTTfdZBYsWGDUU+6iiy4Khut4uwRPtZ961H31Vdk4fvXICQeSXABFc6bccccd4SwSrzUsRu+vWLEimFNm8ODBplGjsmEnxQ6guF6DLVu2NNdff31SEF1Bn6uuusqoN1irVq2CIZ+JD1XAJ34ApVatGuadu1LnB1mwZJ155JVvzZ//sThRkt57NzWDz9g+8TrOTwigVG3tFDKAok+i4Ee9OqnD77IJoOh4+/uTWW97BtSx1/vWkAigxLMWq2sARbWR7z0azxqlVNVBgABKRLUcZQBF3dc1PEfp//7v/8wRRxyRUkr9x3/q1KlGv07q11RNLvj73/8+pav5hAkTzBNPPBEcr67l6mKeKek/5ur1kk/KJo9CNMKzOW+mz6VjNRSgonkO0h2f77G5eOd6zlyP8z93rnUXxbn9coSfK/9cLJVPNsdms0+4TP7rbI7PZh8/z6p6nk25stmnvPKqN8jjjz8e7PKLX/zC7Lfffhl3X7JkibnuuuuCnirp5oLJNoCiE2iIjIbKKF1wwQVm9913D54XOoCyfv36cofeqCeO5oLp2bNn2u9/N7xH31l33313UoAl+AAF+CubAIo77ZBHZ5pX/102DEujrF67NXmCT7dflI/rN2wytSto6K6z+5TXGC4vgKLG9Eb7V62alW9MZ1O2dBaaJ0CT2eaS9Flr27LaSyTSVJFheScLO1QmgKIpgPRZ3OepaBLZ8sqRbQClvDzSvZdPfbn8wkZue0WP2dRLIQIo2Zw3Xdn1OXUvufpMt0822zT0pbx7MldPd+58j3f5lPeYawClUPd4eWXN9r183XK9R6O4B7P9jOxXvQUIoERU/1EGUFQk/Rr67bffml133TX4NdYvprpxX3HFFcGkgmeddVbQ1dvNiaJJFv306KOPmg8++CD4ZfXWW2+1/1gl/29KE1L++9//DiZsnD9/vlHXef3qqS7jP/3pT9M2Sl977TXz8ccfB79+agjOxIkTg/kCpk+fHsxdoEkad9ppp6B7vVbPcGnkyJHBnC2aFFI9Y5R0Lver78UXX1yp1UVyKbsriy78v//970HZNY+MPrcm4/3BD35gDjnkkLSfO99jVUdye+utt4LhCGpEtWnTxuywww7BxJiyyJQ0maabWPO7774LGkzaf6+99jIayqDhCulSrseF88ql7hYtWmTeeOMNo6EZavRqrgbN27DjjjsGQw/8ayN8vnSv9Yv7PffcE7x1yimnBNeKemF98803Rtfutttuazp16hRMrtmxY8eULNx1q3kvzj//fPPiiy8Gc2WoJ4KClD/72c+SjtFQD02+rGEzCmqqvCr/nnvuGdwbSTvbF6+88kqwr+r0zDPPNP/85z+DoRa61nTP6t7UkBQNTdH1pqQGvCY8VTD0+++/DyZ47tGjRzAvR7qVdhQcUFl0fym46pJ8R40aFbzUsA4XCHDv61G9N2677bZgkyao1kSkLlVF2d250j26eZ/U+0TPKwqGqYeGAseaP8kFm12+lQmgqI7dnCWanFZ/lKIOoCjApDlV9F2sXjb6DtRn1US2Rx55ZEovGvdZMj3qu0B/dE9pmGdVzINSmQDKf6etNBfePS1R/D9e3jlYDeW9z783D/1tQbC9gV0x5d5f7ZjYxz157aMl5qk3FwUvW9rVU24ZsOVe/s/UFWbEuLKJPZtvU9v8/rwdzB/+PN+8+79lZt7itebS49uZ4w/cMqeWGhiPv77QfDJludGY+6UrNpi2duhRl+3qmzOPaG123iF5Zad0AZS/25V5xr+/2Hxl58xYvXZTMD/BYT9oan5xeKuMAZt5i9eZZ99ZZCbZVVwm2/OuWL3BtN62julhh5PovN07ZF5JSZ/xMVtmlXfh0nW2B0VNs13LOqbXztuY0w9rZZo2yvwjx6xv15on31xo3vvse/OtPVbze+iz7tm1UXDedL0xnHt5j5qj4Z9ffm8mzlptZn27JljtpoOdF+Twvbc1J/ykhalbTpBn+rw1ZvQrC+xqO6vMXFtHmsx1L7uqzUU/a2t+c//X5a7Co6CVJnOdYD+PVsRRMK5b+wbm5INamPr2s12eYRUeDSW71HvvmlPam67t65srRn1tFn+/3ixett6ot5SSyt7ZGikdf2BzowljlR7/+0LzxidlQcBdOjYwvz4x9centTbA9bK1eemDxWba3DXBMAx3ffW2NrpO0qVBD88MLPTeJX3bmh3b1jd/fGm++d/0lWb6vNV2yFst+znrmwt/1sbs0nHL/6HCeVW2XqIIoFT2nvLLrLlndF/884vlZuGydda+ptmxXb3gPjzryNZG93Q4+fe8bIedvYP583v23+aPlgb31pq1G81O9j7eZ6fG5ix7b+m/uMtXbTAPv/yt+Wz6CjPJXrMKrHZsU8+cZld6SjffzU2PzTJfz18TnHqgnbepoR3u9cBf5ttrbrVZZMupY3fdsaEZcEyblDLm+p2m7yz11lOaNGuV/fc5eGo07LGJvcdV5lGXdS7b6P0d5T2ea9ldcfK5jqO4R1058vnOdHnwiEBlBQigVFYsw/5RB1DcL4xqtKnR4wc+tDLDAw88EDTC9J7+A60VK9L1VrnxxhuD/7DvscceQaPRFV+NKa00oQaiGvbpkv5zr0CNa+y5fVzjQg14/QL8/PPPJ1aIcPvoUQ3aG264IbHKhRoqarBkSpqIUcdUlPIpu/LWRJVqiKtRky4pkPKrX/0qbVnyOXbs2LGJ1ZDC59VwA/3yrsZ5OKkX0ZNPPpmxnhQQ0Dw34QBMrseFz6/Xla07NRJ1bWp4RLqkIJuCfwooZJv0i7wmzVTSUDQNdUuXv1YmOf30080+++yTlLW7bhWYUABCgUOXwj0ZFi5caBRw1DnTJc1HoSCJv7SuenrJXI16fS4FUNKlXXbZJbgXn3nmmWAejnT7qEeZhm6Egyi6n1S28HxGCrYq6Kqkz645UsJJ1/sll1wSbD766KODQI7bpyrK7s4VftT3j1YRW7duXVBulT+fVJkAilY90zBJJQVOTzjhhOC5u1b0It85UBQ8u/322xNB4+AEob8OP/xw07dv39DWzC+16o8C1xq+pGFMVZEqE0BZ8N0603fwxESxbuy/vTn8h02NGnxDx8wKtquRop4p4fS0DQC4IIkaTM/f2COxyz9sQ/rKP34dvG7coKbZu0dj89anyxLvX3xcW3PqIWWBaDWIbhw9M2hAJXbwnqgxftqhrYL5LdxmP4CiYUrH7d/MPP9u+n+z9rHnvvviTu7QxOM/bJBIn3GZDdakS2rgXWSX63Xl9Pe589k5Gc+n/WR22/kdjSaaDCcFai4aPs1oLpp0SQ3VoWftYDq1TR9sT3eMlhm9+YnZ5s1PywIJ6fbRHCIP2ADZto1TG78ffPG9ucEuC618wqlNszq2R48x324OZISXMV5tG8ZDHp2VmMg1fLwatJ/ZgINL/jLGmQIFfW+YmAicuOP8R811osCY0h22LsZurvu9ezQyw+08Kn5SgOrqB74JAmv+dv/5T/doYq76efuUoNcpwyabbzY32BUMestOVjvfBt3CSdfobTaA2GuXbZLeyrVeMrkkZV7Oi1zuKZfd8+8uMsPHzrP/70r//00FBq84eTtz8J7JQSf/ntc+Cr7597zLX4//Z+ep6d+7lfn1/TPMdBvQSpcUqDn36NZJb51929QgQKeNB+7exHz41fdmjQ2WhpPmfbrlvI5BcMu9l+t32ksffBfcWy6f8GO6ZdSjvsdzLbsraz7XcaZrsTL3qMqRz3em+xw8IpCLAAGUXNTSHBN1AEW/VKr3iJIaUu3atUuc1QVX1IjT5If6Jf1vf/ub6d69e9Jyxn6DUw0DNRBcUvBEvzor6ddo9WTQ0qD6HJqgUI1TJTVUNXeKn/zGhbarsag5WPQ4ZcqUoOGoX9SV/EkO1chTI069Bdyv5ZoEUr1slLS0aLpVNYI3vb/yKbt6vqgxo0aNhjOp0aLeClrZRJ9Zv+qqIafVgQYOHJhUnnyO1a/PclMgTD1GNERBgQ/9iv7ss88GJmr4ax4I/TLtkgJjCkQoaKRyHnTQQUHjX4Yqr3owyFTBLv0S7/xyPc6dN/xYmbpTjx6VWT1Q9BmPP/74wFPlVABKATf1JlEvAwUENI9DNsm/nrW/AhW6pnXdq87UI+mvf/1rYCUHBRT8vMPXra43BVJ0HShopnyUVDaVX8bqTaJ7R71m1ENE96Um8VSjPxx0cUEI5aF6Vg8uDcFQ3vLTteXuC9WxepKop4iuB30W9SJ5++23ExOEqofIqaeequwSqdABFJ2oUGVPfIjQE3/Iot8LJLRb1i8rE0CZNm1a8H2gzE877bTgu1DP/Wsl3wCKvuvUC0uu6umk7zstJa+eTRq6pGFxSprgW4GxipKO0xAfJd1bhx56aEWHRPJ+ZQIon0xZYX45YnrivA9f0SXofZHvf9j9xlQic+/JL20A5RQbQNG4+lOGTjLzbSBHSY0R/ZLfatvaQY+HuYu2NFZ/e9b2iV+l/QCKy1a/BO9seyDoV+1wo0w9YA7crYnbNegpcfUDX9vvh7JNLZrWDpZ01rEqu4ICSmoY3zews9nNBgFcesHOG3Pb03OClwqyKECwd/fGtmfDavO+DUSstZ9JSYGK0XZi3pY2b5fU42XAXVPNoqXrg0067x6dG9lgygbzsa0Ld6yCKI9d3c1ei+7IzI/6DOfeMTURIFCZlad+7Vd5ZtieJS6pgX/HBR3dy+BRAYaThkwy6qWhpOMVvGmxTR3z2YyViUkzgzftX+EASrhhtE3DWsG5FXDxz+2OzyaAIt9ltnfKNwvWBD18dGwD25Nlv80BCgX5fmIb0ErlBVDUC+Ps26aYaXPKDOSpHiM72J4K6jnkly+djd/wDE5m/2phe1t1blc/6IXirhO9J7Mx12yps3zqJVOj1ZWhvMdc7ynlqV5lN44uC5zqtXpY7G6vb10buhZc0E/XyP2XlvVW035K6e551ZnuyXn2Pp6zaG3Zjpv/rm97tslP9+2eXe057H2jc7geHnXtnDhP22WtW9sAnkt+AMVtU7BEPYPUa8YF+fSeAoY6XmVVyvU77aNJK4zueaW3/rM0UT71dmrbvK4dlmSMAs8uFeIez7Xsrkz5XMeZrsXK3KP5fGe6z8AjArkKEEDJVS50XNQBFP3KrMaSkv8fe71WQ1mNDg1jOPDAA41rBKhBquCAG86hpYLVmFC6+uqrg6Eieq7GuOYQUB46XvmEkxtCpOE1akz6yW9cqAH6y1/+MtFw137KX93wNTRCDXudy0+5zqPh8s617Gr0ylQNew3FUK+NcO8a9Up4+OGHg+L6cyLkc6x+KVaPF7mEA1k6kXpRyFsN93DASkNUNGGwGl/63OE5bDQsZdy4cUF5dV24IVy5HhdkVM5fFdWdnNRzQwEcBU/UY0SNRT+pd4r20edVAEHO2SQ/gKKeSvrlXYEHP2mFGg03UlIvDL83g3/dapiMemO4gJOfh+aUUKBHvWQUvKxfP7m7/UsvvRQEajRsYsiQIcF+Ot4PoIR7eOh9DdtQjzAFSpQUFFXPHtWtS/LTvapgjYIs/kpb2qcqAiiFKrv7jOFHBZXcZK+Zes+EjynvdWUCKG6yVuXn3z/+tZJPAEV1rh4uuvcVpD7vvPOSiq5AroKm+i52AfGkHUIvFHAdMWKEUc8ZBawvu+yypOsntHukL7MNoKiBd/nIGfZX3LLeW+rJ8fptuwRDJfL9D3u4MaVG0umHtQyGqLRqWseoka2G6J9eXmAe/OuC4PNv27iW7bXRyQZQyobrqPF7w59mJno2NLf7vzh0p2DfcABFjbS7L+pkGjcoGzYzw/YaUGDoOzsMROkIuzTuDXaJXJcusMOW/meHLympMf24bfi6htZy2wuj3w1fJXpjHHdAc3PFSdu5Q41/7KF26MdNZ25pPOmX5zO9ZXn1S71bFUZj/s+8dUqi0a6eMTefu0MQGFDm6jWg4VQavqQ06PQO5qgfVdzT818Tl5tL/zAjOEZ/DT6jg9GwFJc0FOvhzcOxtO3FYTslDW+46/m55rm3y4Zi1atbI+j9sn/Psp4Umrfi1qfm2KEv37nskgIoC20g6MQhExPBFwUhhp29fTB0SAdoWMYl90yzQa0tPVuyCaC4k2Uzv0J5ART/+lJwTqb+cJ3n7TCVu8fOtfd92Rlv7N/B9sDaYuc3PPX1f82p7c0xm4cOqfF/j10h6IUJW3o+PTWom9m+dVnPoXzqJVOj1bmU9+h/5srcUwoennjTpESPrL3scDJdn7pXlVTXvxk1w0y2daqkIN+fruyamKsofM/32rmx+b3tlePmMlKw9pJ7pieClspDS6hrNRt33yrgp+FiLvn3j7b5ARR9X/3W3nvqPeSSlm/X959Luud17yvl+52mPCqaA6VQ93i+Zc/nOq7oWszmHs31O1PmJATyFSCAkq/g5uOjDqAo22uvvTZobGk+kjPOOCM4k9+AVZBCjVP951xDbfSfcX85zhdeeCH4tVwNQAVWXGNRvS3UqFdSg1sNxXDSL/lqKCppFR+/oeoaF+oxoYlr/WEMLp+nn346+DVdwZy77rrLbQ4e/c9Q2WWM8ym7AjpqrCipIaMGTbrkGqnqGeCWSc3nWNegU48HBUr8BrM7vwt4KKAjL7eP620kRw1xClur4aUgipJ6AWk+FaVcjwsOLueviurOBfOUhXr3aGhCuqQeU+o5paQVRdLNWRI+zg+gqF5UP+mSGphapUUBRTXMXZDMXbcKfCgw4ebe8fOYNWtW4KxtZ9ohOjINJzWKFbxRjxr/M7oAiupI95urQ//4xx57zLz//vvBpkz5u7rTThqe5wdw3LVZqCE8hSy77+A/d0MStc0PWvr7VOa5u9/0WVxgxj9ewQddx/qO+/LLL4O3tAS8loJ3yV0rep1PAEXBMn2PK2muk/A8O9qu60Hl0XAt7ZMp6drUd4O+53XtKuATDk5mOjaK7X4ARUEB9YLwk5bhnGnn4FDj8YuvVyXeOvGnLYK5SbQh3/+whxtTfkPGnVCN8yOu+jLRw0HDZTT3gZ80n4YaTS49O7h7MPeAH0DRZ3xp2M4pwy80vEjDjJTUS8Sfp+BZGzBwvQc074jfw0T7D3vcXnf/LAsaKKDzwK+7aHOQ+gz6KpibQy8030Y/Ox+Hn9SI0zwvSj/aqXFiro537PAPLQfq0kj7C/7unbf0bNH2J+x8Hn/487xgl93se/qVv6IkIz8IdsrBLe132paj5tpeLyfcWPb/CG1VDxQ31ES9FY68+otEz5dw7xLtr3o67XeTzcwFZZ/J38cPzqjHwAs37ZRSDy//a4n57WOzlFWQqiqAogDh8fZzu95NfW0g7DdeIMyVR0OXNH+OkuZf8e8Xv+F5vJ1D5vIT2rnDgsfw9enb5lMvFTVakwrhvcjnnvKHqijg+dyN3Y2CnX7SPDm/uHlyIgiiAIvrCRS+51+zwVjN7eOni4ZPN5oHQ0nD3J68rntSDy3V2bHXfWmWLC8LIvrXmo7xAyj+95Xec+mc27f0xtq9S0Mz0vYgU8r3O015VBRAKdQ9nm/Z87mOK7oWswmg5PqdKXMSAvkKEEDJV3Dz8YUIoKgnhHpE+EtVaviAAiPqieAmP1QRHnzwwWCCUg0bOPnkk4NSqfGlITWac0G9RCqT/J4YOo/f88E1LtSw0znSJX+ZZf2i7xqx2reiRni6/CqzLVPZNSfF6NGjg4ateoS4gFI4b/WeUA8A9aBwAYlcj1UjW78Sa8LY8JAP/7x+byEFpXRuJQ3TcUtaa9iPerCEgyh+Pu55rse54zM9VlR3Lmin4xVEyDRRrHwVOFHSMBV/QtNgY5q//ABKup487hBXV3qtgIOG0Chlc926wKGCH+olky7IorwUzFKD1u/B5QIo6Xpt6RglN9xOz8P3hbYp+SvSqIeLPwyp0AGUQpa97NOl/l1RAEX/SKmnSKYUXn3MBVBUh37wScerh48CKH7q1KlTMOeRv6+7VrRfPgEUHa+grQKwyl/LM6vnSGWTvj90zSkf1ZHmaHK9zSqbV677+wGUbPPQpKmj7PwY7tfifP/DHm5MvXN3z5QVODTJ4sm/nZQo4ribegQTuCY2bH6i/6CvsL+OKx1pf03WL/x+ACXdHATa15+jRd38x3pztOj9dEm9XtQb4Zm3F5r7x88PdtFkkQrcuOSvXNTKTjh73WntgyE8ftDC7es/Dnt8lg3KLAk26dd7DfcIp8/tEAateKPUzE7U+ZLtLZJrUmPUDcs55totgSq/Z4t66pxm5/lwacy13exwiLIeFG6bHjOtwuMHHzQnxlDb+yScyluFJ4rGWaYeKOr9cpbt8eOSAiMKkISTP4xNwbjXb+uZWFLZb3j6865AjmgLAABAAElEQVS4PGR8+JVfJIKA6qFybK/UH7rc/nrMpl4qcvHz85/nc09dZecs0iTASgqKKDiSLqkXyceTy4IgZ9h5TM4/tk2wWzb3/MO2x9lDm3ucadLkR69O/Y692gYZ37XBRiUN1fKHx/gBlP5HtAomiw129P7yh4v4vdby/U7TKSoKoBTqHs+37PlcxxVdi9kEUHL9zvSqlacI5CxAACVnuuQDCxFAeffdd4PJQ3Um16h2wws0lt5fhUO/YurXbfVy0DABNdzVdVxzQ6SbXNaVXj1RdKzmaNDqLhpOokaG/igPpXwDKPrV1A0rUn4VNcK1TzapsmXXpJ1aAUfDP9QYqUzK9Vh/lQ/VjT+/iX9+NerczaihRZqPRkn1p0Ca5lBQUq8fNcA0t4Z60KTrPaT9cj1Ox5aXKqo7F/TL9Ou/n7euT31uv6eP/374ebYBFH9IiAKHCiAquUZxeYE/10NEvVdcHYTLodda3Uj3ys4775yYmDWbAIob/qM8NBGo6jOc/KV14xRAybfs4c/pXmvuGhcgCQ9X1D4KaN5yyy1u95THcIDDBVBSdvQ2KKCrwJp6SGnlrXBvIXet6JBw/l42iacuoBYObGsHfT4FuF3gRpM967rRhNEaSpYpkJvI3D7x533ShLtuvh5/n0I/r0wApZH9FVhzkfzc9lrQfAUu5fsf9mwaU353fXXHf/vOnkk9J1xZ0j1mE0BRL5O77fAUJa2sowBNOClg8dw7WplldTBpaboJZdu1qGOeG7zlWK1cpMkv3XwQylNzRfzATpqpYTk/tsMSwr/ca5+L7ZCiT+0wBiU17NrZ+RPCad36jUmT6fq9NcL7hl9rwtKX7CpEb//3e/tZ1gZDLjSkIJz8AIpfB9rvLVsHCkiFU6YAiuZe+XJzLya/Me0fX6wASrg3wBt3bAmM+OXTaj99rvsqsUk9ldRjSamihqf2OfLqL41WKlFKF0DJpV4qarQGJ0vzl1+flb2n+tuhZ5oXRuk0O9xOqy+lS7c9MycxbEk9rO6yQ+eUsrnntZqNVs1R6rxd2Tw/wQvvr+vtsD23qtJhNoAyxJtfJJsAiuYs+dW904McFdRUvWsFp3y/05RhRQGUQt3j+ZY9n+u4omsxmwBKrt+Z3mXBUwRyFnBtNs2ZGedUwzboU//FjlGJCxFA0aSlGj6jNGDAgGDCSw3VUWBDQwi0AoNLGsqhLt1KOka/8OsXdKXwvtqm+SfcUqB6rQaEftlUN3L9h17dxBVQUdLcG5rLxCXXuCivIer3QIk6gJJr2dXrRF321atE80xUJuV6rOYscPWQ7flU1/5qPLr0teSyGtb6Bdol1Vkn++t57969jVZZCqdcjwvn47+uKIDiVgdJ15D089FzBfo0H4o+qz5zRSnbAIryVN5K/pwa2Vy3aixrWeFskz/HDwEUE1yjGoKkFA7+ZDJVMErDEZXSDXPRkCldd37SBNjqtaUUDnC4AIq+nzQRtJ/03aYgpuvh5b/nP3fXiraF8/f3c8/LC6BoH923GqanYIo+j0v6zlUgVEPByutZJktNaqw5p9T7pBjJD6DYrx7TZ7/kX8S19Kp6VWxnAwO7dGpommye48Ava77/Yc+mMZXpl2K/HJme5xtA0VCHax/6xkz4X9kv7pnOo+3hAIq2qefGdfZ4fxJSbVdSLwbNQaJ5UzRRpks/t5PlumEwbltFj09f3z1Yjrmi/f49abm51v5yn24VnfCxfgDFH7ahuS5e/v3O4d2D15kCKP5KHAPt0tQn2WFg4VSsAMr4974ztzxV9n1U3mfT/1gPvPSzoGeIyj7snB3MQZvn1cin4am8cq2Xihqtyjtdyuee+r/rvwqCbso3U13qPX/Ylh8Eyeaer4oAiiaTPeP3W3oeuWF/+X6n6bNXFEAp1D2eb9nzuY4ruhazCaDILpfvTB1HQiBfAQIo+QpuPr4QARQ1gDXMQQ1H/UqvgIlWdNB/uvWLbPiXy2HDhgUNDQ2JUA8Ere6iX7g1zEa/qLukOVPU0FWZ1cjQfBKaU8H/D3ymYTDKwzUuihFAyafsGr6j4R3+kChnUtFjrsf6jXkN4cmm+75WfMm0nLMaYlqFQ4386dOnB/PfqOz+akfpPkuux4XzqiiAopWjtFKN5mZwjeJwHu61AnsK1GmeEc0HUlHKNoDiz8PiB6OyuW5dDxo1sN1QuPLKpXtAvQmUCKDkFkBRzwxdC/q+23vvvY3mRaooPf7444kloMMBDhdAyaYXVKbzuDmc9L6Cp/73Z7pjdK0rEKTJqd2cJ+n2U/BE964mO1YwV4FvJfVO0/wvbriZf6y+8xQIUuBcwdLjjjvOf7vKnvsBFP0K/c5dPSt97nz/w55NY0rDBTRsQEnzZ7xpfynONuUbQPGHfajnjZbEVc+RlrZnSJ3aNW2vlEXmjy+V/VKeLoCicqrh/cXXK+3KHMuCoQ9uuVv3GbQKzp0XdkrMCeIHIbRii4YwVJQG9msXTLZb3n4atnHO7VMSE7WqJ4x6FWkoTpNGtYND1TjW3DdKfgDlPbuU8xWjyupAPU9UBwq6hZNfdn9eCn++CQ3lUC+UcCpWAMXvjaE5PdS7Jt1nCzcQR/xyR/PD7o2Cj5FPwzOfegmXKd18OWFnvc7nnvJ7E513TGtz5hHJSwi78/n3zh52me77Bu4YvJXNPV8VARQNL9IwI5desUuwN7Y97fL9TlN+FQVQ/Pskyns837Lncx1XdC1mG0CRX2W/M3UMCYF8BQig5Cu4+fhCBFCUtZarVINZwxDU8Ncyp5kaGW7+CQVDNGRGPRbCSxsrT79LvN/A1HsuxTWAkk/Z3fwWmkRUAaRwt3332dM95nqs3/hJt7pJunNlu02rCWl+FPVyUfLn+wg2ZPgr1+OUXUUBFNfzSLaazDVTw1OBEzWalbJtFGYbQPHnf1FjVo1apWwCKK6eFZzUNZKp/EGGob/iEkBJNwxGRVUDXCsPKYWvxaooe3DiDH+5oYkKSCkYkWnuHHd4oQMob775ZhCA1vk08bOWsy4vaZ4jTXCdbqWdTMcpYKT5bmSvFJ4Y2B2nYLiWlldScNWfj8rtUxWPUQdQFGDQ6jzh5M8x0tbOMfK8N8dINo2p8Pwbf7O9H9L1hgmfV6/zCaCo94kaQm7J4PDKK8r/STvvyr12hRWl8BwowcY0f2myUg0b0rEuadJSTV6qdPMTsxOr2WjlkN/Zng5RJL9RGl4ZxeXvN/z8AIomBT3dThDr0ni7ypFWRwonv2HoB1AGPTzTvPlpWXBRqw1p1ZRwKlYAZfbCteYku6qMS5nm2Pnqm1U2ADXV7WaetCvp7LB5JZ18Gp751EtFjdZEYUNP8rmnbnpslnnFTvirpF5rV5+ypTezfxoF3BR4U/KH2GRzz4dN0s0DlO8QHn/SYr/nkR+EyOU7Lfi89nvDBSK1epDmZPJToe7xfMuez3Vc0bVYmQCKb6XnFX1nhvfnNQK5CBBAyUUtzTGFCqC88cYb5rnnnguCJwqKaOJK/VqfbnUQLb2qhojmxdAf/RIfbiip6JoHRHN6KGk1knTzcug/7I888kiwT5zmQMmn7H5QSMvrdurUKfh84b8014O6y2t+Aje5aT7HakiVhmOp8aMhWNkmBRnUoFfSPA06PpxcnWu7m1g11+PCead7XVEARXO1qJeUUnkrHfkTpapR73pxpDun25ZtAMXNY6IgjiaydT2rsgmgfPzxx8F8FTqnP3+KK0N5j1URhMg0iax6cWhOGaVMcx7FOYAyYcKERCChot5U+oyFDqDo+1xDD5W0Oo9W6cmU/KGWxx57bPCd6/ZVME8BTgWGjjnmGLc56VHn0fkUNNKS8ZUJ7CZlVOAXUQRQwo3eJ67rZjra5X795K8Yk0sARfNzHPKbzxNLyKZbqUeNlbNt43bl6rI5JtSjQz038gmghJcafs5OENvODmny0+N2NZz7Nq+G4wdQPrUriIx9d3Gwq5Ze1TAd+/WVlC4cPs38d2rZEsn+xKp+UEYNOy15u23j1GCFfqXVCkH+nDRJJwi98Cfd1LLHCpD4SfkpgOJWHfIDKNqmSVA1ca6SVpnRajPhpOWX3fK1fgDFXza2RdPawUS96u3hp3f/t8xc/cA3iU3+vC5RNM78HhF792hkhl9c9u+vPtNhV35u1qy1ADalW+VJ20fYZYyffqtsGec2zcoCga5O82l45lMvFbmo3OlSPveU/73R1M7pM3ZIj6QhaDqflgXvN3jLstUKsrghglUdQMk0544/Ga4mx374irIh9Pl+p+nz+4HIdAGUQt3j+ZY9n+u4omuxogBKPt+ZMichkK8AAZR8BTcfX6gAyjfffBNMIKtfxPWLpVKm1UHUQFIDXY0p9bLQyg3q+q1AgJ/8SSpPOukkc9BBB/lvB0sna9jPwoVlv3j5v+Jrx2waoq4ngvYPz4Gi4ITG9CudcsopwUomwYss/sqn7Oo+r1+T1W1+9913D7rMh0+pSV9VNv3q6y+pms+xLgimc2VqjCl/TRSpuki36kqmYS5+UMGvS9fQruxxYY/w64rqTj1u1INAQ4Y0P4iGoOla9JM+q+aM0PAmDfXRKiXh4Wj+/u65/1k1F8TFF1+c0kNE9ac61r0QruNsrlvdOyqPlp/VcApd++Hyqzyay0LBJH+Z5mIGUFQmBQVltNtuuwXLmWubn/7yl78Y/VEKB1aroux+WcLP9V2lYK6CEZrgVcN4VH/pkr4HH3jggaBnnt4vxBAeXQfXX399MFGwgtG6n/yJsP1yufmRdA1rHip/vih/Ragbb7wxGKrjH6vnbriQ5p+q7HxJ4bwK+dpvCOU6hGfmgjXm50O39Ey4+Li25lQ7LMQlzf1x8YhpieVGcwmgKK/f2zkqXrRzVSipy/t9dslRNd5c8j+LVtJ53k7mqsZtPgGUcM+EcMNaq7dc+ofpZumKsqCN/9m+XbrOaN6Pzf/EB71I1JvET+ffNc18Nr0sgPKz/ZuZq35e9kv+omXrzanDJiWG2uzfcxtz05nbJwVKFNC48dFZZr5dBvluGwjwLfxz+M/9ngOazFZLCdezQ6KUVE7NA/Li+2XG2qZVg47ed8u8OL8dM8u8/GFZzwNNtvsHOyRDQSOX/EahtvkBFA1TOcV+JheACTdq1eAeYD3m2N4gLlUmgOLPY6IhRpqjxZ9XRnlmCqDovT/aCUtH24lLlbSq0T2X7Ji0ypCW8R5o69pNCBxe2SWfhmc+9VJRozX4QBn+yvWe0jl1z7sJcRVIu8zOa+OCSeq5NdReK6/+u6zHkZYhVq8z12usqgMoCj6OvHTHRG8hcWg5b03w7K7HX/Vta062E2Qr5fudpjz8eWLC17reL9Q9nm/Z87mOK7oWK7pH8/nOlCkJgXwFCKDkK7j5+EIFUNQg1aos+g+9klYG0etMSb/+uxVbNPzgjjvuSFpCWMepcateEWqIqHHQp0+fYBJSdUH/6quvjIIfaty6pO7p/izD2TREywugKDjhJndUQ/icc84J5nVReSr69TXfsrvVivTZ9KvyiSeemBguoF+KNYeHzqFeOQoE+EM4cj1WdahVlNR7SI2sn/3sZ8GSxpqfRg19DUt6/vnngzlN1PhSI8wFFMaOHWtef/31oCo0D84+++wTLF+qPHXzqreM5lSQmyb7dd37cz3O1Xmmx2zqzl9VRderekxp5RElXVd/+tOfgs+sX+U1jMdvcGY6r7b7ARS91uSzmnzTBZzkqIa1gihKCt507NgxeK6/srlutZ+/rK6Wij3jjDMSZVRgRb1U5Ks6OPfcc4PeQTquKoIQLjCWbriHXP/1r38F14ICk/vvv3/wXHNzaBigC56orHELoKhMqj8FbnWN6XrWSmPqeaVrWveDelbps2ioolZaUtKcQq7nTbDB/hXFHCjKS2YaQqmkOUr0XaHvQQV4dN/qfh43bpxRLzCl8Mpo2qYJr3Udav927doF7hqOqV5Rup4/++yzYKU1febyhv+88847wf1+6KGHpp0nRecqdPKDDrkGUOwtY079XfKkp5pbQ3MeTJ69KlhNZvmqzd0W7Afygwz6fNk0prSfVkDRUsauAasgyWE/aGrnLKgVDA1RMMOls45sbc49umxehnwCKMpPv6Kr+7iSVujYd5dtzK6dGtg5TVYFjTDXTV/va6WiV+08Ci5deLftYWJX4lHatnEt89M9mppeOzc2y+xKLP/8cnliBRG9r2E6foDlz+8tNrc+NUdvBUluh+zVNFglSJ/1o8nLbfCkrFyaiHbwGcm9Sdxx/qM/Eay2d2hVN8hTvRH++dX3ZtqcNf7uxm9U6o2v7YS4p988OdHoVMNUZW5mP9snU1baz6oV/7Zk4QdQtNVfolSvf2DnD9nTXidzF60NLNWo9FNlAij/mrjcBrNmJA7X6ji6DneyPQuca3kBFAWkFBT4dkmZaeMGNe3SuNsGvam08pKCAa5njurwlgEdjd+DJp+GZz71UlGjNQGS5kmu95SyUk8c9chxSff7vtZlow2e/MMO23ErLimYdfsFHYPlu92+2dzzUQ7h0Xl1rR5g5y7qbHulTbOTx2r4znq7FLmSAmbqXeYCbvl+pylP/97XtaR7Vz3Rzj26TSJoWYh7PN+y53MdV3QtZnOP+m6V/c6UOwmBfAQIoOSj5x1bqACKTqHVctQoVVLjWytVZEp+V/jyhoz4S5IqLzVQ1CB0SXOnuIZBeMhQNg3R8gIoOod+NXarnShIoT/6Bd0FAFw50j3mU3YFafSLrxokSmqotWjRImi0uQkd1fPgwgsvTDTMXRnyOVa/rKtxr+CMkrwVVNBKR2o8Kem8Gs6ioJZLek+rmqhh7JKCO+rFoQalSwok+L0hcj3O5VfeYzZ199prrwU9atw1pTLLb9myZUHWqm8NkQn3jirvvH4ARXauh5TyVgNV77sUDhBoezbXrTteK6ZopReVWUkTNyvgo/ljXAqbFzuAIg/1nlFvDiUF6HSdKTCqpOtcASBZhX2qouxBISr4S0FMBYHdvajdFbDQ9eJf79qugKImVNVn9FNUARTlqevg1VdfTXw36vtCPUW0hLW7trWfglWadDjdstT6HtW9r2OUVF7VherLXV96re+/bbbZJtjH/8tfCj3T/Ff+/oV6HkUARWXT5KhaaSZTUkNdPRCUcg2g6FhNfKlftt0v39oWTlpW9cI+be2/A2Xv5BtA+cQuJ6ylTr1/SpNOqc8zb3MgQ2+o54OG3SipQXGdnfvDLUkcbEzz1wl2RRr9gu8nfU3dN36eeerNhRnPrf01oa16p7jGn59H+LnyvGzkDPMv++t7uqSeAgoKuCWaTzqohdHktH56xs7dcs+4uWnLVK9uDdO2Wd0g0KJjwgEU/cL8m/u/TiyB6+er5xpGMXHmln8DKxNAWWcbw6cOm5zUg0V5nmw/w682f4byAijaVxP93vDITBvQKfv3W9vCaeeODcy9tndK2Dufhmc+9VJRozVc/vDrXO4p5aFeJiPGzTPP2eshU9I9qKWFD7WBTj9VNoCiHmePX5u6rGi2c6Cod5brJeaXQ881/G2IvX9+bHt5+Smf7zTlEw6KubzdRLV6XYh7XPnmU/Z8ruOKrsVs7tF8vjP12UkI5CNAACUfPe/YQgZQ1JDT8A6l8HAarwjBU/8/22pQq5GXLuk/7upRoQaCa9RqP/dLqwu+aD81DrQcrEvZNEQrCqCo8aBfd/UrrkvhuVbc9vBjPmV3eWkJVJlqSIprCGk4iXrEHH/88Yl5M9z+/mOuxyqo8eKLLwbBENdAVINM5lphSY1BNc7SJS1jrHlp9Au8GsAuaUlmNYYzDXfI9TiXf7rHbOtOjWGtBKUvGdeoV37qNaAyy7oyyQ+gaL4XBVE0P5DK45LqUPNQ9OrVy21KPGZz3SZ2tk80h5DyV/mduYIo6tWie0K9gfxUFUGI8nqgqCy6nzQHjPti1zYFINS7QQ18HS/HuAZQVF6VTwHOd999NymQosCD7hX15FDvsUzXfJQBFJVH95x6HE2ZMiVpCWK5durUKQhc9uzZU7tmTLpGdS2pl42797Wz8tA8S5pIOdPSyrr21Bvu22+/NRqm95Of/CTjeQr5RlQBFJVRDbHbnp6dWN5U2/TLrlbpaGMb1b+2DXelfAIoOl6N8DuenWs+tsvxuqV41TNkJ9uw7dOrWdKQE+2fbwBFeXw+Y6W587m5RpOIuqQgydlHtTYH79nEHHf9RLc5CGb4DUb9yq3lXDWZpiZi3bD5V28d0K1DfdO/d+tgKVw1NtMlnfseO0ntpFmrEnN0aCUiBRt67byNOcOuChSKN6bLJrFtzbpNRvX+xBvfJvLT8eoJcs2p7c2Y1xeaP/+jrMef5rLRnDbhpAbwPS/MTSy1rLJ3bV8/mFPl7x8vNY++WjYUJhxAUT7qsaOhQrpeXO8d9dzpd2ALu5pLq2DuCDUslSoTQNH+qp8hdoJTf5Wjn9vhZJfYYWVKFQVQtI+uKQWI1ItisdcjRmU88kfNzDm2ztMNl8qn4anz5lovFTValXdFqbL3lJ+fVjAaZVehmj53TaJHh97fxd6PWrHqJ7snD1vTe1UdQNFwK032q8meNVRMSdd8V9sb5ZpTO5ju9j5Ml3L9TlNeCrgqAPr0W8kBUPVQ07Xkp6jvceWda9nzuY6zuRYrukdV9ny/M5UHCYFcBNz/s/0RGrnkU+hjathG8+Z/Jgt9qtzyL2QAJbcSZXeUWNULws35UNHqF9nlmt1eOrcaBWowqTGcqQGRKbcoyq6ghhpIOrff8yPTOf3t+Ryrz6zhLOp1UhlzNaZUXtdzxk2Q6pcr3fNcj0uXl7ZVpu4UoFIPHAVR9Et7piBRpnO57TLTr/RKbsJcPVfPBPXsUd6VvYZ0fEVJ5Xc9h9R4l33ck4aOqMzq0aB7qxTKnM5UwV0FhdWzQyvhpJuPJt1xhdqm70kFQxRIc0OLKnsuBVCUh75vtFx5uAdNuvx0v6knkc67NaWFS9ebuXZeDs2NkW6Vlig/q3p+fGd7eaghpKEChU4aeqM5BprbwFB4Mtlszr3WDpWZaocPqKzyaWh//c426X9Ls75dY1baAISGIdQJTcCabT5uP/Ug0Hwj36/aYDq3q5/So8LtV96jftVXmTq1rZ/SKCzvOL2nBqaGxmgOlg6t6iV6DFV0XEXvy0nXn65DBetaNa2Tc94a4qKeU6pvDRnL17yisuv9KOolm/Nk2ifXe0q9C762AUI9trNW6SY9znTOQmw/+7apid5M/nw1ChYtsEPydM1nO/lyPt9pCshp6JuCnh1a1i33Pov6HpdrPmUvRL0oz8rco/l8Zxaq/OS79QoQQImobks1gBLRxycbBAoukCmAUvATcwIEEEAAAQQQ2CoFMgVQtsoPy4dCAIFIBAigRMJogmUolZUmnSQhgED0AgRQojclRwQQQAABBKqzAAGU6lz7fHYEchMggJKbW8pR9EBJIWEDApEKEECJlJPMEEAAAQQQqPYCBFCq/SUAAAKVFiCAUmmy9AcQQEnvwlYEohIggBKVJPkggAACCCCAgAQIoHAdIIBAZQUIoFRWLMP+BFAywLAZgYgENFnso48+GuSmVXB22223iHImGwQQQAABBBCojgJauUqTJCtppazee29bHRn4zAggUAkBAiiVwCpvVwIo5enwHgIIIIAAAggggAACCCCAAAKlLUAAJaL6I4ASESTZIIAAAggggAACCCCAAAIIIBBDAQIoEVUKAZSIIMkGAQQQQAABBBBAAAEEEEAAgRgKEECJqFIIoEQESTYIIIAAAggggAACCCCAAAIIxFCAAEpElUIAJSJIskEAAQQQQAABBBBAAAEEEEAghgIEUCKqFAIoEUGSDQIIIIAAAggggAACCCCAAAIxFCCAElGlEECJCJJsEEAAAQQQQAABBBBAAAEEEIihAAGUiCqFAEpEkGSDAAIIIIAAAggggAACCCCAQAwFCKBEVCkEUCKCJBsEEEAAAQQQQAABBBBAAAEEYihAACWiSiGAEhEk2SCAAAIIIIAAAggggAACCCAQQwECKBFVCgGUiCDJBgEEEEAAAQQQQAABBBBAAIEYChBAiahSCKBEBEk2CCCAAAIIIIAAAggggAACCMRQgABKRJVCACUiSLJBAAEEEEAAAQQQQAABBBBAIIYCBFAiqhQCKBFBkg0CCCCAAAIIIIAAAggggAACMRQggBJRpRBAiQiSbBBAAAEEEEAAAQQQQAABBBCIoQABlIgqhQBKRJBkgwACCCCAAAIIIIAAAggggEAMBQigRFQpBFAigiQbBBBAAAEEEEAAAQQQQAABBGIoQAAlokohgBIRJNkggAACCCCAAAIIIIAAAgggEEMBAigRVQoBlIggyQYBBBBAAAEEEEAAAQQQQACBGAoQQImoUgigRARJNggggAACCCCAAAIIIIAAAgjEUIAASkSVQgAlIkiyQQABBBBAAAEEEEAAAQQQQCCGAgRQIqoUAigRQZINAggggAACCCCAAAIIIIAAAjEUIIASUaUQQIkIkmwQQAABBBBAAAEEEEAAAQQQiKEAAZSIKoUASkSQZIMAAggggAACCCCAAAIIIIBADAUIoERUKQRQIoIkGwQQQAABBBBAAAEEEEAAAQRiKEAAJaJKIYASESTZIIAAAggggAACCCCAAAIIIBBDAQIoEVWKC6BElB3ZIIAAAggggAACCCCAAAIIIIBADAW6desWw1JtKVKNTTZteRm/ZwRQ4lcnlAgBBBBAAAEEEEAAAQQQQACBqAUIoEQtSn4IIIAAAggggAACCCCAAAIIIIBAFQvEvgdKFXtwOgQQQAABBBBAAAEEEEAAAQQQQCBFgABKCgkbEEAAAQQQQAABBBBAAAEEEEAAgWQBAijJHrxCAAEEEEAAAQQQQAABBBBAAAEEUgQIoKSQsAEBBBBAAAEEEEAAAQQQQAABBBBIFiCAkuzBKwQQQAABBBBAAAEEEEAAAQQQQCBFgABKCgkbEEAAAQQQQAABBBBAAAEEEEAAgWQBAijJHrxCAAEEEEAAAQQQQAABBBBAAAEEUgQIoKSQsAEBBBBAAAEEEEAAAQQQQAABBBBIFiCAkuzBKwQQQAABBBBAAAEEEEAAAQQQQCBFgABKCgkbEEAAAQQQQAABBBBAAAEEEEAAgWQBAijJHrxCAAEEEEAAAQQQQAABBBBAAAEEUgQIoKSQsAEBBBBAAAEEEEAAAQQQQAABBBBIFiCAkuzBKwQQQAABBBBAAAEEEEAAAQQQQCBFgABKCgkbEEAAAQQQQAABBBBAAAEEEEAAgWQBAijJHrxCAAEEEEAAAQQQQAABBBBAAAEEUgQIoKSQsAEBBBBAAAEEEEAAAQQQQAABBBBIFiCAkuzBKwQQQAABBBBAAAEEEEAAAQQQQCBFgABKCgkbEEAAAQQQQAABBBBAAAEEEEAAgWQBAijJHrxCAAEEEEAAAQQQQAABBBBAAAEEUgQIoKSQsAEBBBBAAAEEEEAAAQQQQAABBBBIFiCAkuzBKwQQQAABBBBAAAEEEEAAAQQQQCBFgABKCgkbEEAAAQQQQAABBBBAAAEEEEAAgWQBAijJHrxCAAEEEEAAAQQQQAABBBBAAAEEUgQIoKSQsAEBBBBAAAEEEEAAAQQQQAABBBBIFiCAkuzBKwQQQAABBBBAAAEEEEAAAQQQQCBFgABKCgkbEEAAAQQQQAABBBBAAAEEEEAAgWQBAijJHrxCAAEEEEAAAQQQQAABBBBAAAEEUgQIoKSQsAEBBBBAAAEEEEAAAQQQQAABBBBIFiCAkuzBKwQQQAABBBBAAAEEEEAAAQQQQCBFgABKCgkbEEAAAQQQQAABBBBAAAEEEEAAgWQBAijJHrxCAAEEEEAAAQQQQAABBBBAAAEEUgQIoKSQsAEBBBBAAAEEEEAAAQQQQAABBBBIFiCAkuzBKwQQQAABBBBAAAEEEEAAAQQQQCBFgABKCgkbEEAAAQQQQAABBBBAAAEEEEAAgWQBAijJHrxCAAEEEEAAAQQQQAABBBBAAAEEUgQIoKSQsAEBBBBAAAEEEEAAAQQQQAABBBBIFiCAkuzBKwQQQAABBBBAAAEEEEAAAQQQQCBFgABKCgkbEEAAAQQQQAABBBBAAAEEEEAAgWQBAijJHrxCAAEEEEAAAQQQQAABBBBAAAEEUgQIoKSQsAEBBBBAAAEEEEAAAQQQQAABBBBIFiCAkuzBKwQQQAABBBBAAAEEEEAAAQQQQCBFgABKCgkbEEAAAQQQQAABBBBAAAEEEEAAgWQBAijJHrxCAAEEEEAAAQQQQAABBBBAAAEEUgQIoKSQsAEBBBBAAAEEEEAAAQQQQAABBBBIFiCAkuzBKwQQQAABBBBAAAEEEEAAAQQQQCBFgABKCgkbEEAAAQQQQAABBBBAAAEEEEAAgWQBAijJHrxCAAEEEEAAAQQQQAABBBBAAAEEUgQIoKSQsAEBBBBAAAEEEEAAAQQQQAABBBBIFiCAkuzBKwQQQAABBBBAAAEEEEAAAQQQQCBFgABKCgkbEEAAAQQQQAABBBBAAAEEEEAAgWQBAijJHrxCAAEEEEAAAQQQQAABBBBAAAEEUgQIoKSQsAEBBBBAAAEEEEAAAQQQQAABBBBIFiCAkuzBKwQQQAABBBBAAAEEEEAAAQQQQCBFgABKCgkbEEAAAQQQQAABBBBAAAEEEEAAgWQBAijJHrxCAAEEEEAAAQQQQAABBBBAAAEEUgQIoKSQsAEBBBBAAAEEEEAAAQQQQAABBBBIFiCAkuzBKwQQQAABBBBAAAEEEEAAAQQQQCBFgABKCgkbEEAAAQQQQAABBBBAAAEEEEAAgWQBAijJHrxCAAEEEEAAAQQQQAABBBBAAAEEUgQIoKSQsAEBBBBAAAEEEEAAAQQQQAABBBBIFiCAkuzBKwQQQAABBBBAAAEEEEAAAQQQQCBFgABKCgkbEEAAAQQQQAABBBBAAAEEEEAAgWQBAijJHrxCAAEEEEAAAQQQQAABBBBAAAEEUgQIoKSQsAEBBBBAAAEEEEAAAQQQQAABBBBIFiCAkuzBKwQQQAABBBBAAAEEEEAAAQQQQCBFgABKCgkbEEAAAQQQQAABBBBAAAEEEEAAgWQBAijJHrxCAAEEEEAAAQQQQAABBBBAAAEEUgQIoKSQsAEBBBBAAAEEEEAAAQQQQAABBBBIFiCAkuzBKwQQQAABBBBAAAEEEEAAAQQQQCBFgABKCgkbEEAAAQQQQAABBBBAAAEEEEAAgWQBAijJHrxCAAEEEEAAAQQQQAABBBBAAAEEUgQIoKSQsAEBBBBAAAEEEEAAAQQQQAABBBBIFiCAkuzBKwQQQAABBBBAAAEEEEAAAQQQQCBFgABKCgkbEEAAAQQQQAABBBBAAAEEEEAAgWQBAijJHrxCAAEEEEAAAQQQQAABBBBAAAEEUgQIoKSQsAEBBBBAAAEEEEAAAQQQQAABBBBIFiCAkuzBKwQQQAABBBBAAAEEEEAAAQQQQCBFgABKCgkbEEAAAQQQQAABBBBAAAEEEEAAgWQBAijJHrxCAAEEEEAAAQQQQAABBBBAAAEEUgQIoKSQsAEBBBBAAAEEEEAAAQQQQAABBBBIFiCAkuzBKwQQQAABBBBAAAEEEEAAAQQQQCBFgABKCgkbEEAAAQQQQAABBBBAAAEEEEAAgWQBAijJHrxCAAEEEEAAAQQQQAABBBBAAAEEUgQIoKSQsAEBBBBAAAEEEEAAAQQQQAABBBBIFiCAkuzBKwQQQAABBBBAAAEEEEAAAQQQQCBFgABKCgkbEEAAAQQQQAABBBBAAAEEEEAAgWQBAijJHrxCAAEEEEAAAQQQQAABBBBAAAEEUgQIoKSQsAEBBBBAAAEEEEAAAQQQQAABBBBIFiCAkuzBKwQQQAABBBBAAAEEEEAAAQQQQCBFgABKCgkbEEAAAQQQQAABBBBAAAEEEDBm/YZNiT8bN1mRTfqreib3yWvUqOEBuK3GBNu3vPT20dOyN5KPLdtlU2Dq52m325dl28v2CTa4p/bRfy90pLdXmqe27DXtAbVr1Uj8SbNXxk0EUDLS8AYCCCCAAAIIIIAAAggggEB1FFCwZO26jWbtevukGgdNtuq6t8GUurXtnzo1g6BKNp+VAEo2SuyDAAIIIIAAAggggAACCCBQLQQUPFm9doNZr+AJaasXqG2DKPXr1soqiEIAZau/HPiACCCAAAIIIIAAAggggAAC2QqsXmt7ntjeJ6TqI6BeKPXr1qzwAxNAqZCIHRBAAAEEEEAAAQQQQAABBKqDgOY8WbnGBk8YtlMdqnvLZ7TDeRrWqxnMi7JlY+ozAiipJmxBAAEEEEAAAQQQQAABBBCohgL0PqmGlb75I2fTC4UASvW9PvjkCCCAAAIIIIAAAggggAACnsDyVRvMxmC5HW8jT6uFQE27PE/jBrXK/awEUMrl4U0EEEAAAQQQQAABBBBAAIHqIrBs5QaG71SXyg5/TjuMp0lDAihhFl4jgAACCCCAAAIIIIAAAgggkCKwbMX6lG1sqD4CTRrVLvfD0gOlXB7eRAABBBBAAAEEEEAAAQQQqC4CBFCqS02n/5wEUNK7sBUBBBBAAAEEEEAAAQQQQACBJAECKEkc1e4FAZRqV+V8YAQQQAABBBBAAAEEEEAAgVwECKDkorb1HEMAZeupSz4JAggggAACCCCAAAIIIPD/7d15fFRFtsDxkwQChJAQBAIBJawii7uM+4KOMu4rzIiKuCAqiIoDCCKIqCCKCCOKIMqgD4FRQAUVPvoAUXw6I47sq+wiQZZAVpLw6lTnXjqdpEmTkHSnf/X52H373rpLfS/zR86cOoXACRQggHICcUPg0gRQQuAl8YgIIIAAAggggAACCCCAAAIVL0AApeLfQUU+AQGUitTn3ggggAACCCCAAAIIIIAAAiEjQAAlZF5VmT/oEXPFeFbhKXNXLogAAggggAACCCCAAAIIIFAJBQigVMKXWtIhRURIXEyU394sY+yXh4MIIIAAAggggAACCCCAAALhIkAAJVzedBHjJIBSBAq7EEAAAQQQQAABBBBAAAEEEChCgABKESjhsitCTAZKFb+jJQPFLw8HEUAAAQQQQAABBBBAAAEEwkWAAEq4vOkixkkApQgUdiGAAAIIIIAAAggggAACCCBQhAABlCJQwmRXhJnCU4saKGHythkmAggggAACCCCAAAIIIIBAqQQIoJSKL6RPJoAS0q+Ph0cAAQQQQAABBBBAAAEEEChPAQIo5akdXPcyCSgmA4UaKMH1VngaBBBAAAEEEEAAAQQQQACBoBQggBKUr6VcHioyMkJia7CMcblgcxMEEEAAAQQQQAABBBBAAIHQFiCAEtrvrzRPTwClNHqciwACCCCAAAIIIIAAAgiUQCA9PV12794t9evXl5iYmBKcEV5dnn32WXn//fftoC+88EJ3OxgVQiGAsu9QruTk5km9+KrBSBiyz0QAJWRfHQ+OAAIIIIAAAggggAACwSywbds2mTJlinzyySeyZ88e+6hahDIxMVHatWsnjz/+uLRp0yaYh1Buz0YApXTUeUdEvl62Tz5amCJbd2dJelauvWBCrSrS+pSaclqTGnLLJfUktrr/6Sele4rKfzY1UCr/O2aECCCAAAIIIIAAAgggUM4CH330kQwcOFAOHz5c7J0jIyOlS5cuMmzYMImKCu8/bAmgFPvP5JgHUvYflgETN8qmnZl++zZtUF1eeLCpNKxTzW8/DhYvwCo8xdtwBAEEEEAAAQQQQAABBBAIWOCf//ynDB061D1P/+hq2rSpnHrqqbJ3715ZtWqVHDx40D3es2dP6devn/s7HDcIoBzfW888fET6jFsv67aluxeIioqQNskx0iAhWnbsyZJVm48eq10rSkb2aCGtGtdw+7NRcgECKCW3oicCCCCAAAIIIIAAAggg4Fdg69at0qlTJ8nM9GQDnHLKKTJp0iRp0aKFe15qaqoMGTJE5syZY/fpH2Va/+OCCy5w+4TbBgGU43vj0/93t7z1yU735EdubiTXnl9HalY7mtG0emu6yVDZJKmHcmy/006JkfFPtHLPYaPkAgRQSm5FTwQQQAABBBBAAAEEEEDAr0Dv3r1l7ty5tk9sbKwsXLhQ6tSpU+icrKws+ctf/iKbN2+2x2644QZ5/fXXC/Xz3qHTgapWLV1R0JycHKlSpYr3ZUu0refpNCP9AzLQVpLnJoASqKqn/zOTN8m3y1Ptj/bNa8rYXi2LvNDc7/fKK9O3usfeG3CaNEn0P5XncO4RqWqyWcqrHTZlW6pEivk3Vl53PI77mGeLi/H/v5+II6Ydx6U5BQEEEEAAAQQQQAABBBAIG4GMjAw599xzRb+13X///TJo0KBix//aa6/JuHHj7PG6devKDz/8UKiv1lJZvHixrFy50gZbatSoIcnJyXLjjTfKPffcI9WqFfwj+JtvvpFXXnnFXqd58+YyevRoG9CZOXOmLF++XDT75eSTT7ZZMlrENjo6utA9nR2//PKLTJ48WVavXi2bNm2y99JrXnXVVdKjR49C93bOy83Ntdk1H3zwgaxdu9Zm4+g9W7duLd27d5cOHTo4Xd1vAiguRUAbD41e507f6XhWggy+p0mR5+/8I1t6jV3nHnv6b6fIea3j3N+6sWtvtsz6JkXW78g0/6VLemau1KsdLS0b1ZBunRpIi6Sj037STJHav7+5UfK0eq1p93ZqKOe3KXg93T/DFLX9+qe9uikNTqomQ7sl223nY7uZYjTT9Fm6MlX2HMiWGiZzpnlSdTm9WazcfU0DqVYlyKIpBFCcV8c3AggggAACCCCAAAIIIHD8Al999ZU8+OCD7gXmzZtngwbuDp8NDVBMmDDB3fv888+72SqHDh2S/v37y+eff+4e993Q6UEff/yxe44e//TTT6VPnz62a+PGjW2w47333rO/fT/OOeccmTFjRqGskry8PPtcGuDRzJOimt77nXfeEQ2o+La+ffvKrFmzfHfb35rF0qtXL3nssccK3JcASpFcx9w5fvYOmbkoxfaLNyvuTHzyVBP0CDxL6TsTwBg5basUt0SzZoU8dEOSdLmivvtMT47fKMvWe2r5/PncBBnYtXDwpvvINbJ5l2c6251XJsqD1zd0z1+/I0MeH7fBXTHIPZC/oUVvn703WZITq/seqrjfBiIu5uj0qKIehAyUolTYhwACCCCAAAIIIIAAAgh4CWi2xvDhw909mvFRs2ZN93dJN3QCwM0332wzRvQcDTpoZkv79u1l0aJFsn79evdSl19+uc0ScXZ4B1CcfXr+GWecYQvXep+rx8eOHSvXX3+909V++xbBTUpKkjPPPNNmryxdulQ0w0SbLsGsgRLvaUWa/TJ+/Hh7XKf76HM3aNDAZtBoFovTfO9LAMWRCez7P2sPylNvbXRPql8nWh64rqF0PLO2REWWLHvjWxM8GfzOJnHmndSJryIXtq0taRm58t2KA5J1OM9eX683plcLadfU82/6s6V/yKszttljGrz5aGjbAvfc+UeWdB2+2n22iX8/1c1i0WyXR01GzN4DngCd3rN901jJyMqTn01QJjvHk9miQZRJ/VpLCYfi3utEbehTxddkCs+J8uW6CCCAAAIIIIAAAgggECYCL7/8srz11lt2tHFxcfLzzz8f18iXLFlip+c4J2smyE033eT8tLVSvOul6NQfnQKkzTeA0rZtW5k6darUrl3bHtcpNbfeeqs7zci39sqBAwekY8eOsm/fPtv/jjvukBdeeMGtm7Js2TLRfZqlok2zZrp27Wq3NRvmqaeestsaPNEMFQ3waNP+2nfKlCn2d3JysixYsMBdvpkAimU5ro/3vtwlU77YVeBcXW3n8jMT5KqzE6Rtsv8gXu+x62XFr2n2/JPrV5N3+7d2AyGHzDSeLs+tstN5tMONF9WVJ25vbPumpufIbc+ulBxTK0XbuN4tpV2zo/f6+Js9Mu7j7faY1lvRuivask38rceo1bLl9yz7+5xWtWTY/c0kJtoT8Nm6O0t6m5WFnKK3A+5sItecl2D7BsNHHAGUYHgNPAMCCCCAAAIIIIAAAgiEssDAgQPlww8/tEPQmh+aLXI8bcWKFaK1TLRpwVetpRIZaapr5rft27fLpZde6vy0GShOoMI7gKKZJ5ox4gRXnBN0mpFON9KmmSne0200AKSBIG0JCQmiwRytu+LdHnjgAfn666/trltuuUVeffVVu33dddfZein646KLLrKBG3sg/0NXJtL9TnBGM10uvvhie5QAirdU4NsfmtV4Jn32m+Tm1yTxvkJDU3vklkvq2uBHUTVFNNCRme0JiJ1uAiBOholzjRFmas+XP3jqmPiu4DNw0iZbv0T7+k7R6Tdho/y4xjPF575rG8jdf25gL7lkhSfjxbm+b+BF9+t4JuSvLqTPM+6xoovjOtcoz28CKOWpzb0QQAABBBBAAAEEEECgUgqUVQClOByd2qOr92jTqTHp6el2W6fNaFaJNu8Aik6t0YwT3zZx4kR56aWX7G6dXvPdd9+5XZ544gl3eeXOnTvLiBEj3GPOhgZ45s+fb38mJibaDBTfoM4bb7xhVxlyznG+7733XlsUV397Z68QQHGEjv9bC7K+v+B3WfTzfjcg4n21BidFy6sPt5Ak812Spqvi5Jl/cx8v3iNvf7rDnqLBmP95xpNJoju++mmfDJ+6xR5LNtNtNHtFW0b2Eblp0H/lcH4JnamDTpPGdT0Fj1+atkXm/+DJcNIpOpPzz7En5n+s2pIuj47xFL3VbJpZw9p7H67QbQIoFcrPzRFAAAEEEEAAAQQQQKAyCGhA4N1337VDiY+PF53uUpqmhWS1yOuXX34pv/32m/z++++iSwL7tlGjRsltt91md5ckgKJFZYcNG2b7+wZQtPaKFrfVpqv0aLHXkjTNdHGm8mh/rddS1HLJW7Zskb17PdkMupLPgAED7OUJoJREuWR9Mg8fkSXL99vghmaA5OZPsdGz65oCs6MfaSEn1yu4epMe06DFrCUp8uvOTEk5cLjIgrIahJn2TBvtbpsGSm4dvNwN2HxggitJJsjinWXSqnENmdD3VOcUefyNjfLfDZ7MlARTO6VhEQEdDbys3+4JEOqJ80aeITXyp/i4F6qgDQIoFQTPbRFAAAEEEEAAAQQQQKDyCHhnduiodPlf32WGSzpazQrp2bOnaBDlWK0sAyh/+tOfJCUlxd7SO0PkWM/gHbg5Vl/nuNZ10fou2gigOCpl+73vUK5Mnf+bzPl2j6lD47m2b0Ajx0z7GTL5V9GVeI7VfAMo2l8zUDQTRVvvWxvLrWa60ChTXHaeKTKr7eGbGknny+vZbf24+8XVsj3Fk0nl7jzGxvuD2kijuiXLnDnGpUp9mABKqQm5AAIIIIAAAggggAACCIS7wNy5c6V3794ug9YJ0WKpxTXNxvjss8/cw5rBocVeN2/ebIvGHjzo+X/pzz//fLs8cosWLWxdEj1B9zlTeMoygKJFZVeuXGmfqV+/fjaI4z6gn43FixeLTs9x2rXXXlugbouz3/tbl1Hu1q2b3UUAxVumZNu6ak6ufpim5Vf9rbozZf4uee9zT6FZLacze3h7qVUjyp772r+2yycmwKKtenSkdP1zolzQJl5Oiq8qVc2CM7NMjZR35v5mjxcVQPluVaoMmrjJHteCsKN6Npfbn1thV9gxtYRl+rNtCyyt/Ojr62TVZk92iRaXbZYUY8/19/HozY3kpDj/q9/4O78sjxFAKUtNroUAAggggAACCCCAAAJhKaDFUTt06OAu8/vkk09Kr169irXQ5X61fom22NhYO+VHC7/+4x//kNGjR9v9LVu2tEEW76WC9UC7du3cAEqgNVD8TeHRAJAGgrRpcGPIkCF2+1gfOsVIC8Q6bd68edK6tacehrPP33coBVAOpOXYgIW/8ZTHMc0qGWOCH06b82J7icsPijj7nO9tJuPjHpP54bQXH2xmgiRxotkn1/X/xV02eNDdTezKPU4//Z6xMEXenFN0DRQ9rrVSbhuyXA6m5UoVE5MZ1bOlPPGGZ6nt05vHyutm6WPv9vKHW+Xz//NM47q4fbw8f19T78NBv00AJehfEQ+IAAIIIIAAAggggAACoSCgQQdnBR2tL7Jw4UKJji489SA3N9dmmaxatcoO68orrxSdAqTtoYceskv86rYWh3WCLPpbmxaT1QBKRkaG/V2WARQN3GgAR5tmz+hqPboksXfT5YknTZpkd+kqOpoBo03rnqSleZbDfeSRR9wlje1Brw+dlqQBI+8WSgGU1HQTMcjP/PAeQ3lvL1ufJk+O9wQq9N5DuzeVy06PL/Ix1pp6Ij1f9RRl1Q5jerWUM5rXlPU7MqTHK0cLDTs1TLwvMu3r3aaI7E67y7eIrNPvlRnbZe5STxZLi0YxsmGHJ8PkcbPk8U1m6WPv5h2QiY2JkqkD20jtmp5sGO9+uqCQ1nNxljf2PlaR2wRQKlKfeyOAAAIIIIAAAggggEClEfjpp59EV6/Jyy84oRkpb7/9tsTFxbljzM7OlpEjR7oFZ/WABi102os2zVyZPXu23dYpPVoPpXr16va3Bk+efvppW1zW7jAfuuzw7bffbn961yIpbhUefxkoW7dulauvvlr0GbVpsdm77rrLbuuHBj8uu+wydyliHccdd9xhj+v2hAkT7LYWkNVAyyWXXGJ/Ox8aUNLitFo89q9//auzO7RqoKSbCqeemTPu81fEhi5ZfO+INW49EV2t5uWHWkjLRgWXnc7OOSKD3tkk/85fUlin+nz60um2KOvOP7Kl63BPEE/H0OOGJPlbx/rucDbszJC+b26U1ENmzKYl1omWDwcfLSLrdPx5Q5qbdeLsi4qKkH89165QcOSP1BzpNmK1pGWYQJRp57eNk8H3NC0QKNHitC9M/VV278+RUQ83l3gTaAmWRgAlWN4Ez4EAAggggAACCCCAAAIhLzB8+HCZPHmyOw5dkeess86SZs2a2QKtP/74o+za5alHoZ26dOniLiusv2fOnCn9+/fXTduaNGligyu6Ao/WGlm37mgmgXZ45pln5L777rN9SxtA0Yt4B0L0d6dOneTss8+WNWvW2BWBnCyTWrVqyaJFi2zdFu2XmZlp+2oQRptmrlxzzTV27Bp40eDS999/b6c46VSlL774Qpo3b277hlYGSnAEUBTuP+sOyoC3N0qOJxZhzEW0DokuKVzLBB1SDuTIt2ZFnn0HPQEQPef2y+qJ1hRxWudhqyRlnydgpjVPOrSOk7ZNa8nqLWny77WpkpGVX33WnBBTPUrmvlR4SWHNFun83Er5w6ze47TzWtcyAR3P+3X2Od+fmgKzo02hWadpYOaKMxNsrZR1Jltm2YZDsnuv55muOjdBBnVt4nSt8G8CKBX+CngABBBAAAEEEEAAAQQQqCwCmiWiWSFONoa/cWm2x5gxY9wME+2r5+tUoCVLlhR5as2aNUWzS/bv32+Pd+/eXQYPHmy3yyKAosVpNQtm/vz5Rd5fdzZq1MgGibRGi3fTArR9+vSRTZs8RUW9jznbMTExMm7cOLniiiucXSGVgXLQTOHRdxQsTVfPGTV9q+z3CpIU92wXmmyPYabmiHfB2f9uTJO+4zeIZrQU1TS48Xt+MEOPF1drZfzsHTJzkWcFJ+034M4mcs15CbpZqCnfBDMtaOai3e7qQIU6mR0XtI032SnJQbOEsT4jAZSi3hT7EEAAAQQQQAABBBBAAIFSCCxdutROY9FpK86UHr2cTsdp27at9O3b166mU9QtNJvjzTfftHVRdFtbpFk+RacEjRgxwgZnpk2bZvdrFseCBQvsdlkEUOyFzMf06dPtfTSjxHn+pKQk0aWOdQpOvXr1nK4FvrOysmxQaM6cOQUybfRcfm6BkAAABmhJREFUzcTR5Zl1/N4tlDJQgi2Aoo4HzXSY2Uv2mNVt0mTttvQCGSc6laZNcozcdVWizS7xdne2V21Jl7EfbTPneurq6P5api5Jt6sbyKVn1JbOQ1c6XWVwtybS0WSL+LY15r4Pj/ZkR9nVe8xKPzWr+Z96o/fVArWadZJt6p1oi64SIa1OjpEOp8XJnVfWLxDs8b1nRfwmgFIR6twTAQQQQAABBBBAAAEEwkJAAyA7duywdUM0c0OLy/oWZi0OQovNagDjwIED0qpVK9HsjfJumpGyYcMGGzBp2LBhQLdPTU2VjRs3igZPEhMTAzo3WDsHYwDF1ypl/2GbNVK3dlU7LcY748S3r/fvVFPfZXtKttSOjZKkk6p5Hzqh25r8smNPlp0u1LRhDanqP+5yQp/lWBcngHIsIY4jgAACCCCAAAIIIIAAAgggYAQOmiBDEM3g4Z2UswABlHIG53YIIIAAAggggAACCCCAAAKhKXDITJfJK6ZeSGiOiKcORIAASiBa9EUAAQQQQAABBBBAAAEEEAhbAQIoYfvq7cAJoIT3+2f0CCCAAAIIIIAAAggggAACJRQggFJCqErajQBKJX2xDAsBBBBAAAEEEEAAAQQQQKBsBaiBUraeoXY1Aiih9sZ4XgQQQAABBBBAAAEEEEAAgQoRCIVVeCoEJkxuSgAlTF40w0QAAQQQQAABBBBAAAEEECidAAGU0vmF+tkEUEL9DfL8CCCAAAIIIIAAAggggAAC5SKQapYxliPlcituEoQCBFCC8KXwSAgggAACCCCAAAIIIIAAAsEnQAAl+N5JeT4RAZTy1OZeCCCAAAIIIIAAAggggAACISuQmp5rMlBIQQnZF1jKByeAUkpATkcAAQQQQAABBBBAAAEEEAgPAQIo4fGeixslAZTiZNiPAAIIIIAAAggggAACCCCAgJfAgbQcifD6zWZ4CRBACa/3zWgRQAABBBBAAAEEEEAAAQSOUyDVBFBo4StAACV83z0jRwABBBBAAAEEEEAAAQQQCECAAEoAWJWwKwGUSvhSGRICCCCAAAIIIIAAAggggEDZCxBAKXvTULoiAZRQels8KwIIIIAAAggggAACCCCAQIUJEECpMPqguDEBlKB4DTwEAggggAACCCCAAAIIIIBAsAsQQAn2N3Rin48Ayon15eoIIIAAAggggAACCCCAAAKVRIAASiV5kcc5DAIoxwnHaQgggAACCCCAAAIIIIAAAuElkJqeK3LkSHgNmtF6BCIiJC4myq9GxBHT/PbgIAIIIIAAAggggAACCCCAAAJhIHAoI1fy8vgTOQxedaEhRkZGSGwNAiiFYNiBAAIIIIAAAggggAACCCCAgK9AZnaeZB/O893N7zAQiK4aKdWjI/2OlAwUvzwcRAABBBBAAAEEEEAAAQQQCBeBnNwjkp5lAihM1AiXV+4Zp5m+E1MtUqpERfgdNwEUvzwcRAABBBBAAAEEEEAAAQQQCCcBslDC6W17xlqS7BPtSQAl/P5tMGIEEEAAAQQQQAABBBBAAIFiBLQESmZ2ruTkUAulGKJKtbtKlQgzdSdKTAmUYzYCKMckogMCCCCAAAIIIIAAAggggEA4CWgQRWuhZGsQhek8lfPVm2k70SZ4otknJQmeKAIBlMr5T4FRIYAAAggggAACCCCAAAIIlFJAa6I4/9nFeQIIpnjnr0SYP9YLtqNH7bGjP/O7HZHC52gsx+noe73808zuo31039F+zv6je/LPCacv8x40WKK1Tpz/Ahk+AZRAtOiLAAIIIIAAAggggAACCCCAAAJhKUAAJSxfO4NGAAEEEEAAAQQQQAABBBBAAIFABAigBKJFXwQQQAABBBBAAAEEEEAAAQQQCEsBAihh+doZNAIIIIAAAggggAACCCCAAAIIBCJAACUQLfoigAACCCCAAAIIIIAAAggggEBYChBACcvXzqARQAABBBBAAAEEEEAAAQQQQCAQAQIogWjRFwEEEEAAAQQQQAABBBBAAAEEwlKAAEpYvnYGjQACCCCAAAIIIIAAAggggAACgQgQQAlEi74IIIAAAggggAACCCCAAAIIIBCWAgRQwvK1M2gEEEAAAQQQQAABBBBAAAEEEAhEgABKIFr0RQABBBBAAAEEEEAAAQQQQACBsBQggBKWr51BI4AAAggggAACCCCAAAIIIIBAIAL/D5/VH1kkew8wAAAAAElFTkSuQmCC;" vertex="1" parent="1">
          <mxGeometry x="120" y="80" width="1104" height="804" as="geometry" />
        </mxCell>
        <mxCell id="SbEmLFBMXfGKY2shz8Sj-2" value="" style="rounded=0;whiteSpace=wrap;html=1;fillColor=none;strokeWidth=3;strokeColor=#FF0000;" vertex="1" parent="1">
          <mxGeometry x="400" y="430" width="210" height="90" as="geometry" />
        </mxCell>
        <mxCell id="SbEmLFBMXfGKY2shz8Sj-3" value="&lt;font style=&quot;font-size: 27px;&quot;&gt;Select &lt;i&gt;T4 GPU&lt;/i&gt;&lt;/font&gt;" style="text;html=1;strokeColor=none;fillColor=none;align=center;verticalAlign=middle;whiteSpace=wrap;rounded=0;" vertex="1" parent="1">
          <mxGeometry x="640" y="320" width="230" height="70" as="geometry" />
        </mxCell>
        <mxCell id="SbEmLFBMXfGKY2shz8Sj-4" value="" style="endArrow=classic;html=1;rounded=0;entryX=1;entryY=0.5;entryDx=0;entryDy=0;exitX=0.5;exitY=1;exitDx=0;exitDy=0;strokeWidth=4;" edge="1" parent="1" source="SbEmLFBMXfGKY2shz8Sj-3" target="SbEmLFBMXfGKY2shz8Sj-2">
          <mxGeometry width="50" height="50" relative="1" as="geometry">
            <mxPoint x="540" y="420" as="sourcePoint" />
            <mxPoint x="590" y="370" as="targetPoint" />
          </mxGeometry>
        </mxCell>
      </root>
    </mxGraphModel>
  </diagram>
</mxfile>
